<?xml version="1.0" encoding="utf-8" standalone="no"?>
<!DOCTYPE svg PUBLIC "-//W3C//DTD SVG 1.1//EN"
  "http://www.w3.org/Graphics/SVG/1.1/DTD/svg11.dtd">
<svg xmlns:xlink="http://www.w3.org/1999/xlink" width="612pt" height="374.4pt" viewBox="0 0 612 374.4" xmlns="http://www.w3.org/2000/svg" version="1.1">
 <metadata>
  <rdf:RDF xmlns:dc="http://purl.org/dc/elements/1.1/" xmlns:cc="http://creativecommons.org/ns#" xmlns:rdf="http://www.w3.org/1999/02/22-rdf-syntax-ns#">
   <cc:Work>
    <dc:type rdf:resource="http://purl.org/dc/dcmitype/StillImage"/>
    <dc:date>2026-07-23T20:46:28.184414</dc:date>
    <dc:format>image/svg+xml</dc:format>
    <dc:creator>
     <cc:Agent>
      <dc:title>Matplotlib v3.10.8, https://matplotlib.org/</dc:title>
     </cc:Agent>
    </dc:creator>
   </cc:Work>
  </rdf:RDF>
 </metadata>
 <defs>
  <style type="text/css">*{stroke-linejoin: round; stroke-linecap: butt}</style>
 </defs>
 <g id="figure_1">
  <g id="patch_1">
   <path d="M 0 374.4 
L 612 374.4 
L 612 0 
L 0 0 
z
" style="fill: #ffffff"/>
  </g>
  <g id="axes_1">
   <g id="patch_2">
    <path d="M 60.32 332.44 
L 601.2 332.44 
L 601.2 26.88 
L 60.32 26.88 
z
" style="fill: #ffffff"/>
   </g>
   <g id="matplotlib.axis_1">
    <g id="xtick_1">
     <g id="line2d_1">
      <path d="M 84.905455 332.44 
L 84.905455 26.88 
" clip-path="url(#p34bb8a39d9)" style="fill: none; stroke: #b0b0b0; stroke-opacity: 0.25; stroke-width: 0.8; stroke-linecap: square"/>
     </g>
     <g id="line2d_2">
      <defs>
       <path id="m488441dcc6" d="M 0 0 
L 0 3.5 
" style="stroke: #000000; stroke-width: 0.8"/>
      </defs>
      <g>
       <use xlink:href="#m488441dcc6" x="84.905455" y="332.44" style="stroke: #000000; stroke-width: 0.8"/>
      </g>
     </g>
     <g id="text_1">
      <!-- 0 -->
      <g transform="translate(81.724205 347.038437) scale(0.1 -0.1)">
       <defs>
        <path id="DejaVuSans-30" d="M 2034 4250 
Q 1547 4250 1301 3770 
Q 1056 3291 1056 2328 
Q 1056 1369 1301 889 
Q 1547 409 2034 409 
Q 2525 409 2770 889 
Q 3016 1369 3016 2328 
Q 3016 3291 2770 3770 
Q 2525 4250 2034 4250 
z
M 2034 4750 
Q 2819 4750 3233 4129 
Q 3647 3509 3647 2328 
Q 3647 1150 3233 529 
Q 2819 -91 2034 -91 
Q 1250 -91 836 529 
Q 422 1150 422 2328 
Q 422 3509 836 4129 
Q 1250 4750 2034 4750 
z
" transform="scale(0.015625)"/>
       </defs>
       <use xlink:href="#DejaVuSans-30"/>
      </g>
     </g>
    </g>
    <g id="xtick_2">
     <g id="line2d_3">
      <path d="M 183.247273 332.44 
L 183.247273 26.88 
" clip-path="url(#p34bb8a39d9)" style="fill: none; stroke: #b0b0b0; stroke-opacity: 0.25; stroke-width: 0.8; stroke-linecap: square"/>
     </g>
     <g id="line2d_4">
      <g>
       <use xlink:href="#m488441dcc6" x="183.247273" y="332.44" style="stroke: #000000; stroke-width: 0.8"/>
      </g>
     </g>
     <g id="text_2">
      <!-- 20 -->
      <g transform="translate(176.884773 347.038437) scale(0.1 -0.1)">
       <defs>
        <path id="DejaVuSans-32" d="M 1228 531 
L 3431 531 
L 3431 0 
L 469 0 
L 469 531 
Q 828 903 1448 1529 
Q 2069 2156 2228 2338 
Q 2531 2678 2651 2914 
Q 2772 3150 2772 3378 
Q 2772 3750 2511 3984 
Q 2250 4219 1831 4219 
Q 1534 4219 1204 4116 
Q 875 4013 500 3803 
L 500 4441 
Q 881 4594 1212 4672 
Q 1544 4750 1819 4750 
Q 2544 4750 2975 4387 
Q 3406 4025 3406 3419 
Q 3406 3131 3298 2873 
Q 3191 2616 2906 2266 
Q 2828 2175 2409 1742 
Q 1991 1309 1228 531 
z
" transform="scale(0.015625)"/>
       </defs>
       <use xlink:href="#DejaVuSans-32"/>
       <use xlink:href="#DejaVuSans-30" transform="translate(63.623047 0)"/>
      </g>
     </g>
    </g>
    <g id="xtick_3">
     <g id="line2d_5">
      <path d="M 281.589091 332.44 
L 281.589091 26.88 
" clip-path="url(#p34bb8a39d9)" style="fill: none; stroke: #b0b0b0; stroke-opacity: 0.25; stroke-width: 0.8; stroke-linecap: square"/>
     </g>
     <g id="line2d_6">
      <g>
       <use xlink:href="#m488441dcc6" x="281.589091" y="332.44" style="stroke: #000000; stroke-width: 0.8"/>
      </g>
     </g>
     <g id="text_3">
      <!-- 40 -->
      <g transform="translate(275.226591 347.038437) scale(0.1 -0.1)">
       <defs>
        <path id="DejaVuSans-34" d="M 2419 4116 
L 825 1625 
L 2419 1625 
L 2419 4116 
z
M 2253 4666 
L 3047 4666 
L 3047 1625 
L 3713 1625 
L 3713 1100 
L 3047 1100 
L 3047 0 
L 2419 0 
L 2419 1100 
L 313 1100 
L 313 1709 
L 2253 4666 
z
" transform="scale(0.015625)"/>
       </defs>
       <use xlink:href="#DejaVuSans-34"/>
       <use xlink:href="#DejaVuSans-30" transform="translate(63.623047 0)"/>
      </g>
     </g>
    </g>
    <g id="xtick_4">
     <g id="line2d_7">
      <path d="M 379.930909 332.44 
L 379.930909 26.88 
" clip-path="url(#p34bb8a39d9)" style="fill: none; stroke: #b0b0b0; stroke-opacity: 0.25; stroke-width: 0.8; stroke-linecap: square"/>
     </g>
     <g id="line2d_8">
      <g>
       <use xlink:href="#m488441dcc6" x="379.930909" y="332.44" style="stroke: #000000; stroke-width: 0.8"/>
      </g>
     </g>
     <g id="text_4">
      <!-- 60 -->
      <g transform="translate(373.568409 347.038437) scale(0.1 -0.1)">
       <defs>
        <path id="DejaVuSans-36" d="M 2113 2584 
Q 1688 2584 1439 2293 
Q 1191 2003 1191 1497 
Q 1191 994 1439 701 
Q 1688 409 2113 409 
Q 2538 409 2786 701 
Q 3034 994 3034 1497 
Q 3034 2003 2786 2293 
Q 2538 2584 2113 2584 
z
M 3366 4563 
L 3366 3988 
Q 3128 4100 2886 4159 
Q 2644 4219 2406 4219 
Q 1781 4219 1451 3797 
Q 1122 3375 1075 2522 
Q 1259 2794 1537 2939 
Q 1816 3084 2150 3084 
Q 2853 3084 3261 2657 
Q 3669 2231 3669 1497 
Q 3669 778 3244 343 
Q 2819 -91 2113 -91 
Q 1303 -91 875 529 
Q 447 1150 447 2328 
Q 447 3434 972 4092 
Q 1497 4750 2381 4750 
Q 2619 4750 2861 4703 
Q 3103 4656 3366 4563 
z
" transform="scale(0.015625)"/>
       </defs>
       <use xlink:href="#DejaVuSans-36"/>
       <use xlink:href="#DejaVuSans-30" transform="translate(63.623047 0)"/>
      </g>
     </g>
    </g>
    <g id="xtick_5">
     <g id="line2d_9">
      <path d="M 478.272727 332.44 
L 478.272727 26.88 
" clip-path="url(#p34bb8a39d9)" style="fill: none; stroke: #b0b0b0; stroke-opacity: 0.25; stroke-width: 0.8; stroke-linecap: square"/>
     </g>
     <g id="line2d_10">
      <g>
       <use xlink:href="#m488441dcc6" x="478.272727" y="332.44" style="stroke: #000000; stroke-width: 0.8"/>
      </g>
     </g>
     <g id="text_5">
      <!-- 80 -->
      <g transform="translate(471.910227 347.038437) scale(0.1 -0.1)">
       <defs>
        <path id="DejaVuSans-38" d="M 2034 2216 
Q 1584 2216 1326 1975 
Q 1069 1734 1069 1313 
Q 1069 891 1326 650 
Q 1584 409 2034 409 
Q 2484 409 2743 651 
Q 3003 894 3003 1313 
Q 3003 1734 2745 1975 
Q 2488 2216 2034 2216 
z
M 1403 2484 
Q 997 2584 770 2862 
Q 544 3141 544 3541 
Q 544 4100 942 4425 
Q 1341 4750 2034 4750 
Q 2731 4750 3128 4425 
Q 3525 4100 3525 3541 
Q 3525 3141 3298 2862 
Q 3072 2584 2669 2484 
Q 3125 2378 3379 2068 
Q 3634 1759 3634 1313 
Q 3634 634 3220 271 
Q 2806 -91 2034 -91 
Q 1263 -91 848 271 
Q 434 634 434 1313 
Q 434 1759 690 2068 
Q 947 2378 1403 2484 
z
M 1172 3481 
Q 1172 3119 1398 2916 
Q 1625 2713 2034 2713 
Q 2441 2713 2670 2916 
Q 2900 3119 2900 3481 
Q 2900 3844 2670 4047 
Q 2441 4250 2034 4250 
Q 1625 4250 1398 4047 
Q 1172 3844 1172 3481 
z
" transform="scale(0.015625)"/>
       </defs>
       <use xlink:href="#DejaVuSans-38"/>
       <use xlink:href="#DejaVuSans-30" transform="translate(63.623047 0)"/>
      </g>
     </g>
    </g>
    <g id="xtick_6">
     <g id="line2d_11">
      <path d="M 576.614545 332.44 
L 576.614545 26.88 
" clip-path="url(#p34bb8a39d9)" style="fill: none; stroke: #b0b0b0; stroke-opacity: 0.25; stroke-width: 0.8; stroke-linecap: square"/>
     </g>
     <g id="line2d_12">
      <g>
       <use xlink:href="#m488441dcc6" x="576.614545" y="332.44" style="stroke: #000000; stroke-width: 0.8"/>
      </g>
     </g>
     <g id="text_6">
      <!-- 100 -->
      <g transform="translate(567.070795 347.038437) scale(0.1 -0.1)">
       <defs>
        <path id="DejaVuSans-31" d="M 794 531 
L 1825 531 
L 1825 4091 
L 703 3866 
L 703 4441 
L 1819 4666 
L 2450 4666 
L 2450 531 
L 3481 531 
L 3481 0 
L 794 0 
L 794 531 
z
" transform="scale(0.015625)"/>
       </defs>
       <use xlink:href="#DejaVuSans-31"/>
       <use xlink:href="#DejaVuSans-30" transform="translate(63.623047 0)"/>
       <use xlink:href="#DejaVuSans-30" transform="translate(127.246094 0)"/>
      </g>
     </g>
    </g>
    <g id="text_7">
     <!-- functional / biological age equivalent -->
     <g transform="translate(238.263906 360.716563) scale(0.1 -0.1)">
      <defs>
       <path id="DejaVuSans-66" d="M 2375 4863 
L 2375 4384 
L 1825 4384 
Q 1516 4384 1395 4259 
Q 1275 4134 1275 3809 
L 1275 3500 
L 2222 3500 
L 2222 3053 
L 1275 3053 
L 1275 0 
L 697 0 
L 697 3053 
L 147 3053 
L 147 3500 
L 697 3500 
L 697 3744 
Q 697 4328 969 4595 
Q 1241 4863 1831 4863 
L 2375 4863 
z
" transform="scale(0.015625)"/>
       <path id="DejaVuSans-75" d="M 544 1381 
L 544 3500 
L 1119 3500 
L 1119 1403 
Q 1119 906 1312 657 
Q 1506 409 1894 409 
Q 2359 409 2629 706 
Q 2900 1003 2900 1516 
L 2900 3500 
L 3475 3500 
L 3475 0 
L 2900 0 
L 2900 538 
Q 2691 219 2414 64 
Q 2138 -91 1772 -91 
Q 1169 -91 856 284 
Q 544 659 544 1381 
z
M 1991 3584 
L 1991 3584 
z
" transform="scale(0.015625)"/>
       <path id="DejaVuSans-6e" d="M 3513 2113 
L 3513 0 
L 2938 0 
L 2938 2094 
Q 2938 2591 2744 2837 
Q 2550 3084 2163 3084 
Q 1697 3084 1428 2787 
Q 1159 2491 1159 1978 
L 1159 0 
L 581 0 
L 581 3500 
L 1159 3500 
L 1159 2956 
Q 1366 3272 1645 3428 
Q 1925 3584 2291 3584 
Q 2894 3584 3203 3211 
Q 3513 2838 3513 2113 
z
" transform="scale(0.015625)"/>
       <path id="DejaVuSans-63" d="M 3122 3366 
L 3122 2828 
Q 2878 2963 2633 3030 
Q 2388 3097 2138 3097 
Q 1578 3097 1268 2742 
Q 959 2388 959 1747 
Q 959 1106 1268 751 
Q 1578 397 2138 397 
Q 2388 397 2633 464 
Q 2878 531 3122 666 
L 3122 134 
Q 2881 22 2623 -34 
Q 2366 -91 2075 -91 
Q 1284 -91 818 406 
Q 353 903 353 1747 
Q 353 2603 823 3093 
Q 1294 3584 2113 3584 
Q 2378 3584 2631 3529 
Q 2884 3475 3122 3366 
z
" transform="scale(0.015625)"/>
       <path id="DejaVuSans-74" d="M 1172 4494 
L 1172 3500 
L 2356 3500 
L 2356 3053 
L 1172 3053 
L 1172 1153 
Q 1172 725 1289 603 
Q 1406 481 1766 481 
L 2356 481 
L 2356 0 
L 1766 0 
Q 1100 0 847 248 
Q 594 497 594 1153 
L 594 3053 
L 172 3053 
L 172 3500 
L 594 3500 
L 594 4494 
L 1172 4494 
z
" transform="scale(0.015625)"/>
       <path id="DejaVuSans-69" d="M 603 3500 
L 1178 3500 
L 1178 0 
L 603 0 
L 603 3500 
z
M 603 4863 
L 1178 4863 
L 1178 4134 
L 603 4134 
L 603 4863 
z
" transform="scale(0.015625)"/>
       <path id="DejaVuSans-6f" d="M 1959 3097 
Q 1497 3097 1228 2736 
Q 959 2375 959 1747 
Q 959 1119 1226 758 
Q 1494 397 1959 397 
Q 2419 397 2687 759 
Q 2956 1122 2956 1747 
Q 2956 2369 2687 2733 
Q 2419 3097 1959 3097 
z
M 1959 3584 
Q 2709 3584 3137 3096 
Q 3566 2609 3566 1747 
Q 3566 888 3137 398 
Q 2709 -91 1959 -91 
Q 1206 -91 779 398 
Q 353 888 353 1747 
Q 353 2609 779 3096 
Q 1206 3584 1959 3584 
z
" transform="scale(0.015625)"/>
       <path id="DejaVuSans-61" d="M 2194 1759 
Q 1497 1759 1228 1600 
Q 959 1441 959 1056 
Q 959 750 1161 570 
Q 1363 391 1709 391 
Q 2188 391 2477 730 
Q 2766 1069 2766 1631 
L 2766 1759 
L 2194 1759 
z
M 3341 1997 
L 3341 0 
L 2766 0 
L 2766 531 
Q 2569 213 2275 61 
Q 1981 -91 1556 -91 
Q 1019 -91 701 211 
Q 384 513 384 1019 
Q 384 1609 779 1909 
Q 1175 2209 1959 2209 
L 2766 2209 
L 2766 2266 
Q 2766 2663 2505 2880 
Q 2244 3097 1772 3097 
Q 1472 3097 1187 3025 
Q 903 2953 641 2809 
L 641 3341 
Q 956 3463 1253 3523 
Q 1550 3584 1831 3584 
Q 2591 3584 2966 3190 
Q 3341 2797 3341 1997 
z
" transform="scale(0.015625)"/>
       <path id="DejaVuSans-6c" d="M 603 4863 
L 1178 4863 
L 1178 0 
L 603 0 
L 603 4863 
z
" transform="scale(0.015625)"/>
       <path id="DejaVuSans-20" transform="scale(0.015625)"/>
       <path id="DejaVuSans-2f" d="M 1625 4666 
L 2156 4666 
L 531 -594 
L 0 -594 
L 1625 4666 
z
" transform="scale(0.015625)"/>
       <path id="DejaVuSans-62" d="M 3116 1747 
Q 3116 2381 2855 2742 
Q 2594 3103 2138 3103 
Q 1681 3103 1420 2742 
Q 1159 2381 1159 1747 
Q 1159 1113 1420 752 
Q 1681 391 2138 391 
Q 2594 391 2855 752 
Q 3116 1113 3116 1747 
z
M 1159 2969 
Q 1341 3281 1617 3432 
Q 1894 3584 2278 3584 
Q 2916 3584 3314 3078 
Q 3713 2572 3713 1747 
Q 3713 922 3314 415 
Q 2916 -91 2278 -91 
Q 1894 -91 1617 61 
Q 1341 213 1159 525 
L 1159 0 
L 581 0 
L 581 4863 
L 1159 4863 
L 1159 2969 
z
" transform="scale(0.015625)"/>
       <path id="DejaVuSans-67" d="M 2906 1791 
Q 2906 2416 2648 2759 
Q 2391 3103 1925 3103 
Q 1463 3103 1205 2759 
Q 947 2416 947 1791 
Q 947 1169 1205 825 
Q 1463 481 1925 481 
Q 2391 481 2648 825 
Q 2906 1169 2906 1791 
z
M 3481 434 
Q 3481 -459 3084 -895 
Q 2688 -1331 1869 -1331 
Q 1566 -1331 1297 -1286 
Q 1028 -1241 775 -1147 
L 775 -588 
Q 1028 -725 1275 -790 
Q 1522 -856 1778 -856 
Q 2344 -856 2625 -561 
Q 2906 -266 2906 331 
L 2906 616 
Q 2728 306 2450 153 
Q 2172 0 1784 0 
Q 1141 0 747 490 
Q 353 981 353 1791 
Q 353 2603 747 3093 
Q 1141 3584 1784 3584 
Q 2172 3584 2450 3431 
Q 2728 3278 2906 2969 
L 2906 3500 
L 3481 3500 
L 3481 434 
z
" transform="scale(0.015625)"/>
       <path id="DejaVuSans-65" d="M 3597 1894 
L 3597 1613 
L 953 1613 
Q 991 1019 1311 708 
Q 1631 397 2203 397 
Q 2534 397 2845 478 
Q 3156 559 3463 722 
L 3463 178 
Q 3153 47 2828 -22 
Q 2503 -91 2169 -91 
Q 1331 -91 842 396 
Q 353 884 353 1716 
Q 353 2575 817 3079 
Q 1281 3584 2069 3584 
Q 2775 3584 3186 3129 
Q 3597 2675 3597 1894 
z
M 3022 2063 
Q 3016 2534 2758 2815 
Q 2500 3097 2075 3097 
Q 1594 3097 1305 2825 
Q 1016 2553 972 2059 
L 3022 2063 
z
" transform="scale(0.015625)"/>
       <path id="DejaVuSans-71" d="M 947 1747 
Q 947 1113 1208 752 
Q 1469 391 1925 391 
Q 2381 391 2643 752 
Q 2906 1113 2906 1747 
Q 2906 2381 2643 2742 
Q 2381 3103 1925 3103 
Q 1469 3103 1208 2742 
Q 947 2381 947 1747 
z
M 2906 525 
Q 2725 213 2448 61 
Q 2172 -91 1784 -91 
Q 1150 -91 751 415 
Q 353 922 353 1747 
Q 353 2572 751 3078 
Q 1150 3584 1784 3584 
Q 2172 3584 2448 3432 
Q 2725 3281 2906 2969 
L 2906 3500 
L 3481 3500 
L 3481 -1331 
L 2906 -1331 
L 2906 525 
z
" transform="scale(0.015625)"/>
       <path id="DejaVuSans-76" d="M 191 3500 
L 800 3500 
L 1894 563 
L 2988 3500 
L 3597 3500 
L 2284 0 
L 1503 0 
L 191 3500 
z
" transform="scale(0.015625)"/>
      </defs>
      <use xlink:href="#DejaVuSans-66"/>
      <use xlink:href="#DejaVuSans-75" transform="translate(35.205078 0)"/>
      <use xlink:href="#DejaVuSans-6e" transform="translate(98.583984 0)"/>
      <use xlink:href="#DejaVuSans-63" transform="translate(161.962891 0)"/>
      <use xlink:href="#DejaVuSans-74" transform="translate(216.943359 0)"/>
      <use xlink:href="#DejaVuSans-69" transform="translate(256.152344 0)"/>
      <use xlink:href="#DejaVuSans-6f" transform="translate(283.935547 0)"/>
      <use xlink:href="#DejaVuSans-6e" transform="translate(345.117188 0)"/>
      <use xlink:href="#DejaVuSans-61" transform="translate(408.496094 0)"/>
      <use xlink:href="#DejaVuSans-6c" transform="translate(469.775391 0)"/>
      <use xlink:href="#DejaVuSans-20" transform="translate(497.558594 0)"/>
      <use xlink:href="#DejaVuSans-2f" transform="translate(529.345703 0)"/>
      <use xlink:href="#DejaVuSans-20" transform="translate(563.037109 0)"/>
      <use xlink:href="#DejaVuSans-62" transform="translate(594.824219 0)"/>
      <use xlink:href="#DejaVuSans-69" transform="translate(658.300781 0)"/>
      <use xlink:href="#DejaVuSans-6f" transform="translate(686.083984 0)"/>
      <use xlink:href="#DejaVuSans-6c" transform="translate(747.265625 0)"/>
      <use xlink:href="#DejaVuSans-6f" transform="translate(775.048828 0)"/>
      <use xlink:href="#DejaVuSans-67" transform="translate(836.230469 0)"/>
      <use xlink:href="#DejaVuSans-69" transform="translate(899.707031 0)"/>
      <use xlink:href="#DejaVuSans-63" transform="translate(927.490234 0)"/>
      <use xlink:href="#DejaVuSans-61" transform="translate(982.470703 0)"/>
      <use xlink:href="#DejaVuSans-6c" transform="translate(1043.75 0)"/>
      <use xlink:href="#DejaVuSans-20" transform="translate(1071.533203 0)"/>
      <use xlink:href="#DejaVuSans-61" transform="translate(1103.320312 0)"/>
      <use xlink:href="#DejaVuSans-67" transform="translate(1164.599609 0)"/>
      <use xlink:href="#DejaVuSans-65" transform="translate(1228.076172 0)"/>
      <use xlink:href="#DejaVuSans-20" transform="translate(1289.599609 0)"/>
      <use xlink:href="#DejaVuSans-65" transform="translate(1321.386719 0)"/>
      <use xlink:href="#DejaVuSans-71" transform="translate(1382.910156 0)"/>
      <use xlink:href="#DejaVuSans-75" transform="translate(1446.386719 0)"/>
      <use xlink:href="#DejaVuSans-69" transform="translate(1509.765625 0)"/>
      <use xlink:href="#DejaVuSans-76" transform="translate(1537.548828 0)"/>
      <use xlink:href="#DejaVuSans-61" transform="translate(1596.728516 0)"/>
      <use xlink:href="#DejaVuSans-6c" transform="translate(1658.007812 0)"/>
      <use xlink:href="#DejaVuSans-65" transform="translate(1685.791016 0)"/>
      <use xlink:href="#DejaVuSans-6e" transform="translate(1747.314453 0)"/>
      <use xlink:href="#DejaVuSans-74" transform="translate(1810.693359 0)"/>
     </g>
    </g>
   </g>
   <g id="matplotlib.axis_2">
    <g id="ytick_1">
     <g id="line2d_13">
      <path d="M 60.32 318.566141 
L 601.2 318.566141 
" clip-path="url(#p34bb8a39d9)" style="fill: none; stroke: #b0b0b0; stroke-opacity: 0.25; stroke-width: 0.8; stroke-linecap: square"/>
     </g>
     <g id="line2d_14">
      <defs>
       <path id="me7917d7cf0" d="M 0 0 
L -3.5 0 
" style="stroke: #000000; stroke-width: 0.8"/>
      </defs>
      <g>
       <use xlink:href="#me7917d7cf0" x="60.32" y="318.566141" style="stroke: #000000; stroke-width: 0.8"/>
      </g>
     </g>
     <g id="text_8">
      <!-- 0.000 -->
      <g transform="translate(24.691875 322.365359) scale(0.1 -0.1)">
       <defs>
        <path id="DejaVuSans-2e" d="M 684 794 
L 1344 794 
L 1344 0 
L 684 0 
L 684 794 
z
" transform="scale(0.015625)"/>
       </defs>
       <use xlink:href="#DejaVuSans-30"/>
       <use xlink:href="#DejaVuSans-2e" transform="translate(63.623047 0)"/>
       <use xlink:href="#DejaVuSans-30" transform="translate(95.410156 0)"/>
       <use xlink:href="#DejaVuSans-30" transform="translate(159.033203 0)"/>
       <use xlink:href="#DejaVuSans-30" transform="translate(222.65625 0)"/>
      </g>
     </g>
    </g>
    <g id="ytick_2">
     <g id="line2d_15">
      <path d="M 60.32 270.07304 
L 601.2 270.07304 
" clip-path="url(#p34bb8a39d9)" style="fill: none; stroke: #b0b0b0; stroke-opacity: 0.25; stroke-width: 0.8; stroke-linecap: square"/>
     </g>
     <g id="line2d_16">
      <g>
       <use xlink:href="#me7917d7cf0" x="60.32" y="270.07304" style="stroke: #000000; stroke-width: 0.8"/>
      </g>
     </g>
     <g id="text_9">
      <!-- 0.005 -->
      <g transform="translate(24.691875 273.872259) scale(0.1 -0.1)">
       <defs>
        <path id="DejaVuSans-35" d="M 691 4666 
L 3169 4666 
L 3169 4134 
L 1269 4134 
L 1269 2991 
Q 1406 3038 1543 3061 
Q 1681 3084 1819 3084 
Q 2600 3084 3056 2656 
Q 3513 2228 3513 1497 
Q 3513 744 3044 326 
Q 2575 -91 1722 -91 
Q 1428 -91 1123 -41 
Q 819 9 494 109 
L 494 744 
Q 775 591 1075 516 
Q 1375 441 1709 441 
Q 2250 441 2565 725 
Q 2881 1009 2881 1497 
Q 2881 1984 2565 2268 
Q 2250 2553 1709 2553 
Q 1456 2553 1204 2497 
Q 953 2441 691 2322 
L 691 4666 
z
" transform="scale(0.015625)"/>
       </defs>
       <use xlink:href="#DejaVuSans-30"/>
       <use xlink:href="#DejaVuSans-2e" transform="translate(63.623047 0)"/>
       <use xlink:href="#DejaVuSans-30" transform="translate(95.410156 0)"/>
       <use xlink:href="#DejaVuSans-30" transform="translate(159.033203 0)"/>
       <use xlink:href="#DejaVuSans-35" transform="translate(222.65625 0)"/>
      </g>
     </g>
    </g>
    <g id="ytick_3">
     <g id="line2d_17">
      <path d="M 60.32 221.579939 
L 601.2 221.579939 
" clip-path="url(#p34bb8a39d9)" style="fill: none; stroke: #b0b0b0; stroke-opacity: 0.25; stroke-width: 0.8; stroke-linecap: square"/>
     </g>
     <g id="line2d_18">
      <g>
       <use xlink:href="#me7917d7cf0" x="60.32" y="221.579939" style="stroke: #000000; stroke-width: 0.8"/>
      </g>
     </g>
     <g id="text_10">
      <!-- 0.010 -->
      <g transform="translate(24.691875 225.379158) scale(0.1 -0.1)">
       <use xlink:href="#DejaVuSans-30"/>
       <use xlink:href="#DejaVuSans-2e" transform="translate(63.623047 0)"/>
       <use xlink:href="#DejaVuSans-30" transform="translate(95.410156 0)"/>
       <use xlink:href="#DejaVuSans-31" transform="translate(159.033203 0)"/>
       <use xlink:href="#DejaVuSans-30" transform="translate(222.65625 0)"/>
      </g>
     </g>
    </g>
    <g id="ytick_4">
     <g id="line2d_19">
      <path d="M 60.32 173.086838 
L 601.2 173.086838 
" clip-path="url(#p34bb8a39d9)" style="fill: none; stroke: #b0b0b0; stroke-opacity: 0.25; stroke-width: 0.8; stroke-linecap: square"/>
     </g>
     <g id="line2d_20">
      <g>
       <use xlink:href="#me7917d7cf0" x="60.32" y="173.086838" style="stroke: #000000; stroke-width: 0.8"/>
      </g>
     </g>
     <g id="text_11">
      <!-- 0.015 -->
      <g transform="translate(24.691875 176.886057) scale(0.1 -0.1)">
       <use xlink:href="#DejaVuSans-30"/>
       <use xlink:href="#DejaVuSans-2e" transform="translate(63.623047 0)"/>
       <use xlink:href="#DejaVuSans-30" transform="translate(95.410156 0)"/>
       <use xlink:href="#DejaVuSans-31" transform="translate(159.033203 0)"/>
       <use xlink:href="#DejaVuSans-35" transform="translate(222.65625 0)"/>
      </g>
     </g>
    </g>
    <g id="ytick_5">
     <g id="line2d_21">
      <path d="M 60.32 124.593738 
L 601.2 124.593738 
" clip-path="url(#p34bb8a39d9)" style="fill: none; stroke: #b0b0b0; stroke-opacity: 0.25; stroke-width: 0.8; stroke-linecap: square"/>
     </g>
     <g id="line2d_22">
      <g>
       <use xlink:href="#me7917d7cf0" x="60.32" y="124.593738" style="stroke: #000000; stroke-width: 0.8"/>
      </g>
     </g>
     <g id="text_12">
      <!-- 0.020 -->
      <g transform="translate(24.691875 128.392956) scale(0.1 -0.1)">
       <use xlink:href="#DejaVuSans-30"/>
       <use xlink:href="#DejaVuSans-2e" transform="translate(63.623047 0)"/>
       <use xlink:href="#DejaVuSans-30" transform="translate(95.410156 0)"/>
       <use xlink:href="#DejaVuSans-32" transform="translate(159.033203 0)"/>
       <use xlink:href="#DejaVuSans-30" transform="translate(222.65625 0)"/>
      </g>
     </g>
    </g>
    <g id="ytick_6">
     <g id="line2d_23">
      <path d="M 60.32 76.100637 
L 601.2 76.100637 
" clip-path="url(#p34bb8a39d9)" style="fill: none; stroke: #b0b0b0; stroke-opacity: 0.25; stroke-width: 0.8; stroke-linecap: square"/>
     </g>
     <g id="line2d_24">
      <g>
       <use xlink:href="#me7917d7cf0" x="60.32" y="76.100637" style="stroke: #000000; stroke-width: 0.8"/>
      </g>
     </g>
     <g id="text_13">
      <!-- 0.025 -->
      <g transform="translate(24.691875 79.899856) scale(0.1 -0.1)">
       <use xlink:href="#DejaVuSans-30"/>
       <use xlink:href="#DejaVuSans-2e" transform="translate(63.623047 0)"/>
       <use xlink:href="#DejaVuSans-30" transform="translate(95.410156 0)"/>
       <use xlink:href="#DejaVuSans-32" transform="translate(159.033203 0)"/>
       <use xlink:href="#DejaVuSans-35" transform="translate(222.65625 0)"/>
      </g>
     </g>
    </g>
    <g id="ytick_7">
     <g id="line2d_25">
      <path d="M 60.32 27.607536 
L 601.2 27.607536 
" clip-path="url(#p34bb8a39d9)" style="fill: none; stroke: #b0b0b0; stroke-opacity: 0.25; stroke-width: 0.8; stroke-linecap: square"/>
     </g>
     <g id="line2d_26">
      <g>
       <use xlink:href="#me7917d7cf0" x="60.32" y="27.607536" style="stroke: #000000; stroke-width: 0.8"/>
      </g>
     </g>
     <g id="text_14">
      <!-- 0.030 -->
      <g transform="translate(24.691875 31.406755) scale(0.1 -0.1)">
       <defs>
        <path id="DejaVuSans-33" d="M 2597 2516 
Q 3050 2419 3304 2112 
Q 3559 1806 3559 1356 
Q 3559 666 3084 287 
Q 2609 -91 1734 -91 
Q 1441 -91 1130 -33 
Q 819 25 488 141 
L 488 750 
Q 750 597 1062 519 
Q 1375 441 1716 441 
Q 2309 441 2620 675 
Q 2931 909 2931 1356 
Q 2931 1769 2642 2001 
Q 2353 2234 1838 2234 
L 1294 2234 
L 1294 2753 
L 1863 2753 
Q 2328 2753 2575 2939 
Q 2822 3125 2822 3475 
Q 2822 3834 2567 4026 
Q 2313 4219 1838 4219 
Q 1578 4219 1281 4162 
Q 984 4106 628 3988 
L 628 4550 
Q 988 4650 1302 4700 
Q 1616 4750 1894 4750 
Q 2613 4750 3031 4423 
Q 3450 4097 3450 3541 
Q 3450 3153 3228 2886 
Q 3006 2619 2597 2516 
z
" transform="scale(0.015625)"/>
       </defs>
       <use xlink:href="#DejaVuSans-30"/>
       <use xlink:href="#DejaVuSans-2e" transform="translate(63.623047 0)"/>
       <use xlink:href="#DejaVuSans-30" transform="translate(95.410156 0)"/>
       <use xlink:href="#DejaVuSans-33" transform="translate(159.033203 0)"/>
       <use xlink:href="#DejaVuSans-30" transform="translate(222.65625 0)"/>
      </g>
     </g>
    </g>
    <g id="text_15">
     <!-- relative proportion -->
     <g transform="translate(18.612188 226.149844) rotate(-90) scale(0.1 -0.1)">
      <defs>
       <path id="DejaVuSans-72" d="M 2631 2963 
Q 2534 3019 2420 3045 
Q 2306 3072 2169 3072 
Q 1681 3072 1420 2755 
Q 1159 2438 1159 1844 
L 1159 0 
L 581 0 
L 581 3500 
L 1159 3500 
L 1159 2956 
Q 1341 3275 1631 3429 
Q 1922 3584 2338 3584 
Q 2397 3584 2469 3576 
Q 2541 3569 2628 3553 
L 2631 2963 
z
" transform="scale(0.015625)"/>
       <path id="DejaVuSans-70" d="M 1159 525 
L 1159 -1331 
L 581 -1331 
L 581 3500 
L 1159 3500 
L 1159 2969 
Q 1341 3281 1617 3432 
Q 1894 3584 2278 3584 
Q 2916 3584 3314 3078 
Q 3713 2572 3713 1747 
Q 3713 922 3314 415 
Q 2916 -91 2278 -91 
Q 1894 -91 1617 61 
Q 1341 213 1159 525 
z
M 3116 1747 
Q 3116 2381 2855 2742 
Q 2594 3103 2138 3103 
Q 1681 3103 1420 2742 
Q 1159 2381 1159 1747 
Q 1159 1113 1420 752 
Q 1681 391 2138 391 
Q 2594 391 2855 752 
Q 3116 1113 3116 1747 
z
" transform="scale(0.015625)"/>
      </defs>
      <use xlink:href="#DejaVuSans-72"/>
      <use xlink:href="#DejaVuSans-65" transform="translate(38.863281 0)"/>
      <use xlink:href="#DejaVuSans-6c" transform="translate(100.386719 0)"/>
      <use xlink:href="#DejaVuSans-61" transform="translate(128.169922 0)"/>
      <use xlink:href="#DejaVuSans-74" transform="translate(189.449219 0)"/>
      <use xlink:href="#DejaVuSans-69" transform="translate(228.658203 0)"/>
      <use xlink:href="#DejaVuSans-76" transform="translate(256.441406 0)"/>
      <use xlink:href="#DejaVuSans-65" transform="translate(315.621094 0)"/>
      <use xlink:href="#DejaVuSans-20" transform="translate(377.144531 0)"/>
      <use xlink:href="#DejaVuSans-70" transform="translate(408.931641 0)"/>
      <use xlink:href="#DejaVuSans-72" transform="translate(472.408203 0)"/>
      <use xlink:href="#DejaVuSans-6f" transform="translate(511.271484 0)"/>
      <use xlink:href="#DejaVuSans-70" transform="translate(572.453125 0)"/>
      <use xlink:href="#DejaVuSans-6f" transform="translate(635.929688 0)"/>
      <use xlink:href="#DejaVuSans-72" transform="translate(697.111328 0)"/>
      <use xlink:href="#DejaVuSans-74" transform="translate(738.224609 0)"/>
      <use xlink:href="#DejaVuSans-69" transform="translate(777.433594 0)"/>
      <use xlink:href="#DejaVuSans-6f" transform="translate(805.216797 0)"/>
      <use xlink:href="#DejaVuSans-6e" transform="translate(866.398438 0)"/>
     </g>
    </g>
   </g>
   <g id="line2d_27">
    <path d="M 84.905455 318.550909 
L 124.321013 318.402914 
L 143.043403 318.117205 
L 155.85346 317.706509 
L 165.707349 317.182253 
L 174.57585 316.478759 
L 181.473573 315.725261 
L 188.371295 314.738393 
L 194.283629 313.66311 
L 199.210574 312.573495 
L 204.137519 311.279155 
L 209.064463 309.750527 
L 213.991408 307.955722 
L 217.932964 306.305456 
L 221.87452 304.444892 
L 225.816076 302.355219 
L 229.757632 300.017225 
L 233.699187 297.411505 
L 237.640743 294.518705 
L 241.582299 291.319799 
L 245.523855 287.7964 
L 249.465411 283.931102 
L 253.406967 279.707848 
L 257.348522 275.11232 
L 261.290078 270.132353 
L 265.231634 264.758358 
L 269.17319 258.983744 
L 273.114746 252.805347 
L 277.056302 246.223838 
L 280.997858 239.24411 
L 284.939413 231.875639 
L 289.866358 222.140746 
L 294.793303 211.860677 
L 299.720248 201.08796 
L 305.632582 187.60414 
L 312.530304 171.284315 
L 325.340361 140.204161 
L 334.208861 119.012293 
L 340.121195 105.477205 
L 345.04814 94.763907 
L 348.989696 86.663624 
L 352.931252 79.056657 
L 356.872807 72.009803 
L 359.828974 67.130465 
L 362.785141 62.626979 
L 365.741308 58.52282 
L 368.697475 54.839636 
L 371.653642 51.597057 
L 374.609809 48.812523 
L 376.580587 47.218189 
L 378.551365 45.838052 
L 380.522142 44.675469 
L 382.49292 43.733275 
L 384.463698 43.013777 
L 386.434476 42.518736 
L 388.405254 42.249368 
L 390.376032 42.206336 
L 392.34681 42.389744 
L 394.317588 42.799142 
L 396.288366 43.433525 
L 398.259144 44.291337 
L 400.229922 45.370477 
L 402.2007 46.668311 
L 404.171478 48.181678 
L 406.142255 49.906906 
L 409.098422 52.882732 
L 412.054589 56.309671 
L 415.010756 60.169358 
L 417.966923 64.441305 
L 420.92309 69.103087 
L 423.879257 74.130532 
L 427.820813 81.357972 
L 431.762368 89.125148 
L 435.703924 97.364373 
L 440.630869 108.220578 
L 446.543203 121.881477 
L 454.426314 140.777747 
L 472.163316 183.551935 
L 478.075649 197.190627 
L 483.987983 210.253496 
L 488.914928 220.612163 
L 493.841873 230.432782 
L 498.768818 239.673974 
L 502.710373 246.630028 
L 506.651929 253.187445 
L 510.593485 259.341594 
L 514.535041 265.092045 
L 518.476597 270.442181 
L 522.418153 275.398783 
L 526.359709 279.971608 
L 530.301264 284.172962 
L 534.24282 288.017278 
L 538.184376 291.520705 
L 542.125932 294.700718 
L 546.067488 297.575752 
L 550.009044 300.164861 
L 553.950599 302.487409 
L 557.892155 304.562797 
L 561.833711 306.410218 
L 565.775267 308.048452 
L 570.702212 309.829719 
L 575.629156 311.346391 
L 576.614545 311.62081 
L 576.614545 311.62081 
" clip-path="url(#p34bb8a39d9)" style="fill: none; stroke: #1f77b4; stroke-width: 1.5; stroke-linecap: square"/>
   </g>
   <g id="line2d_28">
    <path d="M 84.905455 318.533099 
L 105.598623 318.354467 
L 116.437901 318.052092 
L 124.321013 317.621817 
L 130.233347 317.106386 
L 135.160291 316.495709 
L 140.087236 315.665328 
L 144.028792 314.80037 
L 147.970348 313.715709 
L 151.911904 312.367455 
L 154.868071 311.153838 
L 157.824238 309.74163 
L 160.780404 308.106604 
L 163.736571 306.223182 
L 166.692738 304.064679 
L 169.648905 301.603602 
L 172.605072 298.812027 
L 175.561239 295.662051 
L 178.517406 292.12631 
L 181.473573 288.178567 
L 184.429739 283.794368 
L 187.385906 278.951743 
L 190.342073 273.631949 
L 193.29824 267.820245 
L 196.254407 261.506665 
L 199.210574 254.686779 
L 202.166741 247.362414 
L 205.122908 239.542318 
L 209.064463 228.373577 
L 213.006019 216.413891 
L 216.947575 203.750074 
L 221.87452 187.105157 
L 228.772243 162.792728 
L 239.611521 124.358538 
L 244.538466 107.778739 
L 248.480022 95.313163 
L 251.436189 86.563054 
L 254.392356 78.414982 
L 257.348522 70.941252 
L 260.304689 64.205747 
L 262.275467 60.152705 
L 264.246245 56.465439 
L 266.217023 53.15507 
L 268.187801 50.230342 
L 270.158579 47.697555 
L 272.129357 45.560509 
L 274.100135 43.820486 
L 276.070913 42.476253 
L 278.041691 41.524096 
L 280.012469 40.95787 
L 281.983246 40.769091 
L 283.954024 40.947037 
L 285.924802 41.478883 
L 287.89558 42.349847 
L 289.866358 43.543369 
L 291.837136 45.041289 
L 293.807914 46.824058 
L 295.778692 48.870942 
L 297.74947 51.160253 
L 300.705637 54.999579 
L 303.661804 59.256259 
L 307.603359 65.445747 
L 312.530304 73.753079 
L 330.267306 104.377095 
L 335.19425 112.133885 
L 339.135806 117.945371 
L 343.077362 123.391709 
L 347.018918 128.482732 
L 350.960474 133.247244 
L 355.887418 138.812053 
L 360.814363 144.046368 
L 368.697475 152.048536 
L 378.551365 162.097514 
L 384.463698 168.479417 
L 389.390643 174.116429 
L 394.317588 180.088212 
L 399.244533 186.408862 
L 404.171478 193.06721 
L 410.083811 201.454289 
L 416.981534 211.6659 
L 428.806201 229.685523 
L 437.674702 243.052026 
L 444.572425 253.031074 
L 450.484759 261.1392 
L 455.411703 267.509906 
L 460.338648 273.485013 
L 464.280204 277.959842 
L 468.22176 282.152091 
L 472.163316 286.056055 
L 476.104872 289.67011 
L 480.046427 292.996353 
L 483.987983 296.04018 
L 487.929539 298.809843 
L 491.871095 301.315991 
L 495.812651 303.571208 
L 499.754207 305.58957 
L 503.695762 307.386221 
L 507.637318 308.976982 
L 512.564263 310.700511 
L 517.491208 312.159075 
L 522.418153 313.383424 
L 527.345097 314.402934 
L 533.257431 315.394559 
L 539.169765 316.174126 
L 546.067488 316.866637 
L 553.950599 317.435285 
L 563.804489 317.903371 
L 575.629156 318.22969 
L 576.614545 318.248748 
L 576.614545 318.248748 
" clip-path="url(#p34bb8a39d9)" style="fill: none; stroke: #ff7f0e; stroke-width: 1.5; stroke-linecap: square"/>
   </g>
   <g id="line2d_29">
    <path d="M 84.905455 307.707947 
L 87.861621 305.739706 
L 90.817788 303.499474 
L 93.773955 300.966947 
L 96.730122 298.123617 
L 99.686289 294.953512 
L 102.642456 291.443965 
L 105.598623 287.586413 
L 108.55479 283.37718 
L 111.510956 278.818223 
L 114.467123 273.917816 
L 118.408679 266.880051 
L 122.350235 259.319384 
L 127.27718 249.25793 
L 133.189514 236.571716 
L 144.028792 213.103007 
L 147.970348 205.040565 
L 151.911904 197.501144 
L 154.868071 192.288432 
L 157.824238 187.525137 
L 160.780404 183.267553 
L 162.751182 180.734112 
L 164.72196 178.458647 
L 166.692738 176.450796 
L 168.663516 174.71794 
L 170.634294 173.26509 
L 172.605072 172.094808 
L 174.57585 171.207164 
L 176.546628 170.599718 
L 178.517406 170.267536 
L 180.488184 170.203247 
L 182.458962 170.397119 
L 184.429739 170.837178 
L 186.400517 171.509343 
L 188.371295 172.397603 
L 190.342073 173.484205 
L 193.29824 175.443466 
L 196.254407 177.735039 
L 200.195963 181.177445 
L 205.122908 185.84271 
L 213.006019 193.309179 
L 216.947575 196.690546 
L 219.903742 198.956395 
L 222.859909 200.937537 
L 225.816076 202.595992 
L 228.772243 203.903309 
L 230.743021 204.57009 
L 232.713799 205.069033 
L 234.684576 205.398752 
L 236.655354 205.55963 
L 238.626132 205.55373 
L 240.59691 205.384702 
L 242.567688 205.057667 
L 245.523855 204.285342 
L 248.480022 203.199168 
L 251.436189 201.831057 
L 254.392356 200.216909 
L 258.333911 197.749297 
L 262.275467 195.009842 
L 268.187801 190.604267 
L 278.041691 183.232175 
L 282.968635 179.853727 
L 286.910191 177.40709 
L 290.851747 175.234129 
L 294.793303 173.363238 
L 298.734859 171.809925 
L 301.691026 170.855835 
L 304.647193 170.079886 
L 308.588748 169.312032 
L 312.530304 168.829272 
L 316.47186 168.603698 
L 320.413416 168.602406 
L 325.340361 168.861225 
L 330.267306 169.341757 
L 337.165028 170.255175 
L 371.653642 175.430656 
L 378.551365 176.637278 
L 383.478309 177.686334 
L 388.405254 178.961428 
L 392.34681 180.185887 
L 396.288366 181.62454 
L 400.229922 183.304432 
L 404.171478 185.248724 
L 408.113033 187.475826 
L 412.054589 189.998711 
L 415.996145 192.824434 
L 419.937701 195.953851 
L 423.879257 199.381555 
L 427.820813 203.096004 
L 431.762368 207.079847 
L 436.689313 212.403473 
L 441.616258 218.05781 
L 447.528592 225.189494 
L 455.411703 235.084205 
L 472.163316 256.268942 
L 479.061038 264.556086 
L 484.973372 271.275304 
L 489.900317 276.546152 
L 494.827262 281.483227 
L 499.754207 286.063504 
L 503.695762 289.461186 
L 507.637318 292.618273 
L 511.578874 295.534801 
L 515.52043 298.213708 
L 519.461986 300.660478 
L 523.403542 302.88278 
L 527.345097 304.890094 
L 531.286653 306.693343 
L 536.213598 308.678811 
L 541.140543 310.389281 
L 546.067488 311.850711 
L 550.994433 313.089184 
L 556.906766 314.316938 
L 562.8191 315.302361 
L 569.716823 316.197328 
L 576.614545 316.870203 
L 576.614545 316.870203 
" clip-path="url(#p34bb8a39d9)" style="fill: none; stroke: #2ca02c; stroke-width: 1.5; stroke-linecap: square"/>
   </g>
   <g id="patch_3">
    <path d="M 60.32 332.44 
L 60.32 26.88 
" style="fill: none; stroke: #000000; stroke-width: 0.8; stroke-linejoin: miter; stroke-linecap: square"/>
   </g>
   <g id="patch_4">
    <path d="M 601.2 332.44 
L 601.2 26.88 
" style="fill: none; stroke: #000000; stroke-width: 0.8; stroke-linejoin: miter; stroke-linecap: square"/>
   </g>
   <g id="patch_5">
    <path d="M 60.32 332.44 
L 601.2 332.44 
" style="fill: none; stroke: #000000; stroke-width: 0.8; stroke-linejoin: miter; stroke-linecap: square"/>
   </g>
   <g id="patch_6">
    <path d="M 60.32 26.88 
L 601.2 26.88 
" style="fill: none; stroke: #000000; stroke-width: 0.8; stroke-linejoin: miter; stroke-linecap: square"/>
   </g>
   <g id="text_16">
    <!-- Illustrative—not measured—distributions of subsystem biological ages -->
    <g transform="translate(119.2 20.88) scale(0.12 -0.12)">
     <defs>
      <path id="DejaVuSans-49" d="M 628 4666 
L 1259 4666 
L 1259 0 
L 628 0 
L 628 4666 
z
" transform="scale(0.015625)"/>
      <path id="DejaVuSans-73" d="M 2834 3397 
L 2834 2853 
Q 2591 2978 2328 3040 
Q 2066 3103 1784 3103 
Q 1356 3103 1142 2972 
Q 928 2841 928 2578 
Q 928 2378 1081 2264 
Q 1234 2150 1697 2047 
L 1894 2003 
Q 2506 1872 2764 1633 
Q 3022 1394 3022 966 
Q 3022 478 2636 193 
Q 2250 -91 1575 -91 
Q 1294 -91 989 -36 
Q 684 19 347 128 
L 347 722 
Q 666 556 975 473 
Q 1284 391 1588 391 
Q 1994 391 2212 530 
Q 2431 669 2431 922 
Q 2431 1156 2273 1281 
Q 2116 1406 1581 1522 
L 1381 1569 
Q 847 1681 609 1914 
Q 372 2147 372 2553 
Q 372 3047 722 3315 
Q 1072 3584 1716 3584 
Q 2034 3584 2315 3537 
Q 2597 3491 2834 3397 
z
" transform="scale(0.015625)"/>
      <path id="DejaVuSans-2014" d="M 313 1978 
L 6088 1978 
L 6088 1528 
L 313 1528 
L 313 1978 
z
" transform="scale(0.015625)"/>
      <path id="DejaVuSans-6d" d="M 3328 2828 
Q 3544 3216 3844 3400 
Q 4144 3584 4550 3584 
Q 5097 3584 5394 3201 
Q 5691 2819 5691 2113 
L 5691 0 
L 5113 0 
L 5113 2094 
Q 5113 2597 4934 2840 
Q 4756 3084 4391 3084 
Q 3944 3084 3684 2787 
Q 3425 2491 3425 1978 
L 3425 0 
L 2847 0 
L 2847 2094 
Q 2847 2600 2669 2842 
Q 2491 3084 2119 3084 
Q 1678 3084 1418 2786 
Q 1159 2488 1159 1978 
L 1159 0 
L 581 0 
L 581 3500 
L 1159 3500 
L 1159 2956 
Q 1356 3278 1631 3431 
Q 1906 3584 2284 3584 
Q 2666 3584 2933 3390 
Q 3200 3197 3328 2828 
z
" transform="scale(0.015625)"/>
      <path id="DejaVuSans-64" d="M 2906 2969 
L 2906 4863 
L 3481 4863 
L 3481 0 
L 2906 0 
L 2906 525 
Q 2725 213 2448 61 
Q 2172 -91 1784 -91 
Q 1150 -91 751 415 
Q 353 922 353 1747 
Q 353 2572 751 3078 
Q 1150 3584 1784 3584 
Q 2172 3584 2448 3432 
Q 2725 3281 2906 2969 
z
M 947 1747 
Q 947 1113 1208 752 
Q 1469 391 1925 391 
Q 2381 391 2643 752 
Q 2906 1113 2906 1747 
Q 2906 2381 2643 2742 
Q 2381 3103 1925 3103 
Q 1469 3103 1208 2742 
Q 947 2381 947 1747 
z
" transform="scale(0.015625)"/>
      <path id="DejaVuSans-79" d="M 2059 -325 
Q 1816 -950 1584 -1140 
Q 1353 -1331 966 -1331 
L 506 -1331 
L 506 -850 
L 844 -850 
Q 1081 -850 1212 -737 
Q 1344 -625 1503 -206 
L 1606 56 
L 191 3500 
L 800 3500 
L 1894 763 
L 2988 3500 
L 3597 3500 
L 2059 -325 
z
" transform="scale(0.015625)"/>
     </defs>
     <use xlink:href="#DejaVuSans-49"/>
     <use xlink:href="#DejaVuSans-6c" transform="translate(29.492188 0)"/>
     <use xlink:href="#DejaVuSans-6c" transform="translate(57.275391 0)"/>
     <use xlink:href="#DejaVuSans-75" transform="translate(85.058594 0)"/>
     <use xlink:href="#DejaVuSans-73" transform="translate(148.4375 0)"/>
     <use xlink:href="#DejaVuSans-74" transform="translate(200.537109 0)"/>
     <use xlink:href="#DejaVuSans-72" transform="translate(239.746094 0)"/>
     <use xlink:href="#DejaVuSans-61" transform="translate(280.859375 0)"/>
     <use xlink:href="#DejaVuSans-74" transform="translate(342.138672 0)"/>
     <use xlink:href="#DejaVuSans-69" transform="translate(381.347656 0)"/>
     <use xlink:href="#DejaVuSans-76" transform="translate(409.130859 0)"/>
     <use xlink:href="#DejaVuSans-65" transform="translate(468.310547 0)"/>
     <use xlink:href="#DejaVuSans-2014" transform="translate(529.833984 0)"/>
     <use xlink:href="#DejaVuSans-6e" transform="translate(629.833984 0)"/>
     <use xlink:href="#DejaVuSans-6f" transform="translate(693.212891 0)"/>
     <use xlink:href="#DejaVuSans-74" transform="translate(754.394531 0)"/>
     <use xlink:href="#DejaVuSans-20" transform="translate(793.603516 0)"/>
     <use xlink:href="#DejaVuSans-6d" transform="translate(825.390625 0)"/>
     <use xlink:href="#DejaVuSans-65" transform="translate(922.802734 0)"/>
     <use xlink:href="#DejaVuSans-61" transform="translate(984.326172 0)"/>
     <use xlink:href="#DejaVuSans-73" transform="translate(1045.605469 0)"/>
     <use xlink:href="#DejaVuSans-75" transform="translate(1097.705078 0)"/>
     <use xlink:href="#DejaVuSans-72" transform="translate(1161.083984 0)"/>
     <use xlink:href="#DejaVuSans-65" transform="translate(1199.947266 0)"/>
     <use xlink:href="#DejaVuSans-64" transform="translate(1261.470703 0)"/>
     <use xlink:href="#DejaVuSans-2014" transform="translate(1324.947266 0)"/>
     <use xlink:href="#DejaVuSans-64" transform="translate(1424.947266 0)"/>
     <use xlink:href="#DejaVuSans-69" transform="translate(1488.423828 0)"/>
     <use xlink:href="#DejaVuSans-73" transform="translate(1516.207031 0)"/>
     <use xlink:href="#DejaVuSans-74" transform="translate(1568.306641 0)"/>
     <use xlink:href="#DejaVuSans-72" transform="translate(1607.515625 0)"/>
     <use xlink:href="#DejaVuSans-69" transform="translate(1648.628906 0)"/>
     <use xlink:href="#DejaVuSans-62" transform="translate(1676.412109 0)"/>
     <use xlink:href="#DejaVuSans-75" transform="translate(1739.888672 0)"/>
     <use xlink:href="#DejaVuSans-74" transform="translate(1803.267578 0)"/>
     <use xlink:href="#DejaVuSans-69" transform="translate(1842.476562 0)"/>
     <use xlink:href="#DejaVuSans-6f" transform="translate(1870.259766 0)"/>
     <use xlink:href="#DejaVuSans-6e" transform="translate(1931.441406 0)"/>
     <use xlink:href="#DejaVuSans-73" transform="translate(1994.820312 0)"/>
     <use xlink:href="#DejaVuSans-20" transform="translate(2046.919922 0)"/>
     <use xlink:href="#DejaVuSans-6f" transform="translate(2078.707031 0)"/>
     <use xlink:href="#DejaVuSans-66" transform="translate(2139.888672 0)"/>
     <use xlink:href="#DejaVuSans-20" transform="translate(2175.09375 0)"/>
     <use xlink:href="#DejaVuSans-73" transform="translate(2206.880859 0)"/>
     <use xlink:href="#DejaVuSans-75" transform="translate(2258.980469 0)"/>
     <use xlink:href="#DejaVuSans-62" transform="translate(2322.359375 0)"/>
     <use xlink:href="#DejaVuSans-73" transform="translate(2385.835938 0)"/>
     <use xlink:href="#DejaVuSans-79" transform="translate(2437.935547 0)"/>
     <use xlink:href="#DejaVuSans-73" transform="translate(2497.115234 0)"/>
     <use xlink:href="#DejaVuSans-74" transform="translate(2549.214844 0)"/>
     <use xlink:href="#DejaVuSans-65" transform="translate(2588.423828 0)"/>
     <use xlink:href="#DejaVuSans-6d" transform="translate(2649.947266 0)"/>
     <use xlink:href="#DejaVuSans-20" transform="translate(2747.359375 0)"/>
     <use xlink:href="#DejaVuSans-62" transform="translate(2779.146484 0)"/>
     <use xlink:href="#DejaVuSans-69" transform="translate(2842.623047 0)"/>
     <use xlink:href="#DejaVuSans-6f" transform="translate(2870.40625 0)"/>
     <use xlink:href="#DejaVuSans-6c" transform="translate(2931.587891 0)"/>
     <use xlink:href="#DejaVuSans-6f" transform="translate(2959.371094 0)"/>
     <use xlink:href="#DejaVuSans-67" transform="translate(3020.552734 0)"/>
     <use xlink:href="#DejaVuSans-69" transform="translate(3084.029297 0)"/>
     <use xlink:href="#DejaVuSans-63" transform="translate(3111.8125 0)"/>
     <use xlink:href="#DejaVuSans-61" transform="translate(3166.792969 0)"/>
     <use xlink:href="#DejaVuSans-6c" transform="translate(3228.072266 0)"/>
     <use xlink:href="#DejaVuSans-20" transform="translate(3255.855469 0)"/>
     <use xlink:href="#DejaVuSans-61" transform="translate(3287.642578 0)"/>
     <use xlink:href="#DejaVuSans-67" transform="translate(3348.921875 0)"/>
     <use xlink:href="#DejaVuSans-65" transform="translate(3412.398438 0)"/>
     <use xlink:href="#DejaVuSans-73" transform="translate(3473.921875 0)"/>
    </g>
   </g>
   <g id="legend_1">
    <g id="line2d_30">
     <path d="M 222.940469 288.504063 
L 232.940469 288.504063 
L 242.940469 288.504063 
" style="fill: none; stroke: #1f77b4; stroke-width: 1.5; stroke-linecap: square"/>
    </g>
    <g id="text_17">
     <!-- typical mixed subsystem ages -->
     <g transform="translate(250.940469 292.004063) scale(0.1 -0.1)">
      <defs>
       <path id="DejaVuSans-78" d="M 3513 3500 
L 2247 1797 
L 3578 0 
L 2900 0 
L 1881 1375 
L 863 0 
L 184 0 
L 1544 1831 
L 300 3500 
L 978 3500 
L 1906 2253 
L 2834 3500 
L 3513 3500 
z
" transform="scale(0.015625)"/>
      </defs>
      <use xlink:href="#DejaVuSans-74"/>
      <use xlink:href="#DejaVuSans-79" transform="translate(39.208984 0)"/>
      <use xlink:href="#DejaVuSans-70" transform="translate(98.388672 0)"/>
      <use xlink:href="#DejaVuSans-69" transform="translate(161.865234 0)"/>
      <use xlink:href="#DejaVuSans-63" transform="translate(189.648438 0)"/>
      <use xlink:href="#DejaVuSans-61" transform="translate(244.628906 0)"/>
      <use xlink:href="#DejaVuSans-6c" transform="translate(305.908203 0)"/>
      <use xlink:href="#DejaVuSans-20" transform="translate(333.691406 0)"/>
      <use xlink:href="#DejaVuSans-6d" transform="translate(365.478516 0)"/>
      <use xlink:href="#DejaVuSans-69" transform="translate(462.890625 0)"/>
      <use xlink:href="#DejaVuSans-78" transform="translate(490.673828 0)"/>
      <use xlink:href="#DejaVuSans-65" transform="translate(546.728516 0)"/>
      <use xlink:href="#DejaVuSans-64" transform="translate(608.251953 0)"/>
      <use xlink:href="#DejaVuSans-20" transform="translate(671.728516 0)"/>
      <use xlink:href="#DejaVuSans-73" transform="translate(703.515625 0)"/>
      <use xlink:href="#DejaVuSans-75" transform="translate(755.615234 0)"/>
      <use xlink:href="#DejaVuSans-62" transform="translate(818.994141 0)"/>
      <use xlink:href="#DejaVuSans-73" transform="translate(882.470703 0)"/>
      <use xlink:href="#DejaVuSans-79" transform="translate(934.570312 0)"/>
      <use xlink:href="#DejaVuSans-73" transform="translate(993.75 0)"/>
      <use xlink:href="#DejaVuSans-74" transform="translate(1045.849609 0)"/>
      <use xlink:href="#DejaVuSans-65" transform="translate(1085.058594 0)"/>
      <use xlink:href="#DejaVuSans-6d" transform="translate(1146.582031 0)"/>
      <use xlink:href="#DejaVuSans-20" transform="translate(1243.994141 0)"/>
      <use xlink:href="#DejaVuSans-61" transform="translate(1275.78125 0)"/>
      <use xlink:href="#DejaVuSans-67" transform="translate(1337.060547 0)"/>
      <use xlink:href="#DejaVuSans-65" transform="translate(1400.537109 0)"/>
      <use xlink:href="#DejaVuSans-73" transform="translate(1462.060547 0)"/>
     </g>
    </g>
    <g id="line2d_31">
     <path d="M 222.940469 303.182187 
L 232.940469 303.182187 
L 242.940469 303.182187 
" style="fill: none; stroke: #ff7f0e; stroke-width: 1.5; stroke-linecap: square"/>
    </g>
    <g id="text_18">
     <!-- selected systems optimized -->
     <g transform="translate(250.940469 306.682187) scale(0.1 -0.1)">
      <defs>
       <path id="DejaVuSans-7a" d="M 353 3500 
L 3084 3500 
L 3084 2975 
L 922 459 
L 3084 459 
L 3084 0 
L 275 0 
L 275 525 
L 2438 3041 
L 353 3041 
L 353 3500 
z
" transform="scale(0.015625)"/>
      </defs>
      <use xlink:href="#DejaVuSans-73"/>
      <use xlink:href="#DejaVuSans-65" transform="translate(52.099609 0)"/>
      <use xlink:href="#DejaVuSans-6c" transform="translate(113.623047 0)"/>
      <use xlink:href="#DejaVuSans-65" transform="translate(141.40625 0)"/>
      <use xlink:href="#DejaVuSans-63" transform="translate(202.929688 0)"/>
      <use xlink:href="#DejaVuSans-74" transform="translate(257.910156 0)"/>
      <use xlink:href="#DejaVuSans-65" transform="translate(297.119141 0)"/>
      <use xlink:href="#DejaVuSans-64" transform="translate(358.642578 0)"/>
      <use xlink:href="#DejaVuSans-20" transform="translate(422.119141 0)"/>
      <use xlink:href="#DejaVuSans-73" transform="translate(453.90625 0)"/>
      <use xlink:href="#DejaVuSans-79" transform="translate(506.005859 0)"/>
      <use xlink:href="#DejaVuSans-73" transform="translate(565.185547 0)"/>
      <use xlink:href="#DejaVuSans-74" transform="translate(617.285156 0)"/>
      <use xlink:href="#DejaVuSans-65" transform="translate(656.494141 0)"/>
      <use xlink:href="#DejaVuSans-6d" transform="translate(718.017578 0)"/>
      <use xlink:href="#DejaVuSans-73" transform="translate(815.429688 0)"/>
      <use xlink:href="#DejaVuSans-20" transform="translate(867.529297 0)"/>
      <use xlink:href="#DejaVuSans-6f" transform="translate(899.316406 0)"/>
      <use xlink:href="#DejaVuSans-70" transform="translate(960.498047 0)"/>
      <use xlink:href="#DejaVuSans-74" transform="translate(1023.974609 0)"/>
      <use xlink:href="#DejaVuSans-69" transform="translate(1063.183594 0)"/>
      <use xlink:href="#DejaVuSans-6d" transform="translate(1090.966797 0)"/>
      <use xlink:href="#DejaVuSans-69" transform="translate(1188.378906 0)"/>
      <use xlink:href="#DejaVuSans-7a" transform="translate(1216.162109 0)"/>
      <use xlink:href="#DejaVuSans-65" transform="translate(1268.652344 0)"/>
      <use xlink:href="#DejaVuSans-64" transform="translate(1330.175781 0)"/>
     </g>
    </g>
    <g id="line2d_32">
     <path d="M 222.940469 317.860313 
L 232.940469 317.860313 
L 242.940469 317.860313 
" style="fill: none; stroke: #2ca02c; stroke-width: 1.5; stroke-linecap: square"/>
    </g>
    <g id="text_19">
     <!-- proposed integrated multi-age profile -->
     <g transform="translate(250.940469 321.360313) scale(0.1 -0.1)">
      <defs>
       <path id="DejaVuSans-2d" d="M 313 2009 
L 1997 2009 
L 1997 1497 
L 313 1497 
L 313 2009 
z
" transform="scale(0.015625)"/>
      </defs>
      <use xlink:href="#DejaVuSans-70"/>
      <use xlink:href="#DejaVuSans-72" transform="translate(63.476562 0)"/>
      <use xlink:href="#DejaVuSans-6f" transform="translate(102.339844 0)"/>
      <use xlink:href="#DejaVuSans-70" transform="translate(163.521484 0)"/>
      <use xlink:href="#DejaVuSans-6f" transform="translate(226.998047 0)"/>
      <use xlink:href="#DejaVuSans-73" transform="translate(288.179688 0)"/>
      <use xlink:href="#DejaVuSans-65" transform="translate(340.279297 0)"/>
      <use xlink:href="#DejaVuSans-64" transform="translate(401.802734 0)"/>
      <use xlink:href="#DejaVuSans-20" transform="translate(465.279297 0)"/>
      <use xlink:href="#DejaVuSans-69" transform="translate(497.066406 0)"/>
      <use xlink:href="#DejaVuSans-6e" transform="translate(524.849609 0)"/>
      <use xlink:href="#DejaVuSans-74" transform="translate(588.228516 0)"/>
      <use xlink:href="#DejaVuSans-65" transform="translate(627.4375 0)"/>
      <use xlink:href="#DejaVuSans-67" transform="translate(688.960938 0)"/>
      <use xlink:href="#DejaVuSans-72" transform="translate(752.4375 0)"/>
      <use xlink:href="#DejaVuSans-61" transform="translate(793.550781 0)"/>
      <use xlink:href="#DejaVuSans-74" transform="translate(854.830078 0)"/>
      <use xlink:href="#DejaVuSans-65" transform="translate(894.039062 0)"/>
      <use xlink:href="#DejaVuSans-64" transform="translate(955.5625 0)"/>
      <use xlink:href="#DejaVuSans-20" transform="translate(1019.039062 0)"/>
      <use xlink:href="#DejaVuSans-6d" transform="translate(1050.826172 0)"/>
      <use xlink:href="#DejaVuSans-75" transform="translate(1148.238281 0)"/>
      <use xlink:href="#DejaVuSans-6c" transform="translate(1211.617188 0)"/>
      <use xlink:href="#DejaVuSans-74" transform="translate(1239.400391 0)"/>
      <use xlink:href="#DejaVuSans-69" transform="translate(1278.609375 0)"/>
      <use xlink:href="#DejaVuSans-2d" transform="translate(1306.392578 0)"/>
      <use xlink:href="#DejaVuSans-61" transform="translate(1342.476562 0)"/>
      <use xlink:href="#DejaVuSans-67" transform="translate(1403.755859 0)"/>
      <use xlink:href="#DejaVuSans-65" transform="translate(1467.232422 0)"/>
      <use xlink:href="#DejaVuSans-20" transform="translate(1528.755859 0)"/>
      <use xlink:href="#DejaVuSans-70" transform="translate(1560.542969 0)"/>
      <use xlink:href="#DejaVuSans-72" transform="translate(1624.019531 0)"/>
      <use xlink:href="#DejaVuSans-6f" transform="translate(1662.882812 0)"/>
      <use xlink:href="#DejaVuSans-66" transform="translate(1724.064453 0)"/>
      <use xlink:href="#DejaVuSans-69" transform="translate(1759.269531 0)"/>
      <use xlink:href="#DejaVuSans-6c" transform="translate(1787.052734 0)"/>
      <use xlink:href="#DejaVuSans-65" transform="translate(1814.835938 0)"/>
     </g>
    </g>
   </g>
  </g>
 </g>
 <defs>
  <clipPath id="p34bb8a39d9">
   <rect x="60.32" y="26.88" width="540.88" height="305.56"/>
  </clipPath>
 </defs>
</svg>
