<svg xmlns="http://www.w3.org/2000/svg" width="900" height="620" viewBox="0 0 900 620"><style>text{font-family:Arial,sans-serif;fill:#17212B}.t{font-size:20px;font-weight:bold}.box{fill:#F7F5EF;stroke:#1F667A;stroke-width:2}.up{stroke:#53735B;stroke-width:4;marker-end:url(#g)}.down{stroke:#B66A3C;stroke-width:4;marker-end:url(#c)}</style><defs><marker id="g" markerWidth="10" markerHeight="10" refX="8" refY="3" orient="auto"><path d="M0,0 L0,6 L9,3 z" fill="#53735B"/></marker><marker id="c" markerWidth="10" markerHeight="10" refX="8" refY="3" orient="auto"><path d="M0,0 L0,6 L9,3 z" fill="#B66A3C"/></marker></defs><g text-anchor="middle"><rect x="270" y="30" width="360" height="55" rx="12" class="box"/><text x="450" y="65" class="t">Culture, purpose, identity</text><rect x="270" y="135" width="360" height="55" rx="12" class="box"/><text x="450" y="170" class="t">Behavior and nervous regulation</text><rect x="270" y="240" width="360" height="55" rx="12" class="box"/><text x="450" y="275" class="t">Organs and physiological systems</text><rect x="270" y="345" width="360" height="55" rx="12" class="box"/><text x="450" y="380" class="t">Tissues and cells</text><rect x="270" y="450" width="360" height="55" rx="12" class="box"/><text x="450" y="485" class="t">Molecules and physical processes</text></g><path d="M230 470 V70" class="up"/><text x="150" y="280" transform="rotate(-90 150 280)" class="t">composition and emergence</text><path d="M670 65 V470" class="down"/><text x="755" y="280" transform="rotate(90 755 280)" class="t">constraints and selection</text></svg>