<?xml version="1.0" encoding="utf-8" standalone="no"?>
<!DOCTYPE svg PUBLIC "-//W3C//DTD SVG 1.1//EN"
  "http://www.w3.org/Graphics/SVG/1.1/DTD/svg11.dtd">
<svg xmlns:xlink="http://www.w3.org/1999/xlink" width="612pt" height="403.2pt" viewBox="0 0 612 403.2" xmlns="http://www.w3.org/2000/svg" version="1.1">
 <metadata>
  <rdf:RDF xmlns:dc="http://purl.org/dc/elements/1.1/" xmlns:cc="http://creativecommons.org/ns#" xmlns:rdf="http://www.w3.org/1999/02/22-rdf-syntax-ns#">
   <cc:Work>
    <dc:type rdf:resource="http://purl.org/dc/dcmitype/StillImage"/>
    <dc:date>2026-07-23T20:46:27.871463</dc:date>
    <dc:format>image/svg+xml</dc:format>
    <dc:creator>
     <cc:Agent>
      <dc:title>Matplotlib v3.10.8, https://matplotlib.org/</dc:title>
     </cc:Agent>
    </dc:creator>
   </cc:Work>
  </rdf:RDF>
 </metadata>
 <defs>
  <style type="text/css">*{stroke-linejoin: round; stroke-linecap: butt}</style>
 </defs>
 <g id="figure_1">
  <g id="patch_1">
   <path d="M 0 403.2 
L 612 403.2 
L 612 0 
L 0 0 
z
" style="fill: #ffffff"/>
  </g>
  <g id="axes_1">
   <g id="patch_2">
    <path d="M 75.744 94.86904 
L 536.256 94.86904 
Q 543.3408 94.86904 543.3408 90.5308 
L 543.3408 57.994 
Q 543.3408 53.65576 536.256 53.65576 
L 75.744 53.65576 
Q 68.6592 53.65576 68.6592 57.994 
L 68.6592 90.5308 
Q 68.6592 94.86904 75.744 94.86904 
z
" clip-path="url(#pd7f0b9010c)" style="fill: #ebebeb; stroke: #000000; stroke-linejoin: miter"/>
   </g>
   <g id="patch_3">
    <path d="M 93.456 149.82008 
L 518.544 149.82008 
Q 525.6288 149.82008 525.6288 145.48184 
L 525.6288 112.94504 
Q 525.6288 108.6068 518.544 108.6068 
L 93.456 108.6068 
Q 86.3712 108.6068 86.3712 112.94504 
L 86.3712 145.48184 
Q 86.3712 149.82008 93.456 149.82008 
z
" clip-path="url(#pd7f0b9010c)" style="fill: #d9d9d9; stroke: #000000; stroke-linejoin: miter"/>
   </g>
   <g id="patch_4">
    <path d="M 111.168 204.77112 
L 500.832 204.77112 
Q 507.9168 204.77112 507.9168 200.43288 
L 507.9168 167.89608 
Q 507.9168 163.55784 500.832 163.55784 
L 111.168 163.55784 
Q 104.0832 163.55784 104.0832 167.89608 
L 104.0832 200.43288 
Q 104.0832 204.77112 111.168 204.77112 
z
" clip-path="url(#pd7f0b9010c)" style="fill: #c7c7c7; stroke: #000000; stroke-linejoin: miter"/>
   </g>
   <g id="patch_5">
    <path d="M 128.88 259.72216 
L 483.12 259.72216 
Q 490.2048 259.72216 490.2048 255.38392 
L 490.2048 222.84712 
Q 490.2048 218.50888 483.12 218.50888 
L 128.88 218.50888 
Q 121.7952 218.50888 121.7952 222.84712 
L 121.7952 255.38392 
Q 121.7952 259.72216 128.88 259.72216 
z
" clip-path="url(#pd7f0b9010c)" style="fill: #b5b5b5; stroke: #000000; stroke-linejoin: miter"/>
   </g>
   <g id="patch_6">
    <path d="M 146.592 314.6732 
L 465.408 314.6732 
Q 472.4928 314.6732 472.4928 310.33496 
L 472.4928 277.79816 
Q 472.4928 273.45992 465.408 273.45992 
L 146.592 273.45992 
Q 139.5072 273.45992 139.5072 277.79816 
L 139.5072 310.33496 
Q 139.5072 314.6732 146.592 314.6732 
z
" clip-path="url(#pd7f0b9010c)" style="fill: #a3a3a3; stroke: #000000; stroke-linejoin: miter"/>
   </g>
   <g id="patch_7">
    <path d="M 164.304 369.62424 
L 447.696 369.62424 
Q 454.7808 369.62424 454.7808 365.286 
L 454.7808 332.7492 
Q 454.7808 328.41096 447.696 328.41096 
L 164.304 328.41096 
Q 157.2192 328.41096 157.2192 332.7492 
L 157.2192 365.286 
Q 157.2192 369.62424 164.304 369.62424 
z
" clip-path="url(#pd7f0b9010c)" style="fill: #919191; stroke: #000000; stroke-linejoin: miter"/>
   </g>
   <g id="patch_8">
    <path d="M 229.248 96.144069 
Q 229.248 101.737398 229.248 105.653677 
" clip-path="url(#pd7f0b9010c)" style="fill: none; stroke: #000000; stroke-width: 1.5; stroke-linecap: round"/>
    <path d="M 231.648 100.853677 
L 229.248 105.653677 
L 226.848 100.853677 
z
" clip-path="url(#pd7f0b9010c)" style="fill: #1f77b4; stroke: #000000; stroke-width: 1.5; stroke-linecap: round"/>
   </g>
   <g id="patch_9">
    <path d="M 382.752 107.331771 
Q 382.752 101.738442 382.752 97.822163 
" clip-path="url(#pd7f0b9010c)" style="fill: none; stroke: #000000; stroke-width: 1.5; stroke-linecap: round"/>
    <path d="M 380.352 102.622163 
L 382.752 97.822163 
L 385.152 102.622163 
z
" clip-path="url(#pd7f0b9010c)" style="fill: #1f77b4; stroke: #000000; stroke-width: 1.5; stroke-linecap: round"/>
   </g>
   <g id="patch_10">
    <path d="M 229.248 151.095109 
Q 229.248 156.688438 229.248 160.604717 
" clip-path="url(#pd7f0b9010c)" style="fill: none; stroke: #000000; stroke-width: 1.5; stroke-linecap: round"/>
    <path d="M 231.648 155.804717 
L 229.248 160.604717 
L 226.848 155.804717 
z
" clip-path="url(#pd7f0b9010c)" style="fill: #1f77b4; stroke: #000000; stroke-width: 1.5; stroke-linecap: round"/>
   </g>
   <g id="patch_11">
    <path d="M 382.752 162.282811 
Q 382.752 156.689482 382.752 152.773203 
" clip-path="url(#pd7f0b9010c)" style="fill: none; stroke: #000000; stroke-width: 1.5; stroke-linecap: round"/>
    <path d="M 380.352 157.573203 
L 382.752 152.773203 
L 385.152 157.573203 
z
" clip-path="url(#pd7f0b9010c)" style="fill: #1f77b4; stroke: #000000; stroke-width: 1.5; stroke-linecap: round"/>
   </g>
   <g id="patch_12">
    <path d="M 229.248 206.046149 
Q 229.248 211.639478 229.248 215.555757 
" clip-path="url(#pd7f0b9010c)" style="fill: none; stroke: #000000; stroke-width: 1.5; stroke-linecap: round"/>
    <path d="M 231.648 210.755757 
L 229.248 215.555757 
L 226.848 210.755757 
z
" clip-path="url(#pd7f0b9010c)" style="fill: #1f77b4; stroke: #000000; stroke-width: 1.5; stroke-linecap: round"/>
   </g>
   <g id="patch_13">
    <path d="M 382.752 217.233851 
Q 382.752 211.640522 382.752 207.724243 
" clip-path="url(#pd7f0b9010c)" style="fill: none; stroke: #000000; stroke-width: 1.5; stroke-linecap: round"/>
    <path d="M 380.352 212.524243 
L 382.752 207.724243 
L 385.152 212.524243 
z
" clip-path="url(#pd7f0b9010c)" style="fill: #1f77b4; stroke: #000000; stroke-width: 1.5; stroke-linecap: round"/>
   </g>
   <g id="patch_14">
    <path d="M 229.248 260.997189 
Q 229.248 266.590518 229.248 270.506797 
" clip-path="url(#pd7f0b9010c)" style="fill: none; stroke: #000000; stroke-width: 1.5; stroke-linecap: round"/>
    <path d="M 231.648 265.706797 
L 229.248 270.506797 
L 226.848 265.706797 
z
" clip-path="url(#pd7f0b9010c)" style="fill: #1f77b4; stroke: #000000; stroke-width: 1.5; stroke-linecap: round"/>
   </g>
   <g id="patch_15">
    <path d="M 382.752 272.184891 
Q 382.752 266.591562 382.752 262.675283 
" clip-path="url(#pd7f0b9010c)" style="fill: none; stroke: #000000; stroke-width: 1.5; stroke-linecap: round"/>
    <path d="M 380.352 267.475283 
L 382.752 262.675283 
L 385.152 267.475283 
z
" clip-path="url(#pd7f0b9010c)" style="fill: #1f77b4; stroke: #000000; stroke-width: 1.5; stroke-linecap: round"/>
   </g>
   <g id="patch_16">
    <path d="M 229.248 315.948229 
Q 229.248 321.541558 229.248 325.457837 
" clip-path="url(#pd7f0b9010c)" style="fill: none; stroke: #000000; stroke-width: 1.5; stroke-linecap: round"/>
    <path d="M 231.648 320.657837 
L 229.248 325.457837 
L 226.848 320.657837 
z
" clip-path="url(#pd7f0b9010c)" style="fill: #1f77b4; stroke: #000000; stroke-width: 1.5; stroke-linecap: round"/>
   </g>
   <g id="patch_17">
    <path d="M 382.752 327.135931 
Q 382.752 321.542602 382.752 317.626323 
" clip-path="url(#pd7f0b9010c)" style="fill: none; stroke: #000000; stroke-width: 1.5; stroke-linecap: round"/>
    <path d="M 380.352 322.426323 
L 382.752 317.626323 
L 385.152 322.426323 
z
" clip-path="url(#pd7f0b9010c)" style="fill: #1f77b4; stroke: #000000; stroke-width: 1.5; stroke-linecap: round"/>
   </g>
   <g id="text_1">
    <!-- Culture &amp; institutions -->
    <g transform="translate(252.902344 77.021775) scale(0.1 -0.1)">
     <defs>
      <path id="DejaVuSans-43" d="M 4122 4306 
L 4122 3641 
Q 3803 3938 3442 4084 
Q 3081 4231 2675 4231 
Q 1875 4231 1450 3742 
Q 1025 3253 1025 2328 
Q 1025 1406 1450 917 
Q 1875 428 2675 428 
Q 3081 428 3442 575 
Q 3803 722 4122 1019 
L 4122 359 
Q 3791 134 3420 21 
Q 3050 -91 2638 -91 
Q 1578 -91 968 557 
Q 359 1206 359 2328 
Q 359 3453 968 4101 
Q 1578 4750 2638 4750 
Q 3056 4750 3426 4639 
Q 3797 4528 4122 4306 
z
" transform="scale(0.015625)"/>
      <path id="DejaVuSans-75" d="M 544 1381 
L 544 3500 
L 1119 3500 
L 1119 1403 
Q 1119 906 1312 657 
Q 1506 409 1894 409 
Q 2359 409 2629 706 
Q 2900 1003 2900 1516 
L 2900 3500 
L 3475 3500 
L 3475 0 
L 2900 0 
L 2900 538 
Q 2691 219 2414 64 
Q 2138 -91 1772 -91 
Q 1169 -91 856 284 
Q 544 659 544 1381 
z
M 1991 3584 
L 1991 3584 
z
" transform="scale(0.015625)"/>
      <path id="DejaVuSans-6c" d="M 603 4863 
L 1178 4863 
L 1178 0 
L 603 0 
L 603 4863 
z
" transform="scale(0.015625)"/>
      <path id="DejaVuSans-74" d="M 1172 4494 
L 1172 3500 
L 2356 3500 
L 2356 3053 
L 1172 3053 
L 1172 1153 
Q 1172 725 1289 603 
Q 1406 481 1766 481 
L 2356 481 
L 2356 0 
L 1766 0 
Q 1100 0 847 248 
Q 594 497 594 1153 
L 594 3053 
L 172 3053 
L 172 3500 
L 594 3500 
L 594 4494 
L 1172 4494 
z
" transform="scale(0.015625)"/>
      <path id="DejaVuSans-72" d="M 2631 2963 
Q 2534 3019 2420 3045 
Q 2306 3072 2169 3072 
Q 1681 3072 1420 2755 
Q 1159 2438 1159 1844 
L 1159 0 
L 581 0 
L 581 3500 
L 1159 3500 
L 1159 2956 
Q 1341 3275 1631 3429 
Q 1922 3584 2338 3584 
Q 2397 3584 2469 3576 
Q 2541 3569 2628 3553 
L 2631 2963 
z
" transform="scale(0.015625)"/>
      <path id="DejaVuSans-65" d="M 3597 1894 
L 3597 1613 
L 953 1613 
Q 991 1019 1311 708 
Q 1631 397 2203 397 
Q 2534 397 2845 478 
Q 3156 559 3463 722 
L 3463 178 
Q 3153 47 2828 -22 
Q 2503 -91 2169 -91 
Q 1331 -91 842 396 
Q 353 884 353 1716 
Q 353 2575 817 3079 
Q 1281 3584 2069 3584 
Q 2775 3584 3186 3129 
Q 3597 2675 3597 1894 
z
M 3022 2063 
Q 3016 2534 2758 2815 
Q 2500 3097 2075 3097 
Q 1594 3097 1305 2825 
Q 1016 2553 972 2059 
L 3022 2063 
z
" transform="scale(0.015625)"/>
      <path id="DejaVuSans-20" transform="scale(0.015625)"/>
      <path id="DejaVuSans-26" d="M 1556 2509 
Q 1272 2256 1139 2004 
Q 1006 1753 1006 1478 
Q 1006 1022 1337 719 
Q 1669 416 2169 416 
Q 2466 416 2725 514 
Q 2984 613 3213 813 
L 1556 2509 
z
M 1997 2859 
L 3584 1234 
Q 3769 1513 3872 1830 
Q 3975 2147 3994 2503 
L 4575 2503 
Q 4538 2091 4375 1687 
Q 4213 1284 3922 891 
L 4794 0 
L 4006 0 
L 3559 459 
Q 3234 181 2878 45 
Q 2522 -91 2113 -91 
Q 1359 -91 881 339 
Q 403 769 403 1441 
Q 403 1841 612 2192 
Q 822 2544 1241 2853 
Q 1091 3050 1012 3245 
Q 934 3441 934 3628 
Q 934 4134 1281 4442 
Q 1628 4750 2203 4750 
Q 2463 4750 2720 4694 
Q 2978 4638 3244 4525 
L 3244 3956 
Q 2972 4103 2725 4179 
Q 2478 4256 2266 4256 
Q 1938 4256 1733 4082 
Q 1528 3909 1528 3634 
Q 1528 3475 1620 3314 
Q 1713 3153 1997 2859 
z
" transform="scale(0.015625)"/>
      <path id="DejaVuSans-69" d="M 603 3500 
L 1178 3500 
L 1178 0 
L 603 0 
L 603 3500 
z
M 603 4863 
L 1178 4863 
L 1178 4134 
L 603 4134 
L 603 4863 
z
" transform="scale(0.015625)"/>
      <path id="DejaVuSans-6e" d="M 3513 2113 
L 3513 0 
L 2938 0 
L 2938 2094 
Q 2938 2591 2744 2837 
Q 2550 3084 2163 3084 
Q 1697 3084 1428 2787 
Q 1159 2491 1159 1978 
L 1159 0 
L 581 0 
L 581 3500 
L 1159 3500 
L 1159 2956 
Q 1366 3272 1645 3428 
Q 1925 3584 2291 3584 
Q 2894 3584 3203 3211 
Q 3513 2838 3513 2113 
z
" transform="scale(0.015625)"/>
      <path id="DejaVuSans-73" d="M 2834 3397 
L 2834 2853 
Q 2591 2978 2328 3040 
Q 2066 3103 1784 3103 
Q 1356 3103 1142 2972 
Q 928 2841 928 2578 
Q 928 2378 1081 2264 
Q 1234 2150 1697 2047 
L 1894 2003 
Q 2506 1872 2764 1633 
Q 3022 1394 3022 966 
Q 3022 478 2636 193 
Q 2250 -91 1575 -91 
Q 1294 -91 989 -36 
Q 684 19 347 128 
L 347 722 
Q 666 556 975 473 
Q 1284 391 1588 391 
Q 1994 391 2212 530 
Q 2431 669 2431 922 
Q 2431 1156 2273 1281 
Q 2116 1406 1581 1522 
L 1381 1569 
Q 847 1681 609 1914 
Q 372 2147 372 2553 
Q 372 3047 722 3315 
Q 1072 3584 1716 3584 
Q 2034 3584 2315 3537 
Q 2597 3491 2834 3397 
z
" transform="scale(0.015625)"/>
      <path id="DejaVuSans-6f" d="M 1959 3097 
Q 1497 3097 1228 2736 
Q 959 2375 959 1747 
Q 959 1119 1226 758 
Q 1494 397 1959 397 
Q 2419 397 2687 759 
Q 2956 1122 2956 1747 
Q 2956 2369 2687 2733 
Q 2419 3097 1959 3097 
z
M 1959 3584 
Q 2709 3584 3137 3096 
Q 3566 2609 3566 1747 
Q 3566 888 3137 398 
Q 2709 -91 1959 -91 
Q 1206 -91 779 398 
Q 353 888 353 1747 
Q 353 2609 779 3096 
Q 1206 3584 1959 3584 
z
" transform="scale(0.015625)"/>
     </defs>
     <use xlink:href="#DejaVuSans-43"/>
     <use xlink:href="#DejaVuSans-75" transform="translate(69.824219 0)"/>
     <use xlink:href="#DejaVuSans-6c" transform="translate(133.203125 0)"/>
     <use xlink:href="#DejaVuSans-74" transform="translate(160.986328 0)"/>
     <use xlink:href="#DejaVuSans-75" transform="translate(200.195312 0)"/>
     <use xlink:href="#DejaVuSans-72" transform="translate(263.574219 0)"/>
     <use xlink:href="#DejaVuSans-65" transform="translate(302.4375 0)"/>
     <use xlink:href="#DejaVuSans-20" transform="translate(363.960938 0)"/>
     <use xlink:href="#DejaVuSans-26" transform="translate(395.748047 0)"/>
     <use xlink:href="#DejaVuSans-20" transform="translate(473.726562 0)"/>
     <use xlink:href="#DejaVuSans-69" transform="translate(505.513672 0)"/>
     <use xlink:href="#DejaVuSans-6e" transform="translate(533.296875 0)"/>
     <use xlink:href="#DejaVuSans-73" transform="translate(596.675781 0)"/>
     <use xlink:href="#DejaVuSans-74" transform="translate(648.775391 0)"/>
     <use xlink:href="#DejaVuSans-69" transform="translate(687.984375 0)"/>
     <use xlink:href="#DejaVuSans-74" transform="translate(715.767578 0)"/>
     <use xlink:href="#DejaVuSans-75" transform="translate(754.976562 0)"/>
     <use xlink:href="#DejaVuSans-74" transform="translate(818.355469 0)"/>
     <use xlink:href="#DejaVuSans-69" transform="translate(857.564453 0)"/>
     <use xlink:href="#DejaVuSans-6f" transform="translate(885.347656 0)"/>
     <use xlink:href="#DejaVuSans-6e" transform="translate(946.529297 0)"/>
     <use xlink:href="#DejaVuSans-73" transform="translate(1009.908203 0)"/>
    </g>
   </g>
   <g id="text_2">
    <!-- Identity, purpose &amp; projects -->
    <g transform="translate(236.311719 131.972815) scale(0.1 -0.1)">
     <defs>
      <path id="DejaVuSans-49" d="M 628 4666 
L 1259 4666 
L 1259 0 
L 628 0 
L 628 4666 
z
" transform="scale(0.015625)"/>
      <path id="DejaVuSans-64" d="M 2906 2969 
L 2906 4863 
L 3481 4863 
L 3481 0 
L 2906 0 
L 2906 525 
Q 2725 213 2448 61 
Q 2172 -91 1784 -91 
Q 1150 -91 751 415 
Q 353 922 353 1747 
Q 353 2572 751 3078 
Q 1150 3584 1784 3584 
Q 2172 3584 2448 3432 
Q 2725 3281 2906 2969 
z
M 947 1747 
Q 947 1113 1208 752 
Q 1469 391 1925 391 
Q 2381 391 2643 752 
Q 2906 1113 2906 1747 
Q 2906 2381 2643 2742 
Q 2381 3103 1925 3103 
Q 1469 3103 1208 2742 
Q 947 2381 947 1747 
z
" transform="scale(0.015625)"/>
      <path id="DejaVuSans-79" d="M 2059 -325 
Q 1816 -950 1584 -1140 
Q 1353 -1331 966 -1331 
L 506 -1331 
L 506 -850 
L 844 -850 
Q 1081 -850 1212 -737 
Q 1344 -625 1503 -206 
L 1606 56 
L 191 3500 
L 800 3500 
L 1894 763 
L 2988 3500 
L 3597 3500 
L 2059 -325 
z
" transform="scale(0.015625)"/>
      <path id="DejaVuSans-2c" d="M 750 794 
L 1409 794 
L 1409 256 
L 897 -744 
L 494 -744 
L 750 256 
L 750 794 
z
" transform="scale(0.015625)"/>
      <path id="DejaVuSans-70" d="M 1159 525 
L 1159 -1331 
L 581 -1331 
L 581 3500 
L 1159 3500 
L 1159 2969 
Q 1341 3281 1617 3432 
Q 1894 3584 2278 3584 
Q 2916 3584 3314 3078 
Q 3713 2572 3713 1747 
Q 3713 922 3314 415 
Q 2916 -91 2278 -91 
Q 1894 -91 1617 61 
Q 1341 213 1159 525 
z
M 3116 1747 
Q 3116 2381 2855 2742 
Q 2594 3103 2138 3103 
Q 1681 3103 1420 2742 
Q 1159 2381 1159 1747 
Q 1159 1113 1420 752 
Q 1681 391 2138 391 
Q 2594 391 2855 752 
Q 3116 1113 3116 1747 
z
" transform="scale(0.015625)"/>
      <path id="DejaVuSans-6a" d="M 603 3500 
L 1178 3500 
L 1178 -63 
Q 1178 -731 923 -1031 
Q 669 -1331 103 -1331 
L -116 -1331 
L -116 -844 
L 38 -844 
Q 366 -844 484 -692 
Q 603 -541 603 -63 
L 603 3500 
z
M 603 4863 
L 1178 4863 
L 1178 4134 
L 603 4134 
L 603 4863 
z
" transform="scale(0.015625)"/>
      <path id="DejaVuSans-63" d="M 3122 3366 
L 3122 2828 
Q 2878 2963 2633 3030 
Q 2388 3097 2138 3097 
Q 1578 3097 1268 2742 
Q 959 2388 959 1747 
Q 959 1106 1268 751 
Q 1578 397 2138 397 
Q 2388 397 2633 464 
Q 2878 531 3122 666 
L 3122 134 
Q 2881 22 2623 -34 
Q 2366 -91 2075 -91 
Q 1284 -91 818 406 
Q 353 903 353 1747 
Q 353 2603 823 3093 
Q 1294 3584 2113 3584 
Q 2378 3584 2631 3529 
Q 2884 3475 3122 3366 
z
" transform="scale(0.015625)"/>
     </defs>
     <use xlink:href="#DejaVuSans-49"/>
     <use xlink:href="#DejaVuSans-64" transform="translate(29.492188 0)"/>
     <use xlink:href="#DejaVuSans-65" transform="translate(92.96875 0)"/>
     <use xlink:href="#DejaVuSans-6e" transform="translate(154.492188 0)"/>
     <use xlink:href="#DejaVuSans-74" transform="translate(217.871094 0)"/>
     <use xlink:href="#DejaVuSans-69" transform="translate(257.080078 0)"/>
     <use xlink:href="#DejaVuSans-74" transform="translate(284.863281 0)"/>
     <use xlink:href="#DejaVuSans-79" transform="translate(324.072266 0)"/>
     <use xlink:href="#DejaVuSans-2c" transform="translate(383.251953 0)"/>
     <use xlink:href="#DejaVuSans-20" transform="translate(415.039062 0)"/>
     <use xlink:href="#DejaVuSans-70" transform="translate(446.826172 0)"/>
     <use xlink:href="#DejaVuSans-75" transform="translate(510.302734 0)"/>
     <use xlink:href="#DejaVuSans-72" transform="translate(573.681641 0)"/>
     <use xlink:href="#DejaVuSans-70" transform="translate(614.794922 0)"/>
     <use xlink:href="#DejaVuSans-6f" transform="translate(678.271484 0)"/>
     <use xlink:href="#DejaVuSans-73" transform="translate(739.453125 0)"/>
     <use xlink:href="#DejaVuSans-65" transform="translate(791.552734 0)"/>
     <use xlink:href="#DejaVuSans-20" transform="translate(853.076172 0)"/>
     <use xlink:href="#DejaVuSans-26" transform="translate(884.863281 0)"/>
     <use xlink:href="#DejaVuSans-20" transform="translate(962.841797 0)"/>
     <use xlink:href="#DejaVuSans-70" transform="translate(994.628906 0)"/>
     <use xlink:href="#DejaVuSans-72" transform="translate(1058.105469 0)"/>
     <use xlink:href="#DejaVuSans-6f" transform="translate(1096.96875 0)"/>
     <use xlink:href="#DejaVuSans-6a" transform="translate(1158.150391 0)"/>
     <use xlink:href="#DejaVuSans-65" transform="translate(1185.933594 0)"/>
     <use xlink:href="#DejaVuSans-63" transform="translate(1247.457031 0)"/>
     <use xlink:href="#DejaVuSans-74" transform="translate(1302.4375 0)"/>
     <use xlink:href="#DejaVuSans-73" transform="translate(1341.646484 0)"/>
    </g>
   </g>
   <g id="text_3">
    <!-- Attention &amp; prediction -->
    <g transform="translate(250.763281 186.923855) scale(0.1 -0.1)">
     <defs>
      <path id="DejaVuSans-41" d="M 2188 4044 
L 1331 1722 
L 3047 1722 
L 2188 4044 
z
M 1831 4666 
L 2547 4666 
L 4325 0 
L 3669 0 
L 3244 1197 
L 1141 1197 
L 716 0 
L 50 0 
L 1831 4666 
z
" transform="scale(0.015625)"/>
     </defs>
     <use xlink:href="#DejaVuSans-41"/>
     <use xlink:href="#DejaVuSans-74" transform="translate(66.658203 0)"/>
     <use xlink:href="#DejaVuSans-74" transform="translate(105.867188 0)"/>
     <use xlink:href="#DejaVuSans-65" transform="translate(145.076172 0)"/>
     <use xlink:href="#DejaVuSans-6e" transform="translate(206.599609 0)"/>
     <use xlink:href="#DejaVuSans-74" transform="translate(269.978516 0)"/>
     <use xlink:href="#DejaVuSans-69" transform="translate(309.1875 0)"/>
     <use xlink:href="#DejaVuSans-6f" transform="translate(336.970703 0)"/>
     <use xlink:href="#DejaVuSans-6e" transform="translate(398.152344 0)"/>
     <use xlink:href="#DejaVuSans-20" transform="translate(461.53125 0)"/>
     <use xlink:href="#DejaVuSans-26" transform="translate(493.318359 0)"/>
     <use xlink:href="#DejaVuSans-20" transform="translate(571.296875 0)"/>
     <use xlink:href="#DejaVuSans-70" transform="translate(603.083984 0)"/>
     <use xlink:href="#DejaVuSans-72" transform="translate(666.560547 0)"/>
     <use xlink:href="#DejaVuSans-65" transform="translate(705.423828 0)"/>
     <use xlink:href="#DejaVuSans-64" transform="translate(766.947266 0)"/>
     <use xlink:href="#DejaVuSans-69" transform="translate(830.423828 0)"/>
     <use xlink:href="#DejaVuSans-63" transform="translate(858.207031 0)"/>
     <use xlink:href="#DejaVuSans-74" transform="translate(913.1875 0)"/>
     <use xlink:href="#DejaVuSans-69" transform="translate(952.396484 0)"/>
     <use xlink:href="#DejaVuSans-6f" transform="translate(980.179688 0)"/>
     <use xlink:href="#DejaVuSans-6e" transform="translate(1041.361328 0)"/>
    </g>
   </g>
   <g id="text_4">
    <!-- Brain, autonomic &amp; motor control -->
    <g transform="translate(222.225 241.874895) scale(0.1 -0.1)">
     <defs>
      <path id="DejaVuSans-42" d="M 1259 2228 
L 1259 519 
L 2272 519 
Q 2781 519 3026 730 
Q 3272 941 3272 1375 
Q 3272 1813 3026 2020 
Q 2781 2228 2272 2228 
L 1259 2228 
z
M 1259 4147 
L 1259 2741 
L 2194 2741 
Q 2656 2741 2882 2914 
Q 3109 3088 3109 3444 
Q 3109 3797 2882 3972 
Q 2656 4147 2194 4147 
L 1259 4147 
z
M 628 4666 
L 2241 4666 
Q 2963 4666 3353 4366 
Q 3744 4066 3744 3513 
Q 3744 3084 3544 2831 
Q 3344 2578 2956 2516 
Q 3422 2416 3680 2098 
Q 3938 1781 3938 1306 
Q 3938 681 3513 340 
Q 3088 0 2303 0 
L 628 0 
L 628 4666 
z
" transform="scale(0.015625)"/>
      <path id="DejaVuSans-61" d="M 2194 1759 
Q 1497 1759 1228 1600 
Q 959 1441 959 1056 
Q 959 750 1161 570 
Q 1363 391 1709 391 
Q 2188 391 2477 730 
Q 2766 1069 2766 1631 
L 2766 1759 
L 2194 1759 
z
M 3341 1997 
L 3341 0 
L 2766 0 
L 2766 531 
Q 2569 213 2275 61 
Q 1981 -91 1556 -91 
Q 1019 -91 701 211 
Q 384 513 384 1019 
Q 384 1609 779 1909 
Q 1175 2209 1959 2209 
L 2766 2209 
L 2766 2266 
Q 2766 2663 2505 2880 
Q 2244 3097 1772 3097 
Q 1472 3097 1187 3025 
Q 903 2953 641 2809 
L 641 3341 
Q 956 3463 1253 3523 
Q 1550 3584 1831 3584 
Q 2591 3584 2966 3190 
Q 3341 2797 3341 1997 
z
" transform="scale(0.015625)"/>
      <path id="DejaVuSans-6d" d="M 3328 2828 
Q 3544 3216 3844 3400 
Q 4144 3584 4550 3584 
Q 5097 3584 5394 3201 
Q 5691 2819 5691 2113 
L 5691 0 
L 5113 0 
L 5113 2094 
Q 5113 2597 4934 2840 
Q 4756 3084 4391 3084 
Q 3944 3084 3684 2787 
Q 3425 2491 3425 1978 
L 3425 0 
L 2847 0 
L 2847 2094 
Q 2847 2600 2669 2842 
Q 2491 3084 2119 3084 
Q 1678 3084 1418 2786 
Q 1159 2488 1159 1978 
L 1159 0 
L 581 0 
L 581 3500 
L 1159 3500 
L 1159 2956 
Q 1356 3278 1631 3431 
Q 1906 3584 2284 3584 
Q 2666 3584 2933 3390 
Q 3200 3197 3328 2828 
z
" transform="scale(0.015625)"/>
     </defs>
     <use xlink:href="#DejaVuSans-42"/>
     <use xlink:href="#DejaVuSans-72" transform="translate(68.603516 0)"/>
     <use xlink:href="#DejaVuSans-61" transform="translate(109.716797 0)"/>
     <use xlink:href="#DejaVuSans-69" transform="translate(170.996094 0)"/>
     <use xlink:href="#DejaVuSans-6e" transform="translate(198.779297 0)"/>
     <use xlink:href="#DejaVuSans-2c" transform="translate(262.158203 0)"/>
     <use xlink:href="#DejaVuSans-20" transform="translate(293.945312 0)"/>
     <use xlink:href="#DejaVuSans-61" transform="translate(325.732422 0)"/>
     <use xlink:href="#DejaVuSans-75" transform="translate(387.011719 0)"/>
     <use xlink:href="#DejaVuSans-74" transform="translate(450.390625 0)"/>
     <use xlink:href="#DejaVuSans-6f" transform="translate(489.599609 0)"/>
     <use xlink:href="#DejaVuSans-6e" transform="translate(550.78125 0)"/>
     <use xlink:href="#DejaVuSans-6f" transform="translate(614.160156 0)"/>
     <use xlink:href="#DejaVuSans-6d" transform="translate(675.341797 0)"/>
     <use xlink:href="#DejaVuSans-69" transform="translate(772.753906 0)"/>
     <use xlink:href="#DejaVuSans-63" transform="translate(800.537109 0)"/>
     <use xlink:href="#DejaVuSans-20" transform="translate(855.517578 0)"/>
     <use xlink:href="#DejaVuSans-26" transform="translate(887.304688 0)"/>
     <use xlink:href="#DejaVuSans-20" transform="translate(965.283203 0)"/>
     <use xlink:href="#DejaVuSans-6d" transform="translate(997.070312 0)"/>
     <use xlink:href="#DejaVuSans-6f" transform="translate(1094.482422 0)"/>
     <use xlink:href="#DejaVuSans-74" transform="translate(1155.664062 0)"/>
     <use xlink:href="#DejaVuSans-6f" transform="translate(1194.873047 0)"/>
     <use xlink:href="#DejaVuSans-72" transform="translate(1256.054688 0)"/>
     <use xlink:href="#DejaVuSans-20" transform="translate(1297.167969 0)"/>
     <use xlink:href="#DejaVuSans-63" transform="translate(1328.955078 0)"/>
     <use xlink:href="#DejaVuSans-6f" transform="translate(1383.935547 0)"/>
     <use xlink:href="#DejaVuSans-6e" transform="translate(1445.117188 0)"/>
     <use xlink:href="#DejaVuSans-74" transform="translate(1508.496094 0)"/>
     <use xlink:href="#DejaVuSans-72" transform="translate(1547.705078 0)"/>
     <use xlink:href="#DejaVuSans-6f" transform="translate(1586.568359 0)"/>
     <use xlink:href="#DejaVuSans-6c" transform="translate(1647.75 0)"/>
    </g>
   </g>
   <g id="text_5">
    <!-- Organs, tissues &amp; mechanics -->
    <g transform="translate(233.579687 296.825935) scale(0.1 -0.1)">
     <defs>
      <path id="DejaVuSans-4f" d="M 2522 4238 
Q 1834 4238 1429 3725 
Q 1025 3213 1025 2328 
Q 1025 1447 1429 934 
Q 1834 422 2522 422 
Q 3209 422 3611 934 
Q 4013 1447 4013 2328 
Q 4013 3213 3611 3725 
Q 3209 4238 2522 4238 
z
M 2522 4750 
Q 3503 4750 4090 4092 
Q 4678 3434 4678 2328 
Q 4678 1225 4090 567 
Q 3503 -91 2522 -91 
Q 1538 -91 948 565 
Q 359 1222 359 2328 
Q 359 3434 948 4092 
Q 1538 4750 2522 4750 
z
" transform="scale(0.015625)"/>
      <path id="DejaVuSans-67" d="M 2906 1791 
Q 2906 2416 2648 2759 
Q 2391 3103 1925 3103 
Q 1463 3103 1205 2759 
Q 947 2416 947 1791 
Q 947 1169 1205 825 
Q 1463 481 1925 481 
Q 2391 481 2648 825 
Q 2906 1169 2906 1791 
z
M 3481 434 
Q 3481 -459 3084 -895 
Q 2688 -1331 1869 -1331 
Q 1566 -1331 1297 -1286 
Q 1028 -1241 775 -1147 
L 775 -588 
Q 1028 -725 1275 -790 
Q 1522 -856 1778 -856 
Q 2344 -856 2625 -561 
Q 2906 -266 2906 331 
L 2906 616 
Q 2728 306 2450 153 
Q 2172 0 1784 0 
Q 1141 0 747 490 
Q 353 981 353 1791 
Q 353 2603 747 3093 
Q 1141 3584 1784 3584 
Q 2172 3584 2450 3431 
Q 2728 3278 2906 2969 
L 2906 3500 
L 3481 3500 
L 3481 434 
z
" transform="scale(0.015625)"/>
      <path id="DejaVuSans-68" d="M 3513 2113 
L 3513 0 
L 2938 0 
L 2938 2094 
Q 2938 2591 2744 2837 
Q 2550 3084 2163 3084 
Q 1697 3084 1428 2787 
Q 1159 2491 1159 1978 
L 1159 0 
L 581 0 
L 581 4863 
L 1159 4863 
L 1159 2956 
Q 1366 3272 1645 3428 
Q 1925 3584 2291 3584 
Q 2894 3584 3203 3211 
Q 3513 2838 3513 2113 
z
" transform="scale(0.015625)"/>
     </defs>
     <use xlink:href="#DejaVuSans-4f"/>
     <use xlink:href="#DejaVuSans-72" transform="translate(78.710938 0)"/>
     <use xlink:href="#DejaVuSans-67" transform="translate(118.074219 0)"/>
     <use xlink:href="#DejaVuSans-61" transform="translate(181.550781 0)"/>
     <use xlink:href="#DejaVuSans-6e" transform="translate(242.830078 0)"/>
     <use xlink:href="#DejaVuSans-73" transform="translate(306.208984 0)"/>
     <use xlink:href="#DejaVuSans-2c" transform="translate(358.308594 0)"/>
     <use xlink:href="#DejaVuSans-20" transform="translate(390.095703 0)"/>
     <use xlink:href="#DejaVuSans-74" transform="translate(421.882812 0)"/>
     <use xlink:href="#DejaVuSans-69" transform="translate(461.091797 0)"/>
     <use xlink:href="#DejaVuSans-73" transform="translate(488.875 0)"/>
     <use xlink:href="#DejaVuSans-73" transform="translate(540.974609 0)"/>
     <use xlink:href="#DejaVuSans-75" transform="translate(593.074219 0)"/>
     <use xlink:href="#DejaVuSans-65" transform="translate(656.453125 0)"/>
     <use xlink:href="#DejaVuSans-73" transform="translate(717.976562 0)"/>
     <use xlink:href="#DejaVuSans-20" transform="translate(770.076172 0)"/>
     <use xlink:href="#DejaVuSans-26" transform="translate(801.863281 0)"/>
     <use xlink:href="#DejaVuSans-20" transform="translate(879.841797 0)"/>
     <use xlink:href="#DejaVuSans-6d" transform="translate(911.628906 0)"/>
     <use xlink:href="#DejaVuSans-65" transform="translate(1009.041016 0)"/>
     <use xlink:href="#DejaVuSans-63" transform="translate(1070.564453 0)"/>
     <use xlink:href="#DejaVuSans-68" transform="translate(1125.544922 0)"/>
     <use xlink:href="#DejaVuSans-61" transform="translate(1188.923828 0)"/>
     <use xlink:href="#DejaVuSans-6e" transform="translate(1250.203125 0)"/>
     <use xlink:href="#DejaVuSans-69" transform="translate(1313.582031 0)"/>
     <use xlink:href="#DejaVuSans-63" transform="translate(1341.365234 0)"/>
     <use xlink:href="#DejaVuSans-73" transform="translate(1396.345703 0)"/>
    </g>
   </g>
   <g id="text_6">
    <!-- Cells &amp; molecular regulation -->
    <g transform="translate(235.167969 351.776975) scale(0.1 -0.1)">
     <use xlink:href="#DejaVuSans-43"/>
     <use xlink:href="#DejaVuSans-65" transform="translate(69.824219 0)"/>
     <use xlink:href="#DejaVuSans-6c" transform="translate(131.347656 0)"/>
     <use xlink:href="#DejaVuSans-6c" transform="translate(159.130859 0)"/>
     <use xlink:href="#DejaVuSans-73" transform="translate(186.914062 0)"/>
     <use xlink:href="#DejaVuSans-20" transform="translate(239.013672 0)"/>
     <use xlink:href="#DejaVuSans-26" transform="translate(270.800781 0)"/>
     <use xlink:href="#DejaVuSans-20" transform="translate(348.779297 0)"/>
     <use xlink:href="#DejaVuSans-6d" transform="translate(380.566406 0)"/>
     <use xlink:href="#DejaVuSans-6f" transform="translate(477.978516 0)"/>
     <use xlink:href="#DejaVuSans-6c" transform="translate(539.160156 0)"/>
     <use xlink:href="#DejaVuSans-65" transform="translate(566.943359 0)"/>
     <use xlink:href="#DejaVuSans-63" transform="translate(628.466797 0)"/>
     <use xlink:href="#DejaVuSans-75" transform="translate(683.447266 0)"/>
     <use xlink:href="#DejaVuSans-6c" transform="translate(746.826172 0)"/>
     <use xlink:href="#DejaVuSans-61" transform="translate(774.609375 0)"/>
     <use xlink:href="#DejaVuSans-72" transform="translate(835.888672 0)"/>
     <use xlink:href="#DejaVuSans-20" transform="translate(877.001953 0)"/>
     <use xlink:href="#DejaVuSans-72" transform="translate(908.789062 0)"/>
     <use xlink:href="#DejaVuSans-65" transform="translate(947.652344 0)"/>
     <use xlink:href="#DejaVuSans-67" transform="translate(1009.175781 0)"/>
     <use xlink:href="#DejaVuSans-75" transform="translate(1072.652344 0)"/>
     <use xlink:href="#DejaVuSans-6c" transform="translate(1136.03125 0)"/>
     <use xlink:href="#DejaVuSans-61" transform="translate(1163.814453 0)"/>
     <use xlink:href="#DejaVuSans-74" transform="translate(1225.09375 0)"/>
     <use xlink:href="#DejaVuSans-69" transform="translate(1264.302734 0)"/>
     <use xlink:href="#DejaVuSans-6f" transform="translate(1292.085938 0)"/>
     <use xlink:href="#DejaVuSans-6e" transform="translate(1353.267578 0)"/>
    </g>
   </g>
   <g id="text_7">
    <!-- downward constraints -->
    <g transform="translate(178.595438 261.284141) rotate(-90) scale(0.09 -0.09)">
     <defs>
      <path id="DejaVuSans-77" d="M 269 3500 
L 844 3500 
L 1563 769 
L 2278 3500 
L 2956 3500 
L 3675 769 
L 4391 3500 
L 4966 3500 
L 4050 0 
L 3372 0 
L 2619 2869 
L 1863 0 
L 1184 0 
L 269 3500 
z
" transform="scale(0.015625)"/>
     </defs>
     <use xlink:href="#DejaVuSans-64"/>
     <use xlink:href="#DejaVuSans-6f" transform="translate(63.476562 0)"/>
     <use xlink:href="#DejaVuSans-77" transform="translate(124.658203 0)"/>
     <use xlink:href="#DejaVuSans-6e" transform="translate(206.445312 0)"/>
     <use xlink:href="#DejaVuSans-77" transform="translate(269.824219 0)"/>
     <use xlink:href="#DejaVuSans-61" transform="translate(351.611328 0)"/>
     <use xlink:href="#DejaVuSans-72" transform="translate(412.890625 0)"/>
     <use xlink:href="#DejaVuSans-64" transform="translate(452.253906 0)"/>
     <use xlink:href="#DejaVuSans-20" transform="translate(515.730469 0)"/>
     <use xlink:href="#DejaVuSans-63" transform="translate(547.517578 0)"/>
     <use xlink:href="#DejaVuSans-6f" transform="translate(602.498047 0)"/>
     <use xlink:href="#DejaVuSans-6e" transform="translate(663.679688 0)"/>
     <use xlink:href="#DejaVuSans-73" transform="translate(727.058594 0)"/>
     <use xlink:href="#DejaVuSans-74" transform="translate(779.158203 0)"/>
     <use xlink:href="#DejaVuSans-72" transform="translate(818.367188 0)"/>
     <use xlink:href="#DejaVuSans-61" transform="translate(859.480469 0)"/>
     <use xlink:href="#DejaVuSans-69" transform="translate(920.759766 0)"/>
     <use xlink:href="#DejaVuSans-6e" transform="translate(948.542969 0)"/>
     <use xlink:href="#DejaVuSans-74" transform="translate(1011.921875 0)"/>
     <use xlink:href="#DejaVuSans-73" transform="translate(1051.130859 0)"/>
    </g>
   </g>
   <g id="text_8">
    <!-- upward emergence -->
    <g transform="translate(438.371437 255.257656) rotate(-90) scale(0.09 -0.09)">
     <use xlink:href="#DejaVuSans-75"/>
     <use xlink:href="#DejaVuSans-70" transform="translate(63.378906 0)"/>
     <use xlink:href="#DejaVuSans-77" transform="translate(126.855469 0)"/>
     <use xlink:href="#DejaVuSans-61" transform="translate(208.642578 0)"/>
     <use xlink:href="#DejaVuSans-72" transform="translate(269.921875 0)"/>
     <use xlink:href="#DejaVuSans-64" transform="translate(309.285156 0)"/>
     <use xlink:href="#DejaVuSans-20" transform="translate(372.761719 0)"/>
     <use xlink:href="#DejaVuSans-65" transform="translate(404.548828 0)"/>
     <use xlink:href="#DejaVuSans-6d" transform="translate(466.072266 0)"/>
     <use xlink:href="#DejaVuSans-65" transform="translate(563.484375 0)"/>
     <use xlink:href="#DejaVuSans-72" transform="translate(625.007812 0)"/>
     <use xlink:href="#DejaVuSans-67" transform="translate(664.371094 0)"/>
     <use xlink:href="#DejaVuSans-65" transform="translate(727.847656 0)"/>
     <use xlink:href="#DejaVuSans-6e" transform="translate(789.371094 0)"/>
     <use xlink:href="#DejaVuSans-63" transform="translate(852.75 0)"/>
     <use xlink:href="#DejaVuSans-65" transform="translate(907.730469 0)"/>
    </g>
   </g>
   <g id="text_9">
    <!-- Bidirectional causation in a multilevel human system -->
    <g transform="translate(146.699062 20.88) scale(0.12 -0.12)">
     <defs>
      <path id="DejaVuSans-76" d="M 191 3500 
L 800 3500 
L 1894 563 
L 2988 3500 
L 3597 3500 
L 2284 0 
L 1503 0 
L 191 3500 
z
" transform="scale(0.015625)"/>
     </defs>
     <use xlink:href="#DejaVuSans-42"/>
     <use xlink:href="#DejaVuSans-69" transform="translate(68.603516 0)"/>
     <use xlink:href="#DejaVuSans-64" transform="translate(96.386719 0)"/>
     <use xlink:href="#DejaVuSans-69" transform="translate(159.863281 0)"/>
     <use xlink:href="#DejaVuSans-72" transform="translate(187.646484 0)"/>
     <use xlink:href="#DejaVuSans-65" transform="translate(226.509766 0)"/>
     <use xlink:href="#DejaVuSans-63" transform="translate(288.033203 0)"/>
     <use xlink:href="#DejaVuSans-74" transform="translate(343.013672 0)"/>
     <use xlink:href="#DejaVuSans-69" transform="translate(382.222656 0)"/>
     <use xlink:href="#DejaVuSans-6f" transform="translate(410.005859 0)"/>
     <use xlink:href="#DejaVuSans-6e" transform="translate(471.1875 0)"/>
     <use xlink:href="#DejaVuSans-61" transform="translate(534.566406 0)"/>
     <use xlink:href="#DejaVuSans-6c" transform="translate(595.845703 0)"/>
     <use xlink:href="#DejaVuSans-20" transform="translate(623.628906 0)"/>
     <use xlink:href="#DejaVuSans-63" transform="translate(655.416016 0)"/>
     <use xlink:href="#DejaVuSans-61" transform="translate(710.396484 0)"/>
     <use xlink:href="#DejaVuSans-75" transform="translate(771.675781 0)"/>
     <use xlink:href="#DejaVuSans-73" transform="translate(835.054688 0)"/>
     <use xlink:href="#DejaVuSans-61" transform="translate(887.154297 0)"/>
     <use xlink:href="#DejaVuSans-74" transform="translate(948.433594 0)"/>
     <use xlink:href="#DejaVuSans-69" transform="translate(987.642578 0)"/>
     <use xlink:href="#DejaVuSans-6f" transform="translate(1015.425781 0)"/>
     <use xlink:href="#DejaVuSans-6e" transform="translate(1076.607422 0)"/>
     <use xlink:href="#DejaVuSans-20" transform="translate(1139.986328 0)"/>
     <use xlink:href="#DejaVuSans-69" transform="translate(1171.773438 0)"/>
     <use xlink:href="#DejaVuSans-6e" transform="translate(1199.556641 0)"/>
     <use xlink:href="#DejaVuSans-20" transform="translate(1262.935547 0)"/>
     <use xlink:href="#DejaVuSans-61" transform="translate(1294.722656 0)"/>
     <use xlink:href="#DejaVuSans-20" transform="translate(1356.001953 0)"/>
     <use xlink:href="#DejaVuSans-6d" transform="translate(1387.789062 0)"/>
     <use xlink:href="#DejaVuSans-75" transform="translate(1485.201172 0)"/>
     <use xlink:href="#DejaVuSans-6c" transform="translate(1548.580078 0)"/>
     <use xlink:href="#DejaVuSans-74" transform="translate(1576.363281 0)"/>
     <use xlink:href="#DejaVuSans-69" transform="translate(1615.572266 0)"/>
     <use xlink:href="#DejaVuSans-6c" transform="translate(1643.355469 0)"/>
     <use xlink:href="#DejaVuSans-65" transform="translate(1671.138672 0)"/>
     <use xlink:href="#DejaVuSans-76" transform="translate(1732.662109 0)"/>
     <use xlink:href="#DejaVuSans-65" transform="translate(1791.841797 0)"/>
     <use xlink:href="#DejaVuSans-6c" transform="translate(1853.365234 0)"/>
     <use xlink:href="#DejaVuSans-20" transform="translate(1881.148438 0)"/>
     <use xlink:href="#DejaVuSans-68" transform="translate(1912.935547 0)"/>
     <use xlink:href="#DejaVuSans-75" transform="translate(1976.314453 0)"/>
     <use xlink:href="#DejaVuSans-6d" transform="translate(2039.693359 0)"/>
     <use xlink:href="#DejaVuSans-61" transform="translate(2137.105469 0)"/>
     <use xlink:href="#DejaVuSans-6e" transform="translate(2198.384766 0)"/>
     <use xlink:href="#DejaVuSans-20" transform="translate(2261.763672 0)"/>
     <use xlink:href="#DejaVuSans-73" transform="translate(2293.550781 0)"/>
     <use xlink:href="#DejaVuSans-79" transform="translate(2345.650391 0)"/>
     <use xlink:href="#DejaVuSans-73" transform="translate(2404.830078 0)"/>
     <use xlink:href="#DejaVuSans-74" transform="translate(2456.929688 0)"/>
     <use xlink:href="#DejaVuSans-65" transform="translate(2496.138672 0)"/>
     <use xlink:href="#DejaVuSans-6d" transform="translate(2557.662109 0)"/>
    </g>
   </g>
  </g>
 </g>
 <defs>
  <clipPath id="pd7f0b9010c">
   <rect x="10.8" y="30.88" width="590.4" height="361.52"/>
  </clipPath>
 </defs>
</svg>
