<svg xmlns="http://www.w3.org/2000/svg" width="1000" height="500" viewBox="0 0 1000 500"><style>text{font-family:Arial,sans-serif;fill:#17212B}.t{font-size:19px;font-weight:bold}.s{font-size:16px}.n{fill:#F7F5EF;stroke:#1F667A;stroke-width:2}.a{stroke:#53735B;stroke-width:4;fill:none;marker-end:url(#g)}.r{stroke:#B66A3C;stroke-width:3;fill:none;stroke-dasharray:10 7;marker-end:url(#c)}</style><defs><marker id="g" markerWidth="10" markerHeight="10" refX="8" refY="3" orient="auto"><path d="M0,0 L0,6 L9,3 z" fill="#53735B"/></marker><marker id="c" markerWidth="10" markerHeight="10" refX="8" refY="3" orient="auto"><path d="M0,0 L0,6 L9,3 z" fill="#B66A3C"/></marker></defs><rect x="390" y="30" width="220" height="60" rx="15" class="n"/><text x="500" y="67" text-anchor="middle" class="t">Multipotent state</text><rect x="150" y="210" width="210" height="60" rx="15" class="n"/><text x="255" y="247" text-anchor="middle" class="t">Progenitor A</text><rect x="640" y="210" width="210" height="60" rx="15" class="n"/><text x="745" y="247" text-anchor="middle" class="t">Progenitor B</text><rect x="70" y="390" width="210" height="60" rx="15" class="n"/><text x="175" y="427" text-anchor="middle" class="t">Mature cell A</text><rect x="395" y="390" width="210" height="60" rx="15" class="n"/><text x="500" y="427" text-anchor="middle" class="t">Mature cell B</text><rect x="720" y="390" width="210" height="60" rx="15" class="n"/><text x="825" y="427" text-anchor="middle" class="t">Mature cell C</text><path d="M450 90 L290 210" class="a"/><path d="M550 90 L710 210" class="a"/><path d="M220 270 L180 390" class="a"/><path d="M300 270 L460 390" class="a"/><path d="M700 270 L540 390" class="a"/><path d="M780 270 L820 390" class="a"/><path d="M470 385 C400 300 310 300 220 385" class="r"/><text x="340" y="320" text-anchor="middle" class="s">lateral conversion</text><path d="M815 385 C900 250 700 130 590 95" class="r"/><text x="815" y="175" text-anchor="middle" class="s">reprogramming</text></svg>