<?xml version="1.0" encoding="utf-8" standalone="no"?>
<!DOCTYPE svg PUBLIC "-//W3C//DTD SVG 1.1//EN"
  "http://www.w3.org/Graphics/SVG/1.1/DTD/svg11.dtd">
<svg xmlns:xlink="http://www.w3.org/1999/xlink" width="612pt" height="388.8pt" viewBox="0 0 612 388.8" xmlns="http://www.w3.org/2000/svg" version="1.1">
 <metadata>
  <rdf:RDF xmlns:dc="http://purl.org/dc/elements/1.1/" xmlns:cc="http://creativecommons.org/ns#" xmlns:rdf="http://www.w3.org/1999/02/22-rdf-syntax-ns#">
   <cc:Work>
    <dc:type rdf:resource="http://purl.org/dc/dcmitype/StillImage"/>
    <dc:date>2026-07-23T20:46:27.969517</dc:date>
    <dc:format>image/svg+xml</dc:format>
    <dc:creator>
     <cc:Agent>
      <dc:title>Matplotlib v3.10.8, https://matplotlib.org/</dc:title>
     </cc:Agent>
    </dc:creator>
   </cc:Work>
  </rdf:RDF>
 </metadata>
 <defs>
  <style type="text/css">*{stroke-linejoin: round; stroke-linecap: butt}</style>
 </defs>
 <g id="figure_1">
  <g id="patch_1">
   <path d="M 0 388.8 
L 612 388.8 
L 612 0 
L 0 0 
z
" style="fill: #ffffff"/>
  </g>
  <g id="axes_1">
   <g id="patch_2">
    <path d="M 264.672 77.7924 
L 347.328 77.7924 
Q 353.232 77.7924 353.232 74.2812 
L 353.232 49.7028 
Q 353.232 46.1916 347.328 46.1916 
L 264.672 46.1916 
Q 258.768 46.1916 258.768 49.7028 
L 258.768 74.2812 
Q 258.768 77.7924 264.672 77.7924 
z
" clip-path="url(#p60933339e2)" style="fill: #ffffff; stroke: #000000; stroke-linejoin: miter"/>
   </g>
   <g id="patch_3">
    <path d="M 99.36 158.55 
L 182.016 158.55 
Q 187.92 158.55 187.92 155.0388 
L 187.92 130.4604 
Q 187.92 126.9492 182.016 126.9492 
L 99.36 126.9492 
Q 93.456 126.9492 93.456 130.4604 
L 93.456 155.0388 
Q 93.456 158.55 99.36 158.55 
z
" clip-path="url(#p60933339e2)" style="fill: #ffffff; stroke: #000000; stroke-linejoin: miter"/>
   </g>
   <g id="patch_4">
    <path d="M 264.672 158.55 
L 347.328 158.55 
Q 353.232 158.55 353.232 155.0388 
L 353.232 130.4604 
Q 353.232 126.9492 347.328 126.9492 
L 264.672 126.9492 
Q 258.768 126.9492 258.768 130.4604 
L 258.768 155.0388 
Q 258.768 158.55 264.672 158.55 
z
" clip-path="url(#p60933339e2)" style="fill: #ffffff; stroke: #000000; stroke-linejoin: miter"/>
   </g>
   <g id="patch_5">
    <path d="M 429.984 158.55 
L 512.64 158.55 
Q 518.544 158.55 518.544 155.0388 
L 518.544 130.4604 
Q 518.544 126.9492 512.64 126.9492 
L 429.984 126.9492 
Q 424.08 126.9492 424.08 130.4604 
L 424.08 155.0388 
Q 424.08 158.55 429.984 158.55 
z
" clip-path="url(#p60933339e2)" style="fill: #ffffff; stroke: #000000; stroke-linejoin: miter"/>
   </g>
   <g id="patch_6">
    <path d="M 40.32 270.9084 
L 122.976 270.9084 
Q 128.88 270.9084 128.88 267.3972 
L 128.88 242.8188 
Q 128.88 239.3076 122.976 239.3076 
L 40.32 239.3076 
Q 34.416 239.3076 34.416 242.8188 
L 34.416 267.3972 
Q 34.416 270.9084 40.32 270.9084 
z
" clip-path="url(#p60933339e2)" style="fill: #ffffff; stroke: #000000; stroke-linejoin: miter"/>
   </g>
   <g id="patch_7">
    <path d="M 146.592 270.9084 
L 229.248 270.9084 
Q 235.152 270.9084 235.152 267.3972 
L 235.152 242.8188 
Q 235.152 239.3076 229.248 239.3076 
L 146.592 239.3076 
Q 140.688 239.3076 140.688 242.8188 
L 140.688 267.3972 
Q 140.688 270.9084 146.592 270.9084 
z
" clip-path="url(#p60933339e2)" style="fill: #ffffff; stroke: #000000; stroke-linejoin: miter"/>
   </g>
   <g id="patch_8">
    <path d="M 223.344 270.9084 
L 306 270.9084 
Q 311.904 270.9084 311.904 267.3972 
L 311.904 242.8188 
Q 311.904 239.3076 306 239.3076 
L 223.344 239.3076 
Q 217.44 239.3076 217.44 242.8188 
L 217.44 267.3972 
Q 217.44 270.9084 223.344 270.9084 
z
" clip-path="url(#p60933339e2)" style="fill: #ffffff; stroke: #000000; stroke-linejoin: miter"/>
   </g>
   <g id="patch_9">
    <path d="M 311.904 270.9084 
L 394.56 270.9084 
Q 400.464 270.9084 400.464 267.3972 
L 400.464 242.8188 
Q 400.464 239.3076 394.56 239.3076 
L 311.904 239.3076 
Q 306 239.3076 306 242.8188 
L 306 267.3972 
Q 306 270.9084 311.904 270.9084 
z
" clip-path="url(#p60933339e2)" style="fill: #ffffff; stroke: #000000; stroke-linejoin: miter"/>
   </g>
   <g id="patch_10">
    <path d="M 394.56 270.9084 
L 477.216 270.9084 
Q 483.12 270.9084 483.12 267.3972 
L 483.12 242.8188 
Q 483.12 239.3076 477.216 239.3076 
L 394.56 239.3076 
Q 388.656 239.3076 388.656 242.8188 
L 388.656 267.3972 
Q 388.656 270.9084 394.56 270.9084 
z
" clip-path="url(#p60933339e2)" style="fill: #ffffff; stroke: #000000; stroke-linejoin: miter"/>
   </g>
   <g id="patch_11">
    <path d="M 483.12 270.9084 
L 565.776 270.9084 
Q 571.68 270.9084 571.68 267.3972 
L 571.68 242.8188 
Q 571.68 239.3076 565.776 239.3076 
L 483.12 239.3076 
Q 477.216 239.3076 477.216 242.8188 
L 477.216 267.3972 
Q 477.216 270.9084 483.12 270.9084 
z
" clip-path="url(#p60933339e2)" style="fill: #ffffff; stroke: #000000; stroke-linejoin: miter"/>
   </g>
   <g id="patch_12">
    <path d="M 304.201485 62.870604 
Q 223.344197 102.370704 143.692394 141.281905 
" clip-path="url(#p60933339e2)" style="fill: none; stroke: #000000; stroke-width: 1.2; stroke-linecap: round"/>
    <path d="M 148.611534 141.327305 
L 143.692394 141.281905 
L 146.680199 137.373833 
z
" clip-path="url(#p60933339e2)" style="fill: #1f77b4; stroke: #000000; stroke-width: 1.2; stroke-linecap: round"/>
   </g>
   <g id="patch_13">
    <path d="M 306 63.988266 
Q 306 102.36663 306 139.403353 
" clip-path="url(#p60933339e2)" style="fill: none; stroke: #000000; stroke-width: 1.2; stroke-linecap: round"/>
    <path d="M 308.2 135.003353 
L 306 139.403353 
L 303.8 135.003353 
z
" clip-path="url(#p60933339e2)" style="fill: #1f77b4; stroke: #000000; stroke-width: 1.2; stroke-linecap: round"/>
   </g>
   <g id="patch_14">
    <path d="M 307.798515 62.870604 
Q 388.655803 102.370704 468.307606 141.281905 
" clip-path="url(#p60933339e2)" style="fill: none; stroke: #000000; stroke-width: 1.2; stroke-linecap: round"/>
    <path d="M 465.319801 137.373833 
L 468.307606 141.281905 
L 463.388466 141.327305 
z
" clip-path="url(#p60933339e2)" style="fill: #1f77b4; stroke: #000000; stroke-width: 1.2; stroke-linecap: round"/>
   </g>
   <g id="patch_15">
    <path d="M 139.756491 144.522345 
Q 111.167745 198.929286 83.203068 252.148566 
" clip-path="url(#p60933339e2)" style="fill: none; stroke: #000000; stroke-width: 1.2; stroke-linecap: round"/>
    <path d="M 87.197251 249.276894 
L 83.203068 252.148566 
L 83.30224 247.230217 
z
" clip-path="url(#p60933339e2)" style="fill: #1f77b4; stroke: #000000; stroke-width: 1.2; stroke-linecap: round"/>
   </g>
   <g id="patch_16">
    <path d="M 141.462035 144.590923 
Q 164.303253 198.927024 186.624557 252.02632 
" clip-path="url(#p60933339e2)" style="fill: none; stroke: #000000; stroke-width: 1.2; stroke-linecap: round"/>
    <path d="M 186.947555 247.117586 
L 186.624557 252.02632 
L 182.891368 248.822681 
z
" clip-path="url(#p60933339e2)" style="fill: #1f77b4; stroke: #000000; stroke-width: 1.2; stroke-linecap: round"/>
   </g>
   <g id="patch_17">
    <path d="M 305.310107 144.625212 
Q 285.336443 198.927597 265.825928 251.970818 
" clip-path="url(#p60933339e2)" style="fill: none; stroke: #000000; stroke-width: 1.2; stroke-linecap: round"/>
    <path d="M 269.409612 248.600772 
L 265.825928 251.970818 
L 265.280101 247.081843 
z
" clip-path="url(#p60933339e2)" style="fill: #1f77b4; stroke: #000000; stroke-width: 1.2; stroke-linecap: round"/>
   </g>
   <g id="patch_18">
    <path d="M 306.774035 144.590923 
Q 329.615253 198.927024 351.936557 252.02632 
" clip-path="url(#p60933339e2)" style="fill: none; stroke: #000000; stroke-width: 1.2; stroke-linecap: round"/>
    <path d="M 352.259555 247.117586 
L 351.936557 252.02632 
L 348.203368 248.822681 
z
" clip-path="url(#p60933339e2)" style="fill: #1f77b4; stroke: #000000; stroke-width: 1.2; stroke-linecap: round"/>
   </g>
   <g id="patch_19">
    <path d="M 470.709853 144.659501 
Q 453.599133 198.93155 436.891827 251.924046 
" clip-path="url(#p60933339e2)" style="fill: none; stroke: #000000; stroke-width: 1.2; stroke-linecap: round"/>
    <path d="M 440.313039 248.389176 
L 436.891827 251.924046 
L 436.116658 247.066154 
z
" clip-path="url(#p60933339e2)" style="fill: #1f77b4; stroke: #000000; stroke-width: 1.2; stroke-linecap: round"/>
   </g>
   <g id="patch_20">
    <path d="M 472.166574 144.556634 
Q 497.88049 198.929836 523.02083 252.090186 
" clip-path="url(#p60933339e2)" style="fill: none; stroke: #000000; stroke-width: 1.2; stroke-linecap: round"/>
    <path d="M 523.128563 247.172017 
L 523.02083 252.090186 
L 519.150934 249.053098 
z
" clip-path="url(#p60933339e2)" style="fill: #1f77b4; stroke: #000000; stroke-width: 1.2; stroke-linecap: round"/>
   </g>
   <g id="patch_21">
    <path d="M 81.699638 253.109203 
Q 83.861018 184.578664 137.632901 144.985034 
" clip-path="url(#p60933339e2)" style="fill: none; stroke-dasharray: 5.92,2.56; stroke-dashoffset: 0; stroke: #000000; stroke-width: 1.6; stroke-linecap: round"/>
    <path d="M 132.785337 145.822365 
L 137.632901 144.985034 
L 135.394227 149.365484 
z
" clip-path="url(#p60933339e2)" style="fill: #1f77b4; stroke-dasharray: 5.92,2.56; stroke-dashoffset: 0; stroke: #000000; stroke-width: 1.6; stroke-linecap: round"/>
   </g>
   <g id="patch_22">
    <path d="M 186.275716 253.97481 
Q 134.784051 219.046025 84.772782 252.970533 
" clip-path="url(#p60933339e2)" style="fill: none; stroke-dasharray: 5.92,2.56; stroke-dashoffset: 0; stroke: #000000; stroke-width: 1.6; stroke-linecap: round"/>
    <path d="M 89.649082 252.321156 
L 84.772782 252.970533 
L 87.17906 248.679866 
z
" clip-path="url(#p60933339e2)" style="fill: #1f77b4; stroke-dasharray: 5.92,2.56; stroke-dashoffset: 0; stroke: #000000; stroke-width: 1.6; stroke-linecap: round"/>
   </g>
   <g id="text_1">
    <!-- Pluripotent -->
    <g transform="translate(281.325234 64.475437) scale(0.09 -0.09)">
     <defs>
      <path id="DejaVuSans-50" d="M 1259 4147 
L 1259 2394 
L 2053 2394 
Q 2494 2394 2734 2622 
Q 2975 2850 2975 3272 
Q 2975 3691 2734 3919 
Q 2494 4147 2053 4147 
L 1259 4147 
z
M 628 4666 
L 2053 4666 
Q 2838 4666 3239 4311 
Q 3641 3956 3641 3272 
Q 3641 2581 3239 2228 
Q 2838 1875 2053 1875 
L 1259 1875 
L 1259 0 
L 628 0 
L 628 4666 
z
" transform="scale(0.015625)"/>
      <path id="DejaVuSans-6c" d="M 603 4863 
L 1178 4863 
L 1178 0 
L 603 0 
L 603 4863 
z
" transform="scale(0.015625)"/>
      <path id="DejaVuSans-75" d="M 544 1381 
L 544 3500 
L 1119 3500 
L 1119 1403 
Q 1119 906 1312 657 
Q 1506 409 1894 409 
Q 2359 409 2629 706 
Q 2900 1003 2900 1516 
L 2900 3500 
L 3475 3500 
L 3475 0 
L 2900 0 
L 2900 538 
Q 2691 219 2414 64 
Q 2138 -91 1772 -91 
Q 1169 -91 856 284 
Q 544 659 544 1381 
z
M 1991 3584 
L 1991 3584 
z
" transform="scale(0.015625)"/>
      <path id="DejaVuSans-72" d="M 2631 2963 
Q 2534 3019 2420 3045 
Q 2306 3072 2169 3072 
Q 1681 3072 1420 2755 
Q 1159 2438 1159 1844 
L 1159 0 
L 581 0 
L 581 3500 
L 1159 3500 
L 1159 2956 
Q 1341 3275 1631 3429 
Q 1922 3584 2338 3584 
Q 2397 3584 2469 3576 
Q 2541 3569 2628 3553 
L 2631 2963 
z
" transform="scale(0.015625)"/>
      <path id="DejaVuSans-69" d="M 603 3500 
L 1178 3500 
L 1178 0 
L 603 0 
L 603 3500 
z
M 603 4863 
L 1178 4863 
L 1178 4134 
L 603 4134 
L 603 4863 
z
" transform="scale(0.015625)"/>
      <path id="DejaVuSans-70" d="M 1159 525 
L 1159 -1331 
L 581 -1331 
L 581 3500 
L 1159 3500 
L 1159 2969 
Q 1341 3281 1617 3432 
Q 1894 3584 2278 3584 
Q 2916 3584 3314 3078 
Q 3713 2572 3713 1747 
Q 3713 922 3314 415 
Q 2916 -91 2278 -91 
Q 1894 -91 1617 61 
Q 1341 213 1159 525 
z
M 3116 1747 
Q 3116 2381 2855 2742 
Q 2594 3103 2138 3103 
Q 1681 3103 1420 2742 
Q 1159 2381 1159 1747 
Q 1159 1113 1420 752 
Q 1681 391 2138 391 
Q 2594 391 2855 752 
Q 3116 1113 3116 1747 
z
" transform="scale(0.015625)"/>
      <path id="DejaVuSans-6f" d="M 1959 3097 
Q 1497 3097 1228 2736 
Q 959 2375 959 1747 
Q 959 1119 1226 758 
Q 1494 397 1959 397 
Q 2419 397 2687 759 
Q 2956 1122 2956 1747 
Q 2956 2369 2687 2733 
Q 2419 3097 1959 3097 
z
M 1959 3584 
Q 2709 3584 3137 3096 
Q 3566 2609 3566 1747 
Q 3566 888 3137 398 
Q 2709 -91 1959 -91 
Q 1206 -91 779 398 
Q 353 888 353 1747 
Q 353 2609 779 3096 
Q 1206 3584 1959 3584 
z
" transform="scale(0.015625)"/>
      <path id="DejaVuSans-74" d="M 1172 4494 
L 1172 3500 
L 2356 3500 
L 2356 3053 
L 1172 3053 
L 1172 1153 
Q 1172 725 1289 603 
Q 1406 481 1766 481 
L 2356 481 
L 2356 0 
L 1766 0 
Q 1100 0 847 248 
Q 594 497 594 1153 
L 594 3053 
L 172 3053 
L 172 3500 
L 594 3500 
L 594 4494 
L 1172 4494 
z
" transform="scale(0.015625)"/>
      <path id="DejaVuSans-65" d="M 3597 1894 
L 3597 1613 
L 953 1613 
Q 991 1019 1311 708 
Q 1631 397 2203 397 
Q 2534 397 2845 478 
Q 3156 559 3463 722 
L 3463 178 
Q 3153 47 2828 -22 
Q 2503 -91 2169 -91 
Q 1331 -91 842 396 
Q 353 884 353 1716 
Q 353 2575 817 3079 
Q 1281 3584 2069 3584 
Q 2775 3584 3186 3129 
Q 3597 2675 3597 1894 
z
M 3022 2063 
Q 3016 2534 2758 2815 
Q 2500 3097 2075 3097 
Q 1594 3097 1305 2825 
Q 1016 2553 972 2059 
L 3022 2063 
z
" transform="scale(0.015625)"/>
      <path id="DejaVuSans-6e" d="M 3513 2113 
L 3513 0 
L 2938 0 
L 2938 2094 
Q 2938 2591 2744 2837 
Q 2550 3084 2163 3084 
Q 1697 3084 1428 2787 
Q 1159 2491 1159 1978 
L 1159 0 
L 581 0 
L 581 3500 
L 1159 3500 
L 1159 2956 
Q 1366 3272 1645 3428 
Q 1925 3584 2291 3584 
Q 2894 3584 3203 3211 
Q 3513 2838 3513 2113 
z
" transform="scale(0.015625)"/>
     </defs>
     <use xlink:href="#DejaVuSans-50"/>
     <use xlink:href="#DejaVuSans-6c" transform="translate(60.302734 0)"/>
     <use xlink:href="#DejaVuSans-75" transform="translate(88.085938 0)"/>
     <use xlink:href="#DejaVuSans-72" transform="translate(151.464844 0)"/>
     <use xlink:href="#DejaVuSans-69" transform="translate(192.578125 0)"/>
     <use xlink:href="#DejaVuSans-70" transform="translate(220.361328 0)"/>
     <use xlink:href="#DejaVuSans-6f" transform="translate(283.837891 0)"/>
     <use xlink:href="#DejaVuSans-74" transform="translate(345.019531 0)"/>
     <use xlink:href="#DejaVuSans-65" transform="translate(384.228516 0)"/>
     <use xlink:href="#DejaVuSans-6e" transform="translate(445.751953 0)"/>
     <use xlink:href="#DejaVuSans-74" transform="translate(509.130859 0)"/>
    </g>
   </g>
   <g id="text_2">
    <!-- Ectoderm -->
    <g transform="translate(119.072531 145.233037) scale(0.09 -0.09)">
     <defs>
      <path id="DejaVuSans-45" d="M 628 4666 
L 3578 4666 
L 3578 4134 
L 1259 4134 
L 1259 2753 
L 3481 2753 
L 3481 2222 
L 1259 2222 
L 1259 531 
L 3634 531 
L 3634 0 
L 628 0 
L 628 4666 
z
" transform="scale(0.015625)"/>
      <path id="DejaVuSans-63" d="M 3122 3366 
L 3122 2828 
Q 2878 2963 2633 3030 
Q 2388 3097 2138 3097 
Q 1578 3097 1268 2742 
Q 959 2388 959 1747 
Q 959 1106 1268 751 
Q 1578 397 2138 397 
Q 2388 397 2633 464 
Q 2878 531 3122 666 
L 3122 134 
Q 2881 22 2623 -34 
Q 2366 -91 2075 -91 
Q 1284 -91 818 406 
Q 353 903 353 1747 
Q 353 2603 823 3093 
Q 1294 3584 2113 3584 
Q 2378 3584 2631 3529 
Q 2884 3475 3122 3366 
z
" transform="scale(0.015625)"/>
      <path id="DejaVuSans-64" d="M 2906 2969 
L 2906 4863 
L 3481 4863 
L 3481 0 
L 2906 0 
L 2906 525 
Q 2725 213 2448 61 
Q 2172 -91 1784 -91 
Q 1150 -91 751 415 
Q 353 922 353 1747 
Q 353 2572 751 3078 
Q 1150 3584 1784 3584 
Q 2172 3584 2448 3432 
Q 2725 3281 2906 2969 
z
M 947 1747 
Q 947 1113 1208 752 
Q 1469 391 1925 391 
Q 2381 391 2643 752 
Q 2906 1113 2906 1747 
Q 2906 2381 2643 2742 
Q 2381 3103 1925 3103 
Q 1469 3103 1208 2742 
Q 947 2381 947 1747 
z
" transform="scale(0.015625)"/>
      <path id="DejaVuSans-6d" d="M 3328 2828 
Q 3544 3216 3844 3400 
Q 4144 3584 4550 3584 
Q 5097 3584 5394 3201 
Q 5691 2819 5691 2113 
L 5691 0 
L 5113 0 
L 5113 2094 
Q 5113 2597 4934 2840 
Q 4756 3084 4391 3084 
Q 3944 3084 3684 2787 
Q 3425 2491 3425 1978 
L 3425 0 
L 2847 0 
L 2847 2094 
Q 2847 2600 2669 2842 
Q 2491 3084 2119 3084 
Q 1678 3084 1418 2786 
Q 1159 2488 1159 1978 
L 1159 0 
L 581 0 
L 581 3500 
L 1159 3500 
L 1159 2956 
Q 1356 3278 1631 3431 
Q 1906 3584 2284 3584 
Q 2666 3584 2933 3390 
Q 3200 3197 3328 2828 
z
" transform="scale(0.015625)"/>
     </defs>
     <use xlink:href="#DejaVuSans-45"/>
     <use xlink:href="#DejaVuSans-63" transform="translate(63.183594 0)"/>
     <use xlink:href="#DejaVuSans-74" transform="translate(118.164062 0)"/>
     <use xlink:href="#DejaVuSans-6f" transform="translate(157.373047 0)"/>
     <use xlink:href="#DejaVuSans-64" transform="translate(218.554688 0)"/>
     <use xlink:href="#DejaVuSans-65" transform="translate(282.03125 0)"/>
     <use xlink:href="#DejaVuSans-72" transform="translate(343.554688 0)"/>
     <use xlink:href="#DejaVuSans-6d" transform="translate(382.917969 0)"/>
    </g>
   </g>
   <g id="text_3">
    <!-- Mesoderm -->
    <g transform="translate(282.470625 145.233037) scale(0.09 -0.09)">
     <defs>
      <path id="DejaVuSans-4d" d="M 628 4666 
L 1569 4666 
L 2759 1491 
L 3956 4666 
L 4897 4666 
L 4897 0 
L 4281 0 
L 4281 4097 
L 3078 897 
L 2444 897 
L 1241 4097 
L 1241 0 
L 628 0 
L 628 4666 
z
" transform="scale(0.015625)"/>
      <path id="DejaVuSans-73" d="M 2834 3397 
L 2834 2853 
Q 2591 2978 2328 3040 
Q 2066 3103 1784 3103 
Q 1356 3103 1142 2972 
Q 928 2841 928 2578 
Q 928 2378 1081 2264 
Q 1234 2150 1697 2047 
L 1894 2003 
Q 2506 1872 2764 1633 
Q 3022 1394 3022 966 
Q 3022 478 2636 193 
Q 2250 -91 1575 -91 
Q 1294 -91 989 -36 
Q 684 19 347 128 
L 347 722 
Q 666 556 975 473 
Q 1284 391 1588 391 
Q 1994 391 2212 530 
Q 2431 669 2431 922 
Q 2431 1156 2273 1281 
Q 2116 1406 1581 1522 
L 1381 1569 
Q 847 1681 609 1914 
Q 372 2147 372 2553 
Q 372 3047 722 3315 
Q 1072 3584 1716 3584 
Q 2034 3584 2315 3537 
Q 2597 3491 2834 3397 
z
" transform="scale(0.015625)"/>
     </defs>
     <use xlink:href="#DejaVuSans-4d"/>
     <use xlink:href="#DejaVuSans-65" transform="translate(86.279297 0)"/>
     <use xlink:href="#DejaVuSans-73" transform="translate(147.802734 0)"/>
     <use xlink:href="#DejaVuSans-6f" transform="translate(199.902344 0)"/>
     <use xlink:href="#DejaVuSans-64" transform="translate(261.083984 0)"/>
     <use xlink:href="#DejaVuSans-65" transform="translate(324.560547 0)"/>
     <use xlink:href="#DejaVuSans-72" transform="translate(386.083984 0)"/>
     <use xlink:href="#DejaVuSans-6d" transform="translate(425.447266 0)"/>
    </g>
   </g>
   <g id="text_4">
    <!-- Endoderm -->
    <g transform="translate(448.226297 145.233037) scale(0.09 -0.09)">
     <use xlink:href="#DejaVuSans-45"/>
     <use xlink:href="#DejaVuSans-6e" transform="translate(63.183594 0)"/>
     <use xlink:href="#DejaVuSans-64" transform="translate(126.5625 0)"/>
     <use xlink:href="#DejaVuSans-6f" transform="translate(190.039062 0)"/>
     <use xlink:href="#DejaVuSans-64" transform="translate(251.220703 0)"/>
     <use xlink:href="#DejaVuSans-65" transform="translate(314.697266 0)"/>
     <use xlink:href="#DejaVuSans-72" transform="translate(376.220703 0)"/>
     <use xlink:href="#DejaVuSans-6d" transform="translate(415.583984 0)"/>
    </g>
   </g>
   <g id="text_5">
    <!-- Neuron -->
    <g transform="translate(65.306672 257.591437) scale(0.09 -0.09)">
     <defs>
      <path id="DejaVuSans-4e" d="M 628 4666 
L 1478 4666 
L 3547 763 
L 3547 4666 
L 4159 4666 
L 4159 0 
L 3309 0 
L 1241 3903 
L 1241 0 
L 628 0 
L 628 4666 
z
" transform="scale(0.015625)"/>
     </defs>
     <use xlink:href="#DejaVuSans-4e"/>
     <use xlink:href="#DejaVuSans-65" transform="translate(74.804688 0)"/>
     <use xlink:href="#DejaVuSans-75" transform="translate(136.328125 0)"/>
     <use xlink:href="#DejaVuSans-72" transform="translate(199.707031 0)"/>
     <use xlink:href="#DejaVuSans-6f" transform="translate(238.570312 0)"/>
     <use xlink:href="#DejaVuSans-6e" transform="translate(299.751953 0)"/>
    </g>
   </g>
   <g id="text_6">
    <!-- Skin -->
    <g transform="translate(178.355391 257.591437) scale(0.09 -0.09)">
     <defs>
      <path id="DejaVuSans-53" d="M 3425 4513 
L 3425 3897 
Q 3066 4069 2747 4153 
Q 2428 4238 2131 4238 
Q 1616 4238 1336 4038 
Q 1056 3838 1056 3469 
Q 1056 3159 1242 3001 
Q 1428 2844 1947 2747 
L 2328 2669 
Q 3034 2534 3370 2195 
Q 3706 1856 3706 1288 
Q 3706 609 3251 259 
Q 2797 -91 1919 -91 
Q 1588 -91 1214 -16 
Q 841 59 441 206 
L 441 856 
Q 825 641 1194 531 
Q 1563 422 1919 422 
Q 2459 422 2753 634 
Q 3047 847 3047 1241 
Q 3047 1584 2836 1778 
Q 2625 1972 2144 2069 
L 1759 2144 
Q 1053 2284 737 2584 
Q 422 2884 422 3419 
Q 422 4038 858 4394 
Q 1294 4750 2059 4750 
Q 2388 4750 2728 4690 
Q 3069 4631 3425 4513 
z
" transform="scale(0.015625)"/>
      <path id="DejaVuSans-6b" d="M 581 4863 
L 1159 4863 
L 1159 1991 
L 2875 3500 
L 3609 3500 
L 1753 1863 
L 3688 0 
L 2938 0 
L 1159 1709 
L 1159 0 
L 581 0 
L 581 4863 
z
" transform="scale(0.015625)"/>
     </defs>
     <use xlink:href="#DejaVuSans-53"/>
     <use xlink:href="#DejaVuSans-6b" transform="translate(63.476562 0)"/>
     <use xlink:href="#DejaVuSans-69" transform="translate(121.386719 0)"/>
     <use xlink:href="#DejaVuSans-6e" transform="translate(149.169922 0)"/>
    </g>
   </g>
   <g id="text_7">
    <!-- Muscle -->
    <g transform="translate(249.099891 257.591437) scale(0.09 -0.09)">
     <use xlink:href="#DejaVuSans-4d"/>
     <use xlink:href="#DejaVuSans-75" transform="translate(86.279297 0)"/>
     <use xlink:href="#DejaVuSans-73" transform="translate(149.658203 0)"/>
     <use xlink:href="#DejaVuSans-63" transform="translate(201.757812 0)"/>
     <use xlink:href="#DejaVuSans-6c" transform="translate(256.738281 0)"/>
     <use xlink:href="#DejaVuSans-65" transform="translate(284.521484 0)"/>
    </g>
   </g>
   <g id="text_8">
    <!-- Bone -->
    <g transform="translate(341.770359 257.591437) scale(0.09 -0.09)">
     <defs>
      <path id="DejaVuSans-42" d="M 1259 2228 
L 1259 519 
L 2272 519 
Q 2781 519 3026 730 
Q 3272 941 3272 1375 
Q 3272 1813 3026 2020 
Q 2781 2228 2272 2228 
L 1259 2228 
z
M 1259 4147 
L 1259 2741 
L 2194 2741 
Q 2656 2741 2882 2914 
Q 3109 3088 3109 3444 
Q 3109 3797 2882 3972 
Q 2656 4147 2194 4147 
L 1259 4147 
z
M 628 4666 
L 2241 4666 
Q 2963 4666 3353 4366 
Q 3744 4066 3744 3513 
Q 3744 3084 3544 2831 
Q 3344 2578 2956 2516 
Q 3422 2416 3680 2098 
Q 3938 1781 3938 1306 
Q 3938 681 3513 340 
Q 3088 0 2303 0 
L 628 0 
L 628 4666 
z
" transform="scale(0.015625)"/>
     </defs>
     <use xlink:href="#DejaVuSans-42"/>
     <use xlink:href="#DejaVuSans-6f" transform="translate(68.603516 0)"/>
     <use xlink:href="#DejaVuSans-6e" transform="translate(129.785156 0)"/>
     <use xlink:href="#DejaVuSans-65" transform="translate(193.164062 0)"/>
    </g>
   </g>
   <g id="text_9">
    <!-- Liver -->
    <g transform="translate(424.848234 257.591437) scale(0.09 -0.09)">
     <defs>
      <path id="DejaVuSans-4c" d="M 628 4666 
L 1259 4666 
L 1259 531 
L 3531 531 
L 3531 0 
L 628 0 
L 628 4666 
z
" transform="scale(0.015625)"/>
      <path id="DejaVuSans-76" d="M 191 3500 
L 800 3500 
L 1894 563 
L 2988 3500 
L 3597 3500 
L 2284 0 
L 1503 0 
L 191 3500 
z
" transform="scale(0.015625)"/>
     </defs>
     <use xlink:href="#DejaVuSans-4c"/>
     <use xlink:href="#DejaVuSans-69" transform="translate(55.712891 0)"/>
     <use xlink:href="#DejaVuSans-76" transform="translate(83.496094 0)"/>
     <use xlink:href="#DejaVuSans-65" transform="translate(142.675781 0)"/>
     <use xlink:href="#DejaVuSans-72" transform="translate(204.199219 0)"/>
    </g>
   </g>
   <g id="text_10">
    <!-- Gut -->
    <g transform="translate(516.345187 257.591437) scale(0.09 -0.09)">
     <defs>
      <path id="DejaVuSans-47" d="M 3809 666 
L 3809 1919 
L 2778 1919 
L 2778 2438 
L 4434 2438 
L 4434 434 
Q 4069 175 3628 42 
Q 3188 -91 2688 -91 
Q 1594 -91 976 548 
Q 359 1188 359 2328 
Q 359 3472 976 4111 
Q 1594 4750 2688 4750 
Q 3144 4750 3555 4637 
Q 3966 4525 4313 4306 
L 4313 3634 
Q 3963 3931 3569 4081 
Q 3175 4231 2741 4231 
Q 1884 4231 1454 3753 
Q 1025 3275 1025 2328 
Q 1025 1384 1454 906 
Q 1884 428 2741 428 
Q 3075 428 3337 486 
Q 3600 544 3809 666 
z
" transform="scale(0.015625)"/>
     </defs>
     <use xlink:href="#DejaVuSans-47"/>
     <use xlink:href="#DejaVuSans-75" transform="translate(77.490234 0)"/>
     <use xlink:href="#DejaVuSans-74" transform="translate(140.869141 0)"/>
    </g>
   </g>
   <g id="text_11">
    <!-- solid: normal differentiation    dashed: experimentally possible backward/lateral transitions -->
    <g transform="translate(100.5525 335.8656) scale(0.09 -0.09)">
     <defs>
      <path id="DejaVuSans-3a" d="M 750 794 
L 1409 794 
L 1409 0 
L 750 0 
L 750 794 
z
M 750 3309 
L 1409 3309 
L 1409 2516 
L 750 2516 
L 750 3309 
z
" transform="scale(0.015625)"/>
      <path id="DejaVuSans-20" transform="scale(0.015625)"/>
      <path id="DejaVuSans-61" d="M 2194 1759 
Q 1497 1759 1228 1600 
Q 959 1441 959 1056 
Q 959 750 1161 570 
Q 1363 391 1709 391 
Q 2188 391 2477 730 
Q 2766 1069 2766 1631 
L 2766 1759 
L 2194 1759 
z
M 3341 1997 
L 3341 0 
L 2766 0 
L 2766 531 
Q 2569 213 2275 61 
Q 1981 -91 1556 -91 
Q 1019 -91 701 211 
Q 384 513 384 1019 
Q 384 1609 779 1909 
Q 1175 2209 1959 2209 
L 2766 2209 
L 2766 2266 
Q 2766 2663 2505 2880 
Q 2244 3097 1772 3097 
Q 1472 3097 1187 3025 
Q 903 2953 641 2809 
L 641 3341 
Q 956 3463 1253 3523 
Q 1550 3584 1831 3584 
Q 2591 3584 2966 3190 
Q 3341 2797 3341 1997 
z
" transform="scale(0.015625)"/>
      <path id="DejaVuSans-66" d="M 2375 4863 
L 2375 4384 
L 1825 4384 
Q 1516 4384 1395 4259 
Q 1275 4134 1275 3809 
L 1275 3500 
L 2222 3500 
L 2222 3053 
L 1275 3053 
L 1275 0 
L 697 0 
L 697 3053 
L 147 3053 
L 147 3500 
L 697 3500 
L 697 3744 
Q 697 4328 969 4595 
Q 1241 4863 1831 4863 
L 2375 4863 
z
" transform="scale(0.015625)"/>
      <path id="DejaVuSans-68" d="M 3513 2113 
L 3513 0 
L 2938 0 
L 2938 2094 
Q 2938 2591 2744 2837 
Q 2550 3084 2163 3084 
Q 1697 3084 1428 2787 
Q 1159 2491 1159 1978 
L 1159 0 
L 581 0 
L 581 4863 
L 1159 4863 
L 1159 2956 
Q 1366 3272 1645 3428 
Q 1925 3584 2291 3584 
Q 2894 3584 3203 3211 
Q 3513 2838 3513 2113 
z
" transform="scale(0.015625)"/>
      <path id="DejaVuSans-78" d="M 3513 3500 
L 2247 1797 
L 3578 0 
L 2900 0 
L 1881 1375 
L 863 0 
L 184 0 
L 1544 1831 
L 300 3500 
L 978 3500 
L 1906 2253 
L 2834 3500 
L 3513 3500 
z
" transform="scale(0.015625)"/>
      <path id="DejaVuSans-79" d="M 2059 -325 
Q 1816 -950 1584 -1140 
Q 1353 -1331 966 -1331 
L 506 -1331 
L 506 -850 
L 844 -850 
Q 1081 -850 1212 -737 
Q 1344 -625 1503 -206 
L 1606 56 
L 191 3500 
L 800 3500 
L 1894 763 
L 2988 3500 
L 3597 3500 
L 2059 -325 
z
" transform="scale(0.015625)"/>
      <path id="DejaVuSans-62" d="M 3116 1747 
Q 3116 2381 2855 2742 
Q 2594 3103 2138 3103 
Q 1681 3103 1420 2742 
Q 1159 2381 1159 1747 
Q 1159 1113 1420 752 
Q 1681 391 2138 391 
Q 2594 391 2855 752 
Q 3116 1113 3116 1747 
z
M 1159 2969 
Q 1341 3281 1617 3432 
Q 1894 3584 2278 3584 
Q 2916 3584 3314 3078 
Q 3713 2572 3713 1747 
Q 3713 922 3314 415 
Q 2916 -91 2278 -91 
Q 1894 -91 1617 61 
Q 1341 213 1159 525 
L 1159 0 
L 581 0 
L 581 4863 
L 1159 4863 
L 1159 2969 
z
" transform="scale(0.015625)"/>
      <path id="DejaVuSans-77" d="M 269 3500 
L 844 3500 
L 1563 769 
L 2278 3500 
L 2956 3500 
L 3675 769 
L 4391 3500 
L 4966 3500 
L 4050 0 
L 3372 0 
L 2619 2869 
L 1863 0 
L 1184 0 
L 269 3500 
z
" transform="scale(0.015625)"/>
      <path id="DejaVuSans-2f" d="M 1625 4666 
L 2156 4666 
L 531 -594 
L 0 -594 
L 1625 4666 
z
" transform="scale(0.015625)"/>
     </defs>
     <use xlink:href="#DejaVuSans-73"/>
     <use xlink:href="#DejaVuSans-6f" transform="translate(52.099609 0)"/>
     <use xlink:href="#DejaVuSans-6c" transform="translate(113.28125 0)"/>
     <use xlink:href="#DejaVuSans-69" transform="translate(141.064453 0)"/>
     <use xlink:href="#DejaVuSans-64" transform="translate(168.847656 0)"/>
     <use xlink:href="#DejaVuSans-3a" transform="translate(232.324219 0)"/>
     <use xlink:href="#DejaVuSans-20" transform="translate(266.015625 0)"/>
     <use xlink:href="#DejaVuSans-6e" transform="translate(297.802734 0)"/>
     <use xlink:href="#DejaVuSans-6f" transform="translate(361.181641 0)"/>
     <use xlink:href="#DejaVuSans-72" transform="translate(422.363281 0)"/>
     <use xlink:href="#DejaVuSans-6d" transform="translate(461.726562 0)"/>
     <use xlink:href="#DejaVuSans-61" transform="translate(559.138672 0)"/>
     <use xlink:href="#DejaVuSans-6c" transform="translate(620.417969 0)"/>
     <use xlink:href="#DejaVuSans-20" transform="translate(648.201172 0)"/>
     <use xlink:href="#DejaVuSans-64" transform="translate(679.988281 0)"/>
     <use xlink:href="#DejaVuSans-69" transform="translate(743.464844 0)"/>
     <use xlink:href="#DejaVuSans-66" transform="translate(771.248047 0)"/>
     <use xlink:href="#DejaVuSans-66" transform="translate(806.453125 0)"/>
     <use xlink:href="#DejaVuSans-65" transform="translate(841.658203 0)"/>
     <use xlink:href="#DejaVuSans-72" transform="translate(903.181641 0)"/>
     <use xlink:href="#DejaVuSans-65" transform="translate(942.044922 0)"/>
     <use xlink:href="#DejaVuSans-6e" transform="translate(1003.568359 0)"/>
     <use xlink:href="#DejaVuSans-74" transform="translate(1066.947266 0)"/>
     <use xlink:href="#DejaVuSans-69" transform="translate(1106.15625 0)"/>
     <use xlink:href="#DejaVuSans-61" transform="translate(1133.939453 0)"/>
     <use xlink:href="#DejaVuSans-74" transform="translate(1195.21875 0)"/>
     <use xlink:href="#DejaVuSans-69" transform="translate(1234.427734 0)"/>
     <use xlink:href="#DejaVuSans-6f" transform="translate(1262.210938 0)"/>
     <use xlink:href="#DejaVuSans-6e" transform="translate(1323.392578 0)"/>
     <use xlink:href="#DejaVuSans-20" transform="translate(1386.771484 0)"/>
     <use xlink:href="#DejaVuSans-20" transform="translate(1418.558594 0)"/>
     <use xlink:href="#DejaVuSans-20" transform="translate(1450.345703 0)"/>
     <use xlink:href="#DejaVuSans-20" transform="translate(1482.132812 0)"/>
     <use xlink:href="#DejaVuSans-64" transform="translate(1513.919922 0)"/>
     <use xlink:href="#DejaVuSans-61" transform="translate(1577.396484 0)"/>
     <use xlink:href="#DejaVuSans-73" transform="translate(1638.675781 0)"/>
     <use xlink:href="#DejaVuSans-68" transform="translate(1690.775391 0)"/>
     <use xlink:href="#DejaVuSans-65" transform="translate(1754.154297 0)"/>
     <use xlink:href="#DejaVuSans-64" transform="translate(1815.677734 0)"/>
     <use xlink:href="#DejaVuSans-3a" transform="translate(1879.154297 0)"/>
     <use xlink:href="#DejaVuSans-20" transform="translate(1912.845703 0)"/>
     <use xlink:href="#DejaVuSans-65" transform="translate(1944.632812 0)"/>
     <use xlink:href="#DejaVuSans-78" transform="translate(2004.40625 0)"/>
     <use xlink:href="#DejaVuSans-70" transform="translate(2063.585938 0)"/>
     <use xlink:href="#DejaVuSans-65" transform="translate(2127.0625 0)"/>
     <use xlink:href="#DejaVuSans-72" transform="translate(2188.585938 0)"/>
     <use xlink:href="#DejaVuSans-69" transform="translate(2229.699219 0)"/>
     <use xlink:href="#DejaVuSans-6d" transform="translate(2257.482422 0)"/>
     <use xlink:href="#DejaVuSans-65" transform="translate(2354.894531 0)"/>
     <use xlink:href="#DejaVuSans-6e" transform="translate(2416.417969 0)"/>
     <use xlink:href="#DejaVuSans-74" transform="translate(2479.796875 0)"/>
     <use xlink:href="#DejaVuSans-61" transform="translate(2519.005859 0)"/>
     <use xlink:href="#DejaVuSans-6c" transform="translate(2580.285156 0)"/>
     <use xlink:href="#DejaVuSans-6c" transform="translate(2608.068359 0)"/>
     <use xlink:href="#DejaVuSans-79" transform="translate(2635.851562 0)"/>
     <use xlink:href="#DejaVuSans-20" transform="translate(2695.03125 0)"/>
     <use xlink:href="#DejaVuSans-70" transform="translate(2726.818359 0)"/>
     <use xlink:href="#DejaVuSans-6f" transform="translate(2790.294922 0)"/>
     <use xlink:href="#DejaVuSans-73" transform="translate(2851.476562 0)"/>
     <use xlink:href="#DejaVuSans-73" transform="translate(2903.576172 0)"/>
     <use xlink:href="#DejaVuSans-69" transform="translate(2955.675781 0)"/>
     <use xlink:href="#DejaVuSans-62" transform="translate(2983.458984 0)"/>
     <use xlink:href="#DejaVuSans-6c" transform="translate(3046.935547 0)"/>
     <use xlink:href="#DejaVuSans-65" transform="translate(3074.71875 0)"/>
     <use xlink:href="#DejaVuSans-20" transform="translate(3136.242188 0)"/>
     <use xlink:href="#DejaVuSans-62" transform="translate(3168.029297 0)"/>
     <use xlink:href="#DejaVuSans-61" transform="translate(3231.505859 0)"/>
     <use xlink:href="#DejaVuSans-63" transform="translate(3292.785156 0)"/>
     <use xlink:href="#DejaVuSans-6b" transform="translate(3347.765625 0)"/>
     <use xlink:href="#DejaVuSans-77" transform="translate(3405.675781 0)"/>
     <use xlink:href="#DejaVuSans-61" transform="translate(3487.462891 0)"/>
     <use xlink:href="#DejaVuSans-72" transform="translate(3548.742188 0)"/>
     <use xlink:href="#DejaVuSans-64" transform="translate(3588.105469 0)"/>
     <use xlink:href="#DejaVuSans-2f" transform="translate(3651.582031 0)"/>
     <use xlink:href="#DejaVuSans-6c" transform="translate(3685.273438 0)"/>
     <use xlink:href="#DejaVuSans-61" transform="translate(3713.056641 0)"/>
     <use xlink:href="#DejaVuSans-74" transform="translate(3774.335938 0)"/>
     <use xlink:href="#DejaVuSans-65" transform="translate(3813.544922 0)"/>
     <use xlink:href="#DejaVuSans-72" transform="translate(3875.068359 0)"/>
     <use xlink:href="#DejaVuSans-61" transform="translate(3916.181641 0)"/>
     <use xlink:href="#DejaVuSans-6c" transform="translate(3977.460938 0)"/>
     <use xlink:href="#DejaVuSans-20" transform="translate(4005.244141 0)"/>
     <use xlink:href="#DejaVuSans-74" transform="translate(4037.03125 0)"/>
     <use xlink:href="#DejaVuSans-72" transform="translate(4076.240234 0)"/>
     <use xlink:href="#DejaVuSans-61" transform="translate(4117.353516 0)"/>
     <use xlink:href="#DejaVuSans-6e" transform="translate(4178.632812 0)"/>
     <use xlink:href="#DejaVuSans-73" transform="translate(4242.011719 0)"/>
     <use xlink:href="#DejaVuSans-69" transform="translate(4294.111328 0)"/>
     <use xlink:href="#DejaVuSans-74" transform="translate(4321.894531 0)"/>
     <use xlink:href="#DejaVuSans-69" transform="translate(4361.103516 0)"/>
     <use xlink:href="#DejaVuSans-6f" transform="translate(4388.886719 0)"/>
     <use xlink:href="#DejaVuSans-6e" transform="translate(4450.068359 0)"/>
     <use xlink:href="#DejaVuSans-73" transform="translate(4513.447266 0)"/>
    </g>
   </g>
   <g id="text_12">
    <!-- Cell lineage as a constrained but partly revisable state space -->
    <g transform="translate(122.273438 20.88) scale(0.12 -0.12)">
     <defs>
      <path id="DejaVuSans-43" d="M 4122 4306 
L 4122 3641 
Q 3803 3938 3442 4084 
Q 3081 4231 2675 4231 
Q 1875 4231 1450 3742 
Q 1025 3253 1025 2328 
Q 1025 1406 1450 917 
Q 1875 428 2675 428 
Q 3081 428 3442 575 
Q 3803 722 4122 1019 
L 4122 359 
Q 3791 134 3420 21 
Q 3050 -91 2638 -91 
Q 1578 -91 968 557 
Q 359 1206 359 2328 
Q 359 3453 968 4101 
Q 1578 4750 2638 4750 
Q 3056 4750 3426 4639 
Q 3797 4528 4122 4306 
z
" transform="scale(0.015625)"/>
      <path id="DejaVuSans-67" d="M 2906 1791 
Q 2906 2416 2648 2759 
Q 2391 3103 1925 3103 
Q 1463 3103 1205 2759 
Q 947 2416 947 1791 
Q 947 1169 1205 825 
Q 1463 481 1925 481 
Q 2391 481 2648 825 
Q 2906 1169 2906 1791 
z
M 3481 434 
Q 3481 -459 3084 -895 
Q 2688 -1331 1869 -1331 
Q 1566 -1331 1297 -1286 
Q 1028 -1241 775 -1147 
L 775 -588 
Q 1028 -725 1275 -790 
Q 1522 -856 1778 -856 
Q 2344 -856 2625 -561 
Q 2906 -266 2906 331 
L 2906 616 
Q 2728 306 2450 153 
Q 2172 0 1784 0 
Q 1141 0 747 490 
Q 353 981 353 1791 
Q 353 2603 747 3093 
Q 1141 3584 1784 3584 
Q 2172 3584 2450 3431 
Q 2728 3278 2906 2969 
L 2906 3500 
L 3481 3500 
L 3481 434 
z
" transform="scale(0.015625)"/>
     </defs>
     <use xlink:href="#DejaVuSans-43"/>
     <use xlink:href="#DejaVuSans-65" transform="translate(69.824219 0)"/>
     <use xlink:href="#DejaVuSans-6c" transform="translate(131.347656 0)"/>
     <use xlink:href="#DejaVuSans-6c" transform="translate(159.130859 0)"/>
     <use xlink:href="#DejaVuSans-20" transform="translate(186.914062 0)"/>
     <use xlink:href="#DejaVuSans-6c" transform="translate(218.701172 0)"/>
     <use xlink:href="#DejaVuSans-69" transform="translate(246.484375 0)"/>
     <use xlink:href="#DejaVuSans-6e" transform="translate(274.267578 0)"/>
     <use xlink:href="#DejaVuSans-65" transform="translate(337.646484 0)"/>
     <use xlink:href="#DejaVuSans-61" transform="translate(399.169922 0)"/>
     <use xlink:href="#DejaVuSans-67" transform="translate(460.449219 0)"/>
     <use xlink:href="#DejaVuSans-65" transform="translate(523.925781 0)"/>
     <use xlink:href="#DejaVuSans-20" transform="translate(585.449219 0)"/>
     <use xlink:href="#DejaVuSans-61" transform="translate(617.236328 0)"/>
     <use xlink:href="#DejaVuSans-73" transform="translate(678.515625 0)"/>
     <use xlink:href="#DejaVuSans-20" transform="translate(730.615234 0)"/>
     <use xlink:href="#DejaVuSans-61" transform="translate(762.402344 0)"/>
     <use xlink:href="#DejaVuSans-20" transform="translate(823.681641 0)"/>
     <use xlink:href="#DejaVuSans-63" transform="translate(855.46875 0)"/>
     <use xlink:href="#DejaVuSans-6f" transform="translate(910.449219 0)"/>
     <use xlink:href="#DejaVuSans-6e" transform="translate(971.630859 0)"/>
     <use xlink:href="#DejaVuSans-73" transform="translate(1035.009766 0)"/>
     <use xlink:href="#DejaVuSans-74" transform="translate(1087.109375 0)"/>
     <use xlink:href="#DejaVuSans-72" transform="translate(1126.318359 0)"/>
     <use xlink:href="#DejaVuSans-61" transform="translate(1167.431641 0)"/>
     <use xlink:href="#DejaVuSans-69" transform="translate(1228.710938 0)"/>
     <use xlink:href="#DejaVuSans-6e" transform="translate(1256.494141 0)"/>
     <use xlink:href="#DejaVuSans-65" transform="translate(1319.873047 0)"/>
     <use xlink:href="#DejaVuSans-64" transform="translate(1381.396484 0)"/>
     <use xlink:href="#DejaVuSans-20" transform="translate(1444.873047 0)"/>
     <use xlink:href="#DejaVuSans-62" transform="translate(1476.660156 0)"/>
     <use xlink:href="#DejaVuSans-75" transform="translate(1540.136719 0)"/>
     <use xlink:href="#DejaVuSans-74" transform="translate(1603.515625 0)"/>
     <use xlink:href="#DejaVuSans-20" transform="translate(1642.724609 0)"/>
     <use xlink:href="#DejaVuSans-70" transform="translate(1674.511719 0)"/>
     <use xlink:href="#DejaVuSans-61" transform="translate(1737.988281 0)"/>
     <use xlink:href="#DejaVuSans-72" transform="translate(1799.267578 0)"/>
     <use xlink:href="#DejaVuSans-74" transform="translate(1840.380859 0)"/>
     <use xlink:href="#DejaVuSans-6c" transform="translate(1879.589844 0)"/>
     <use xlink:href="#DejaVuSans-79" transform="translate(1907.373047 0)"/>
     <use xlink:href="#DejaVuSans-20" transform="translate(1966.552734 0)"/>
     <use xlink:href="#DejaVuSans-72" transform="translate(1998.339844 0)"/>
     <use xlink:href="#DejaVuSans-65" transform="translate(2037.203125 0)"/>
     <use xlink:href="#DejaVuSans-76" transform="translate(2098.726562 0)"/>
     <use xlink:href="#DejaVuSans-69" transform="translate(2157.90625 0)"/>
     <use xlink:href="#DejaVuSans-73" transform="translate(2185.689453 0)"/>
     <use xlink:href="#DejaVuSans-61" transform="translate(2237.789062 0)"/>
     <use xlink:href="#DejaVuSans-62" transform="translate(2299.068359 0)"/>
     <use xlink:href="#DejaVuSans-6c" transform="translate(2362.544922 0)"/>
     <use xlink:href="#DejaVuSans-65" transform="translate(2390.328125 0)"/>
     <use xlink:href="#DejaVuSans-20" transform="translate(2451.851562 0)"/>
     <use xlink:href="#DejaVuSans-73" transform="translate(2483.638672 0)"/>
     <use xlink:href="#DejaVuSans-74" transform="translate(2535.738281 0)"/>
     <use xlink:href="#DejaVuSans-61" transform="translate(2574.947266 0)"/>
     <use xlink:href="#DejaVuSans-74" transform="translate(2636.226562 0)"/>
     <use xlink:href="#DejaVuSans-65" transform="translate(2675.435547 0)"/>
     <use xlink:href="#DejaVuSans-20" transform="translate(2736.958984 0)"/>
     <use xlink:href="#DejaVuSans-73" transform="translate(2768.746094 0)"/>
     <use xlink:href="#DejaVuSans-70" transform="translate(2820.845703 0)"/>
     <use xlink:href="#DejaVuSans-61" transform="translate(2884.322266 0)"/>
     <use xlink:href="#DejaVuSans-63" transform="translate(2945.601562 0)"/>
     <use xlink:href="#DejaVuSans-65" transform="translate(3000.582031 0)"/>
    </g>
   </g>
  </g>
 </g>
 <defs>
  <clipPath id="p60933339e2">
   <rect x="10.8" y="26.88" width="590.4" height="351.12"/>
  </clipPath>
 </defs>
</svg>
