<?xml version="1.0" encoding="utf-8" standalone="no"?>
<!DOCTYPE svg PUBLIC "-//W3C//DTD SVG 1.1//EN"
  "http://www.w3.org/Graphics/SVG/1.1/DTD/svg11.dtd">
<svg xmlns:xlink="http://www.w3.org/1999/xlink" width="612pt" height="388.8pt" viewBox="0 0 612 388.8" xmlns="http://www.w3.org/2000/svg" version="1.1">
 <metadata>
  <rdf:RDF xmlns:dc="http://purl.org/dc/elements/1.1/" xmlns:cc="http://creativecommons.org/ns#" xmlns:rdf="http://www.w3.org/1999/02/22-rdf-syntax-ns#">
   <cc:Work>
    <dc:type rdf:resource="http://purl.org/dc/dcmitype/StillImage"/>
    <dc:date>2026-07-23T20:46:28.071056</dc:date>
    <dc:format>image/svg+xml</dc:format>
    <dc:creator>
     <cc:Agent>
      <dc:title>Matplotlib v3.10.8, https://matplotlib.org/</dc:title>
     </cc:Agent>
    </dc:creator>
   </cc:Work>
  </rdf:RDF>
 </metadata>
 <defs>
  <style type="text/css">*{stroke-linejoin: round; stroke-linecap: butt}</style>
 </defs>
 <g id="figure_1">
  <g id="patch_1">
   <path d="M 0 388.8 
L 612 388.8 
L 612 0 
L 0 0 
z
" style="fill: #ffffff"/>
  </g>
  <g id="axes_1">
   <g id="patch_2">
    <path d="M 34.416 284.9532 
L 158.4 284.9532 
Q 167.256 284.9532 167.256 279.6864 
L 167.256 132.216 
Q 167.256 126.9492 158.4 126.9492 
L 34.416 126.9492 
Q 25.56 126.9492 25.56 132.216 
L 25.56 279.6864 
Q 25.56 284.9532 34.416 284.9532 
z
" clip-path="url(#pba2a760b0f)" style="fill: #f2f2f2; stroke: #000000; stroke-linejoin: miter"/>
   </g>
   <g id="patch_3">
    <path d="M 176.112 284.9532 
L 300.096 284.9532 
Q 308.952 284.9532 308.952 279.6864 
L 308.952 132.216 
Q 308.952 126.9492 300.096 126.9492 
L 176.112 126.9492 
Q 167.256 126.9492 167.256 132.216 
L 167.256 279.6864 
Q 167.256 284.9532 176.112 284.9532 
z
" clip-path="url(#pba2a760b0f)" style="fill: #d9d9d9; stroke: #000000; stroke-linejoin: miter"/>
   </g>
   <g id="patch_4">
    <path d="M 317.808 284.9532 
L 441.792 284.9532 
Q 450.648 284.9532 450.648 279.6864 
L 450.648 132.216 
Q 450.648 126.9492 441.792 126.9492 
L 317.808 126.9492 
Q 308.952 126.9492 308.952 132.216 
L 308.952 279.6864 
Q 308.952 284.9532 317.808 284.9532 
z
" clip-path="url(#pba2a760b0f)" style="fill: #bfbfbf; stroke: #000000; stroke-linejoin: miter"/>
   </g>
   <g id="patch_5">
    <path d="M 459.504 284.9532 
L 583.488 284.9532 
Q 592.344 284.9532 592.344 279.6864 
L 592.344 132.216 
Q 592.344 126.9492 583.488 126.9492 
L 459.504 126.9492 
Q 450.648 126.9492 450.648 132.216 
L 450.648 279.6864 
Q 450.648 284.9532 459.504 284.9532 
z
" clip-path="url(#pba2a760b0f)" style="fill: #a6a6a6; stroke: #000000; stroke-linejoin: miter"/>
   </g>
   <g id="patch_6">
    <path d="M 161.520147 205.9512 
Q 167.257929 205.9512 172.995711 205.9512 
" clip-path="url(#pba2a760b0f)" style="fill: none; stroke: #000000; stroke-linecap: round"/>
    <path d="M 166.320147 208.3512 
L 161.520147 205.9512 
L 166.320147 203.5512 
" clip-path="url(#pba2a760b0f)" style="fill: none; stroke: #000000; stroke-linecap: round"/>
    <path d="M 168.195711 203.5512 
L 172.995711 205.9512 
L 168.195711 208.3512 
" clip-path="url(#pba2a760b0f)" style="fill: none; stroke: #000000; stroke-linecap: round"/>
   </g>
   <g id="patch_7">
    <path d="M 303.216147 205.9512 
Q 308.953929 205.9512 314.691711 205.9512 
" clip-path="url(#pba2a760b0f)" style="fill: none; stroke: #000000; stroke-linecap: round"/>
    <path d="M 308.016147 208.3512 
L 303.216147 205.9512 
L 308.016147 203.5512 
" clip-path="url(#pba2a760b0f)" style="fill: none; stroke: #000000; stroke-linecap: round"/>
    <path d="M 309.891711 203.5512 
L 314.691711 205.9512 
L 309.891711 208.3512 
" clip-path="url(#pba2a760b0f)" style="fill: none; stroke: #000000; stroke-linecap: round"/>
   </g>
   <g id="patch_8">
    <path d="M 444.912147 205.9512 
Q 450.649929 205.9512 456.387711 205.9512 
" clip-path="url(#pba2a760b0f)" style="fill: none; stroke: #000000; stroke-linecap: round"/>
    <path d="M 449.712147 208.3512 
L 444.912147 205.9512 
L 449.712147 203.5512 
" clip-path="url(#pba2a760b0f)" style="fill: none; stroke: #000000; stroke-linecap: round"/>
    <path d="M 451.587711 203.5512 
L 456.387711 205.9512 
L 451.587711 208.3512 
" clip-path="url(#pba2a760b0f)" style="fill: none; stroke: #000000; stroke-linecap: round"/>
   </g>
   <g id="text_1">
    <!-- Prevention -->
    <g transform="translate(65.577531 166.576175) scale(0.1 -0.1)">
     <defs>
      <path id="DejaVuSans-Bold-50" d="M 588 4666 
L 2584 4666 
Q 3475 4666 3951 4270 
Q 4428 3875 4428 3144 
Q 4428 2409 3951 2014 
Q 3475 1619 2584 1619 
L 1791 1619 
L 1791 0 
L 588 0 
L 588 4666 
z
M 1791 3794 
L 1791 2491 
L 2456 2491 
Q 2806 2491 2997 2661 
Q 3188 2831 3188 3144 
Q 3188 3456 2997 3625 
Q 2806 3794 2456 3794 
L 1791 3794 
z
" transform="scale(0.015625)"/>
      <path id="DejaVuSans-Bold-72" d="M 3138 2547 
Q 2991 2616 2845 2648 
Q 2700 2681 2553 2681 
Q 2122 2681 1889 2404 
Q 1656 2128 1656 1613 
L 1656 0 
L 538 0 
L 538 3500 
L 1656 3500 
L 1656 2925 
Q 1872 3269 2151 3426 
Q 2431 3584 2822 3584 
Q 2878 3584 2943 3579 
Q 3009 3575 3134 3559 
L 3138 2547 
z
" transform="scale(0.015625)"/>
      <path id="DejaVuSans-Bold-65" d="M 4031 1759 
L 4031 1441 
L 1416 1441 
Q 1456 1047 1700 850 
Q 1944 653 2381 653 
Q 2734 653 3104 758 
Q 3475 863 3866 1075 
L 3866 213 
Q 3469 63 3072 -14 
Q 2675 -91 2278 -91 
Q 1328 -91 801 392 
Q 275 875 275 1747 
Q 275 2603 792 3093 
Q 1309 3584 2216 3584 
Q 3041 3584 3536 3087 
Q 4031 2591 4031 1759 
z
M 2881 2131 
Q 2881 2450 2695 2645 
Q 2509 2841 2209 2841 
Q 1884 2841 1681 2658 
Q 1478 2475 1428 2131 
L 2881 2131 
z
" transform="scale(0.015625)"/>
      <path id="DejaVuSans-Bold-76" d="M 97 3500 
L 1216 3500 
L 2088 1081 
L 2956 3500 
L 4078 3500 
L 2700 0 
L 1472 0 
L 97 3500 
z
" transform="scale(0.015625)"/>
      <path id="DejaVuSans-Bold-6e" d="M 4056 2131 
L 4056 0 
L 2931 0 
L 2931 347 
L 2931 1631 
Q 2931 2084 2911 2256 
Q 2891 2428 2841 2509 
Q 2775 2619 2662 2680 
Q 2550 2741 2406 2741 
Q 2056 2741 1856 2470 
Q 1656 2200 1656 1722 
L 1656 0 
L 538 0 
L 538 3500 
L 1656 3500 
L 1656 2988 
Q 1909 3294 2193 3439 
Q 2478 3584 2822 3584 
Q 3428 3584 3742 3212 
Q 4056 2841 4056 2131 
z
" transform="scale(0.015625)"/>
      <path id="DejaVuSans-Bold-74" d="M 1759 4494 
L 1759 3500 
L 2913 3500 
L 2913 2700 
L 1759 2700 
L 1759 1216 
Q 1759 972 1856 886 
Q 1953 800 2241 800 
L 2816 800 
L 2816 0 
L 1856 0 
Q 1194 0 917 276 
Q 641 553 641 1216 
L 641 2700 
L 84 2700 
L 84 3500 
L 641 3500 
L 641 4494 
L 1759 4494 
z
" transform="scale(0.015625)"/>
      <path id="DejaVuSans-Bold-69" d="M 538 3500 
L 1656 3500 
L 1656 0 
L 538 0 
L 538 3500 
z
M 538 4863 
L 1656 4863 
L 1656 3950 
L 538 3950 
L 538 4863 
z
" transform="scale(0.015625)"/>
      <path id="DejaVuSans-Bold-6f" d="M 2203 2784 
Q 1831 2784 1636 2517 
Q 1441 2250 1441 1747 
Q 1441 1244 1636 976 
Q 1831 709 2203 709 
Q 2569 709 2762 976 
Q 2956 1244 2956 1747 
Q 2956 2250 2762 2517 
Q 2569 2784 2203 2784 
z
M 2203 3584 
Q 3106 3584 3614 3096 
Q 4122 2609 4122 1747 
Q 4122 884 3614 396 
Q 3106 -91 2203 -91 
Q 1297 -91 786 396 
Q 275 884 275 1747 
Q 275 2609 786 3096 
Q 1297 3584 2203 3584 
z
" transform="scale(0.015625)"/>
     </defs>
     <use xlink:href="#DejaVuSans-Bold-50"/>
     <use xlink:href="#DejaVuSans-Bold-72" transform="translate(73.291016 0)"/>
     <use xlink:href="#DejaVuSans-Bold-65" transform="translate(122.607422 0)"/>
     <use xlink:href="#DejaVuSans-Bold-76" transform="translate(190.429688 0)"/>
     <use xlink:href="#DejaVuSans-Bold-65" transform="translate(255.615234 0)"/>
     <use xlink:href="#DejaVuSans-Bold-6e" transform="translate(323.4375 0)"/>
     <use xlink:href="#DejaVuSans-Bold-74" transform="translate(394.628906 0)"/>
     <use xlink:href="#DejaVuSans-Bold-69" transform="translate(442.431641 0)"/>
     <use xlink:href="#DejaVuSans-Bold-6f" transform="translate(476.708984 0)"/>
     <use xlink:href="#DejaVuSans-Bold-6e" transform="translate(545.410156 0)"/>
    </g>
   </g>
   <g id="text_2">
    <!-- reduce incoming risk -->
    <g transform="translate(49.356281 217.440422) scale(0.09 -0.09)">
     <defs>
      <path id="DejaVuSans-72" d="M 2631 2963 
Q 2534 3019 2420 3045 
Q 2306 3072 2169 3072 
Q 1681 3072 1420 2755 
Q 1159 2438 1159 1844 
L 1159 0 
L 581 0 
L 581 3500 
L 1159 3500 
L 1159 2956 
Q 1341 3275 1631 3429 
Q 1922 3584 2338 3584 
Q 2397 3584 2469 3576 
Q 2541 3569 2628 3553 
L 2631 2963 
z
" transform="scale(0.015625)"/>
      <path id="DejaVuSans-65" d="M 3597 1894 
L 3597 1613 
L 953 1613 
Q 991 1019 1311 708 
Q 1631 397 2203 397 
Q 2534 397 2845 478 
Q 3156 559 3463 722 
L 3463 178 
Q 3153 47 2828 -22 
Q 2503 -91 2169 -91 
Q 1331 -91 842 396 
Q 353 884 353 1716 
Q 353 2575 817 3079 
Q 1281 3584 2069 3584 
Q 2775 3584 3186 3129 
Q 3597 2675 3597 1894 
z
M 3022 2063 
Q 3016 2534 2758 2815 
Q 2500 3097 2075 3097 
Q 1594 3097 1305 2825 
Q 1016 2553 972 2059 
L 3022 2063 
z
" transform="scale(0.015625)"/>
      <path id="DejaVuSans-64" d="M 2906 2969 
L 2906 4863 
L 3481 4863 
L 3481 0 
L 2906 0 
L 2906 525 
Q 2725 213 2448 61 
Q 2172 -91 1784 -91 
Q 1150 -91 751 415 
Q 353 922 353 1747 
Q 353 2572 751 3078 
Q 1150 3584 1784 3584 
Q 2172 3584 2448 3432 
Q 2725 3281 2906 2969 
z
M 947 1747 
Q 947 1113 1208 752 
Q 1469 391 1925 391 
Q 2381 391 2643 752 
Q 2906 1113 2906 1747 
Q 2906 2381 2643 2742 
Q 2381 3103 1925 3103 
Q 1469 3103 1208 2742 
Q 947 2381 947 1747 
z
" transform="scale(0.015625)"/>
      <path id="DejaVuSans-75" d="M 544 1381 
L 544 3500 
L 1119 3500 
L 1119 1403 
Q 1119 906 1312 657 
Q 1506 409 1894 409 
Q 2359 409 2629 706 
Q 2900 1003 2900 1516 
L 2900 3500 
L 3475 3500 
L 3475 0 
L 2900 0 
L 2900 538 
Q 2691 219 2414 64 
Q 2138 -91 1772 -91 
Q 1169 -91 856 284 
Q 544 659 544 1381 
z
M 1991 3584 
L 1991 3584 
z
" transform="scale(0.015625)"/>
      <path id="DejaVuSans-63" d="M 3122 3366 
L 3122 2828 
Q 2878 2963 2633 3030 
Q 2388 3097 2138 3097 
Q 1578 3097 1268 2742 
Q 959 2388 959 1747 
Q 959 1106 1268 751 
Q 1578 397 2138 397 
Q 2388 397 2633 464 
Q 2878 531 3122 666 
L 3122 134 
Q 2881 22 2623 -34 
Q 2366 -91 2075 -91 
Q 1284 -91 818 406 
Q 353 903 353 1747 
Q 353 2603 823 3093 
Q 1294 3584 2113 3584 
Q 2378 3584 2631 3529 
Q 2884 3475 3122 3366 
z
" transform="scale(0.015625)"/>
      <path id="DejaVuSans-20" transform="scale(0.015625)"/>
      <path id="DejaVuSans-69" d="M 603 3500 
L 1178 3500 
L 1178 0 
L 603 0 
L 603 3500 
z
M 603 4863 
L 1178 4863 
L 1178 4134 
L 603 4134 
L 603 4863 
z
" transform="scale(0.015625)"/>
      <path id="DejaVuSans-6e" d="M 3513 2113 
L 3513 0 
L 2938 0 
L 2938 2094 
Q 2938 2591 2744 2837 
Q 2550 3084 2163 3084 
Q 1697 3084 1428 2787 
Q 1159 2491 1159 1978 
L 1159 0 
L 581 0 
L 581 3500 
L 1159 3500 
L 1159 2956 
Q 1366 3272 1645 3428 
Q 1925 3584 2291 3584 
Q 2894 3584 3203 3211 
Q 3513 2838 3513 2113 
z
" transform="scale(0.015625)"/>
      <path id="DejaVuSans-6f" d="M 1959 3097 
Q 1497 3097 1228 2736 
Q 959 2375 959 1747 
Q 959 1119 1226 758 
Q 1494 397 1959 397 
Q 2419 397 2687 759 
Q 2956 1122 2956 1747 
Q 2956 2369 2687 2733 
Q 2419 3097 1959 3097 
z
M 1959 3584 
Q 2709 3584 3137 3096 
Q 3566 2609 3566 1747 
Q 3566 888 3137 398 
Q 2709 -91 1959 -91 
Q 1206 -91 779 398 
Q 353 888 353 1747 
Q 353 2609 779 3096 
Q 1206 3584 1959 3584 
z
" transform="scale(0.015625)"/>
      <path id="DejaVuSans-6d" d="M 3328 2828 
Q 3544 3216 3844 3400 
Q 4144 3584 4550 3584 
Q 5097 3584 5394 3201 
Q 5691 2819 5691 2113 
L 5691 0 
L 5113 0 
L 5113 2094 
Q 5113 2597 4934 2840 
Q 4756 3084 4391 3084 
Q 3944 3084 3684 2787 
Q 3425 2491 3425 1978 
L 3425 0 
L 2847 0 
L 2847 2094 
Q 2847 2600 2669 2842 
Q 2491 3084 2119 3084 
Q 1678 3084 1418 2786 
Q 1159 2488 1159 1978 
L 1159 0 
L 581 0 
L 581 3500 
L 1159 3500 
L 1159 2956 
Q 1356 3278 1631 3431 
Q 1906 3584 2284 3584 
Q 2666 3584 2933 3390 
Q 3200 3197 3328 2828 
z
" transform="scale(0.015625)"/>
      <path id="DejaVuSans-67" d="M 2906 1791 
Q 2906 2416 2648 2759 
Q 2391 3103 1925 3103 
Q 1463 3103 1205 2759 
Q 947 2416 947 1791 
Q 947 1169 1205 825 
Q 1463 481 1925 481 
Q 2391 481 2648 825 
Q 2906 1169 2906 1791 
z
M 3481 434 
Q 3481 -459 3084 -895 
Q 2688 -1331 1869 -1331 
Q 1566 -1331 1297 -1286 
Q 1028 -1241 775 -1147 
L 775 -588 
Q 1028 -725 1275 -790 
Q 1522 -856 1778 -856 
Q 2344 -856 2625 -561 
Q 2906 -266 2906 331 
L 2906 616 
Q 2728 306 2450 153 
Q 2172 0 1784 0 
Q 1141 0 747 490 
Q 353 981 353 1791 
Q 353 2603 747 3093 
Q 1141 3584 1784 3584 
Q 2172 3584 2450 3431 
Q 2728 3278 2906 2969 
L 2906 3500 
L 3481 3500 
L 3481 434 
z
" transform="scale(0.015625)"/>
      <path id="DejaVuSans-73" d="M 2834 3397 
L 2834 2853 
Q 2591 2978 2328 3040 
Q 2066 3103 1784 3103 
Q 1356 3103 1142 2972 
Q 928 2841 928 2578 
Q 928 2378 1081 2264 
Q 1234 2150 1697 2047 
L 1894 2003 
Q 2506 1872 2764 1633 
Q 3022 1394 3022 966 
Q 3022 478 2636 193 
Q 2250 -91 1575 -91 
Q 1294 -91 989 -36 
Q 684 19 347 128 
L 347 722 
Q 666 556 975 473 
Q 1284 391 1588 391 
Q 1994 391 2212 530 
Q 2431 669 2431 922 
Q 2431 1156 2273 1281 
Q 2116 1406 1581 1522 
L 1381 1569 
Q 847 1681 609 1914 
Q 372 2147 372 2553 
Q 372 3047 722 3315 
Q 1072 3584 1716 3584 
Q 2034 3584 2315 3537 
Q 2597 3491 2834 3397 
z
" transform="scale(0.015625)"/>
      <path id="DejaVuSans-6b" d="M 581 4863 
L 1159 4863 
L 1159 1991 
L 2875 3500 
L 3609 3500 
L 1753 1863 
L 3688 0 
L 2938 0 
L 1159 1709 
L 1159 0 
L 581 0 
L 581 4863 
z
" transform="scale(0.015625)"/>
     </defs>
     <use xlink:href="#DejaVuSans-72"/>
     <use xlink:href="#DejaVuSans-65" transform="translate(38.863281 0)"/>
     <use xlink:href="#DejaVuSans-64" transform="translate(100.386719 0)"/>
     <use xlink:href="#DejaVuSans-75" transform="translate(163.863281 0)"/>
     <use xlink:href="#DejaVuSans-63" transform="translate(227.242188 0)"/>
     <use xlink:href="#DejaVuSans-65" transform="translate(282.222656 0)"/>
     <use xlink:href="#DejaVuSans-20" transform="translate(343.746094 0)"/>
     <use xlink:href="#DejaVuSans-69" transform="translate(375.533203 0)"/>
     <use xlink:href="#DejaVuSans-6e" transform="translate(403.316406 0)"/>
     <use xlink:href="#DejaVuSans-63" transform="translate(466.695312 0)"/>
     <use xlink:href="#DejaVuSans-6f" transform="translate(521.675781 0)"/>
     <use xlink:href="#DejaVuSans-6d" transform="translate(582.857422 0)"/>
     <use xlink:href="#DejaVuSans-69" transform="translate(680.269531 0)"/>
     <use xlink:href="#DejaVuSans-6e" transform="translate(708.052734 0)"/>
     <use xlink:href="#DejaVuSans-67" transform="translate(771.431641 0)"/>
     <use xlink:href="#DejaVuSans-20" transform="translate(834.908203 0)"/>
     <use xlink:href="#DejaVuSans-72" transform="translate(866.695312 0)"/>
     <use xlink:href="#DejaVuSans-69" transform="translate(907.808594 0)"/>
     <use xlink:href="#DejaVuSans-73" transform="translate(935.591797 0)"/>
     <use xlink:href="#DejaVuSans-6b" transform="translate(987.691406 0)"/>
    </g>
    <!-- exercise, sleep, screening -->
    <g transform="translate(38.214563 227.518453) scale(0.09 -0.09)">
     <defs>
      <path id="DejaVuSans-78" d="M 3513 3500 
L 2247 1797 
L 3578 0 
L 2900 0 
L 1881 1375 
L 863 0 
L 184 0 
L 1544 1831 
L 300 3500 
L 978 3500 
L 1906 2253 
L 2834 3500 
L 3513 3500 
z
" transform="scale(0.015625)"/>
      <path id="DejaVuSans-2c" d="M 750 794 
L 1409 794 
L 1409 256 
L 897 -744 
L 494 -744 
L 750 256 
L 750 794 
z
" transform="scale(0.015625)"/>
      <path id="DejaVuSans-6c" d="M 603 4863 
L 1178 4863 
L 1178 0 
L 603 0 
L 603 4863 
z
" transform="scale(0.015625)"/>
      <path id="DejaVuSans-70" d="M 1159 525 
L 1159 -1331 
L 581 -1331 
L 581 3500 
L 1159 3500 
L 1159 2969 
Q 1341 3281 1617 3432 
Q 1894 3584 2278 3584 
Q 2916 3584 3314 3078 
Q 3713 2572 3713 1747 
Q 3713 922 3314 415 
Q 2916 -91 2278 -91 
Q 1894 -91 1617 61 
Q 1341 213 1159 525 
z
M 3116 1747 
Q 3116 2381 2855 2742 
Q 2594 3103 2138 3103 
Q 1681 3103 1420 2742 
Q 1159 2381 1159 1747 
Q 1159 1113 1420 752 
Q 1681 391 2138 391 
Q 2594 391 2855 752 
Q 3116 1113 3116 1747 
z
" transform="scale(0.015625)"/>
     </defs>
     <use xlink:href="#DejaVuSans-65"/>
     <use xlink:href="#DejaVuSans-78" transform="translate(59.773438 0)"/>
     <use xlink:href="#DejaVuSans-65" transform="translate(115.828125 0)"/>
     <use xlink:href="#DejaVuSans-72" transform="translate(177.351562 0)"/>
     <use xlink:href="#DejaVuSans-63" transform="translate(216.214844 0)"/>
     <use xlink:href="#DejaVuSans-69" transform="translate(271.195312 0)"/>
     <use xlink:href="#DejaVuSans-73" transform="translate(298.978516 0)"/>
     <use xlink:href="#DejaVuSans-65" transform="translate(351.078125 0)"/>
     <use xlink:href="#DejaVuSans-2c" transform="translate(412.601562 0)"/>
     <use xlink:href="#DejaVuSans-20" transform="translate(444.388672 0)"/>
     <use xlink:href="#DejaVuSans-73" transform="translate(476.175781 0)"/>
     <use xlink:href="#DejaVuSans-6c" transform="translate(528.275391 0)"/>
     <use xlink:href="#DejaVuSans-65" transform="translate(556.058594 0)"/>
     <use xlink:href="#DejaVuSans-65" transform="translate(617.582031 0)"/>
     <use xlink:href="#DejaVuSans-70" transform="translate(679.105469 0)"/>
     <use xlink:href="#DejaVuSans-2c" transform="translate(742.582031 0)"/>
     <use xlink:href="#DejaVuSans-20" transform="translate(774.369141 0)"/>
     <use xlink:href="#DejaVuSans-73" transform="translate(806.15625 0)"/>
     <use xlink:href="#DejaVuSans-63" transform="translate(858.255859 0)"/>
     <use xlink:href="#DejaVuSans-72" transform="translate(913.236328 0)"/>
     <use xlink:href="#DejaVuSans-65" transform="translate(952.099609 0)"/>
     <use xlink:href="#DejaVuSans-65" transform="translate(1013.623047 0)"/>
     <use xlink:href="#DejaVuSans-6e" transform="translate(1075.146484 0)"/>
     <use xlink:href="#DejaVuSans-69" transform="translate(1138.525391 0)"/>
     <use xlink:href="#DejaVuSans-6e" transform="translate(1166.308594 0)"/>
     <use xlink:href="#DejaVuSans-67" transform="translate(1229.6875 0)"/>
    </g>
   </g>
   <g id="text_3">
    <!-- Quantified engineering -->
    <g transform="translate(172.752437 166.537113) scale(0.1 -0.1)">
     <defs>
      <path id="DejaVuSans-Bold-51" d="M 2847 -84 
L 2753 -84 
Q 1600 -84 959 553 
Q 319 1191 319 2328 
Q 319 3463 958 4106 
Q 1597 4750 2719 4750 
Q 3853 4750 4486 4112 
Q 5119 3475 5119 2328 
Q 5119 1541 4783 972 
Q 4447 403 3816 116 
L 4756 -934 
L 3609 -934 
L 2847 -84 
z
M 2719 3878 
Q 2169 3878 1866 3472 
Q 1563 3066 1563 2328 
Q 1563 1578 1859 1179 
Q 2156 781 2719 781 
Q 3272 781 3575 1187 
Q 3878 1594 3878 2328 
Q 3878 3066 3575 3472 
Q 3272 3878 2719 3878 
z
" transform="scale(0.015625)"/>
      <path id="DejaVuSans-Bold-75" d="M 500 1363 
L 500 3500 
L 1625 3500 
L 1625 3150 
Q 1625 2866 1622 2436 
Q 1619 2006 1619 1863 
Q 1619 1441 1641 1255 
Q 1663 1069 1716 984 
Q 1784 875 1895 815 
Q 2006 756 2150 756 
Q 2500 756 2700 1025 
Q 2900 1294 2900 1772 
L 2900 3500 
L 4019 3500 
L 4019 0 
L 2900 0 
L 2900 506 
Q 2647 200 2364 54 
Q 2081 -91 1741 -91 
Q 1134 -91 817 281 
Q 500 653 500 1363 
z
" transform="scale(0.015625)"/>
      <path id="DejaVuSans-Bold-61" d="M 2106 1575 
Q 1756 1575 1579 1456 
Q 1403 1338 1403 1106 
Q 1403 894 1545 773 
Q 1688 653 1941 653 
Q 2256 653 2472 879 
Q 2688 1106 2688 1447 
L 2688 1575 
L 2106 1575 
z
M 3816 1997 
L 3816 0 
L 2688 0 
L 2688 519 
Q 2463 200 2181 54 
Q 1900 -91 1497 -91 
Q 953 -91 614 226 
Q 275 544 275 1050 
Q 275 1666 698 1953 
Q 1122 2241 2028 2241 
L 2688 2241 
L 2688 2328 
Q 2688 2594 2478 2717 
Q 2269 2841 1825 2841 
Q 1466 2841 1156 2769 
Q 847 2697 581 2553 
L 581 3406 
Q 941 3494 1303 3539 
Q 1666 3584 2028 3584 
Q 2975 3584 3395 3211 
Q 3816 2838 3816 1997 
z
" transform="scale(0.015625)"/>
      <path id="DejaVuSans-Bold-66" d="M 2841 4863 
L 2841 4128 
L 2222 4128 
Q 1984 4128 1890 4042 
Q 1797 3956 1797 3744 
L 1797 3500 
L 2753 3500 
L 2753 2700 
L 1797 2700 
L 1797 0 
L 678 0 
L 678 2700 
L 122 2700 
L 122 3500 
L 678 3500 
L 678 3744 
Q 678 4316 997 4589 
Q 1316 4863 1984 4863 
L 2841 4863 
z
" transform="scale(0.015625)"/>
      <path id="DejaVuSans-Bold-64" d="M 2919 2988 
L 2919 4863 
L 4044 4863 
L 4044 0 
L 2919 0 
L 2919 506 
Q 2688 197 2409 53 
Q 2131 -91 1766 -91 
Q 1119 -91 703 423 
Q 288 938 288 1747 
Q 288 2556 703 3070 
Q 1119 3584 1766 3584 
Q 2128 3584 2408 3439 
Q 2688 3294 2919 2988 
z
M 2181 722 
Q 2541 722 2730 984 
Q 2919 1247 2919 1747 
Q 2919 2247 2730 2509 
Q 2541 2772 2181 2772 
Q 1825 2772 1636 2509 
Q 1447 2247 1447 1747 
Q 1447 1247 1636 984 
Q 1825 722 2181 722 
z
" transform="scale(0.015625)"/>
      <path id="DejaVuSans-Bold-20" transform="scale(0.015625)"/>
      <path id="DejaVuSans-Bold-67" d="M 2919 594 
Q 2688 288 2409 144 
Q 2131 0 1766 0 
Q 1125 0 706 504 
Q 288 1009 288 1791 
Q 288 2575 706 3076 
Q 1125 3578 1766 3578 
Q 2131 3578 2409 3434 
Q 2688 3291 2919 2981 
L 2919 3500 
L 4044 3500 
L 4044 353 
Q 4044 -491 3511 -936 
Q 2978 -1381 1966 -1381 
Q 1638 -1381 1331 -1331 
Q 1025 -1281 716 -1178 
L 716 -306 
Q 1009 -475 1290 -558 
Q 1572 -641 1856 -641 
Q 2406 -641 2662 -400 
Q 2919 -159 2919 353 
L 2919 594 
z
M 2181 2772 
Q 1834 2772 1640 2515 
Q 1447 2259 1447 1791 
Q 1447 1309 1634 1061 
Q 1822 813 2181 813 
Q 2531 813 2725 1069 
Q 2919 1325 2919 1791 
Q 2919 2259 2725 2515 
Q 2531 2772 2181 2772 
z
" transform="scale(0.015625)"/>
     </defs>
     <use xlink:href="#DejaVuSans-Bold-51"/>
     <use xlink:href="#DejaVuSans-Bold-75" transform="translate(85.009766 0)"/>
     <use xlink:href="#DejaVuSans-Bold-61" transform="translate(156.201172 0)"/>
     <use xlink:href="#DejaVuSans-Bold-6e" transform="translate(223.681641 0)"/>
     <use xlink:href="#DejaVuSans-Bold-74" transform="translate(294.873047 0)"/>
     <use xlink:href="#DejaVuSans-Bold-69" transform="translate(342.675781 0)"/>
     <use xlink:href="#DejaVuSans-Bold-66" transform="translate(376.953125 0)"/>
     <use xlink:href="#DejaVuSans-Bold-69" transform="translate(420.458984 0)"/>
     <use xlink:href="#DejaVuSans-Bold-65" transform="translate(454.736328 0)"/>
     <use xlink:href="#DejaVuSans-Bold-64" transform="translate(522.558594 0)"/>
     <use xlink:href="#DejaVuSans-Bold-20" transform="translate(594.140625 0)"/>
     <use xlink:href="#DejaVuSans-Bold-65" transform="translate(628.955078 0)"/>
     <use xlink:href="#DejaVuSans-Bold-6e" transform="translate(696.777344 0)"/>
     <use xlink:href="#DejaVuSans-Bold-67" transform="translate(767.96875 0)"/>
     <use xlink:href="#DejaVuSans-Bold-69" transform="translate(839.550781 0)"/>
     <use xlink:href="#DejaVuSans-Bold-6e" transform="translate(873.828125 0)"/>
     <use xlink:href="#DejaVuSans-Bold-65" transform="translate(945.019531 0)"/>
     <use xlink:href="#DejaVuSans-Bold-65" transform="translate(1012.841797 0)"/>
     <use xlink:href="#DejaVuSans-Bold-72" transform="translate(1080.664062 0)"/>
     <use xlink:href="#DejaVuSans-Bold-69" transform="translate(1129.980469 0)"/>
     <use xlink:href="#DejaVuSans-Bold-6e" transform="translate(1164.257812 0)"/>
     <use xlink:href="#DejaVuSans-Bold-67" transform="translate(1235.449219 0)"/>
    </g>
   </g>
   <g id="text_4">
    <!-- measure and control -->
    <g transform="translate(191.557828 217.440422) scale(0.09 -0.09)">
     <defs>
      <path id="DejaVuSans-61" d="M 2194 1759 
Q 1497 1759 1228 1600 
Q 959 1441 959 1056 
Q 959 750 1161 570 
Q 1363 391 1709 391 
Q 2188 391 2477 730 
Q 2766 1069 2766 1631 
L 2766 1759 
L 2194 1759 
z
M 3341 1997 
L 3341 0 
L 2766 0 
L 2766 531 
Q 2569 213 2275 61 
Q 1981 -91 1556 -91 
Q 1019 -91 701 211 
Q 384 513 384 1019 
Q 384 1609 779 1909 
Q 1175 2209 1959 2209 
L 2766 2209 
L 2766 2266 
Q 2766 2663 2505 2880 
Q 2244 3097 1772 3097 
Q 1472 3097 1187 3025 
Q 903 2953 641 2809 
L 641 3341 
Q 956 3463 1253 3523 
Q 1550 3584 1831 3584 
Q 2591 3584 2966 3190 
Q 3341 2797 3341 1997 
z
" transform="scale(0.015625)"/>
      <path id="DejaVuSans-74" d="M 1172 4494 
L 1172 3500 
L 2356 3500 
L 2356 3053 
L 1172 3053 
L 1172 1153 
Q 1172 725 1289 603 
Q 1406 481 1766 481 
L 2356 481 
L 2356 0 
L 1766 0 
Q 1100 0 847 248 
Q 594 497 594 1153 
L 594 3053 
L 172 3053 
L 172 3500 
L 594 3500 
L 594 4494 
L 1172 4494 
z
" transform="scale(0.015625)"/>
     </defs>
     <use xlink:href="#DejaVuSans-6d"/>
     <use xlink:href="#DejaVuSans-65" transform="translate(97.412109 0)"/>
     <use xlink:href="#DejaVuSans-61" transform="translate(158.935547 0)"/>
     <use xlink:href="#DejaVuSans-73" transform="translate(220.214844 0)"/>
     <use xlink:href="#DejaVuSans-75" transform="translate(272.314453 0)"/>
     <use xlink:href="#DejaVuSans-72" transform="translate(335.693359 0)"/>
     <use xlink:href="#DejaVuSans-65" transform="translate(374.556641 0)"/>
     <use xlink:href="#DejaVuSans-20" transform="translate(436.080078 0)"/>
     <use xlink:href="#DejaVuSans-61" transform="translate(467.867188 0)"/>
     <use xlink:href="#DejaVuSans-6e" transform="translate(529.146484 0)"/>
     <use xlink:href="#DejaVuSans-64" transform="translate(592.525391 0)"/>
     <use xlink:href="#DejaVuSans-20" transform="translate(656.001953 0)"/>
     <use xlink:href="#DejaVuSans-63" transform="translate(687.789062 0)"/>
     <use xlink:href="#DejaVuSans-6f" transform="translate(742.769531 0)"/>
     <use xlink:href="#DejaVuSans-6e" transform="translate(803.951172 0)"/>
     <use xlink:href="#DejaVuSans-74" transform="translate(867.330078 0)"/>
     <use xlink:href="#DejaVuSans-72" transform="translate(906.539062 0)"/>
     <use xlink:href="#DejaVuSans-6f" transform="translate(945.402344 0)"/>
     <use xlink:href="#DejaVuSans-6c" transform="translate(1006.583984 0)"/>
    </g>
    <!-- Blueprint, biomarkers -->
    <g transform="translate(189.455484 227.518453) scale(0.09 -0.09)">
     <defs>
      <path id="DejaVuSans-42" d="M 1259 2228 
L 1259 519 
L 2272 519 
Q 2781 519 3026 730 
Q 3272 941 3272 1375 
Q 3272 1813 3026 2020 
Q 2781 2228 2272 2228 
L 1259 2228 
z
M 1259 4147 
L 1259 2741 
L 2194 2741 
Q 2656 2741 2882 2914 
Q 3109 3088 3109 3444 
Q 3109 3797 2882 3972 
Q 2656 4147 2194 4147 
L 1259 4147 
z
M 628 4666 
L 2241 4666 
Q 2963 4666 3353 4366 
Q 3744 4066 3744 3513 
Q 3744 3084 3544 2831 
Q 3344 2578 2956 2516 
Q 3422 2416 3680 2098 
Q 3938 1781 3938 1306 
Q 3938 681 3513 340 
Q 3088 0 2303 0 
L 628 0 
L 628 4666 
z
" transform="scale(0.015625)"/>
      <path id="DejaVuSans-62" d="M 3116 1747 
Q 3116 2381 2855 2742 
Q 2594 3103 2138 3103 
Q 1681 3103 1420 2742 
Q 1159 2381 1159 1747 
Q 1159 1113 1420 752 
Q 1681 391 2138 391 
Q 2594 391 2855 752 
Q 3116 1113 3116 1747 
z
M 1159 2969 
Q 1341 3281 1617 3432 
Q 1894 3584 2278 3584 
Q 2916 3584 3314 3078 
Q 3713 2572 3713 1747 
Q 3713 922 3314 415 
Q 2916 -91 2278 -91 
Q 1894 -91 1617 61 
Q 1341 213 1159 525 
L 1159 0 
L 581 0 
L 581 4863 
L 1159 4863 
L 1159 2969 
z
" transform="scale(0.015625)"/>
     </defs>
     <use xlink:href="#DejaVuSans-42"/>
     <use xlink:href="#DejaVuSans-6c" transform="translate(68.603516 0)"/>
     <use xlink:href="#DejaVuSans-75" transform="translate(96.386719 0)"/>
     <use xlink:href="#DejaVuSans-65" transform="translate(159.765625 0)"/>
     <use xlink:href="#DejaVuSans-70" transform="translate(221.289062 0)"/>
     <use xlink:href="#DejaVuSans-72" transform="translate(284.765625 0)"/>
     <use xlink:href="#DejaVuSans-69" transform="translate(325.878906 0)"/>
     <use xlink:href="#DejaVuSans-6e" transform="translate(353.662109 0)"/>
     <use xlink:href="#DejaVuSans-74" transform="translate(417.041016 0)"/>
     <use xlink:href="#DejaVuSans-2c" transform="translate(456.25 0)"/>
     <use xlink:href="#DejaVuSans-20" transform="translate(488.037109 0)"/>
     <use xlink:href="#DejaVuSans-62" transform="translate(519.824219 0)"/>
     <use xlink:href="#DejaVuSans-69" transform="translate(583.300781 0)"/>
     <use xlink:href="#DejaVuSans-6f" transform="translate(611.083984 0)"/>
     <use xlink:href="#DejaVuSans-6d" transform="translate(672.265625 0)"/>
     <use xlink:href="#DejaVuSans-61" transform="translate(769.677734 0)"/>
     <use xlink:href="#DejaVuSans-72" transform="translate(830.957031 0)"/>
     <use xlink:href="#DejaVuSans-6b" transform="translate(872.070312 0)"/>
     <use xlink:href="#DejaVuSans-65" transform="translate(926.355469 0)"/>
     <use xlink:href="#DejaVuSans-72" transform="translate(987.878906 0)"/>
     <use xlink:href="#DejaVuSans-73" transform="translate(1028.992188 0)"/>
    </g>
   </g>
   <g id="text_5">
    <!-- Damage repair -->
    <g transform="translate(337.989844 166.537113) scale(0.1 -0.1)">
     <defs>
      <path id="DejaVuSans-Bold-44" d="M 1791 3756 
L 1791 909 
L 2222 909 
Q 2959 909 3348 1275 
Q 3738 1641 3738 2338 
Q 3738 3031 3350 3393 
Q 2963 3756 2222 3756 
L 1791 3756 
z
M 588 4666 
L 1856 4666 
Q 2919 4666 3439 4514 
Q 3959 4363 4331 4000 
Q 4659 3684 4818 3271 
Q 4978 2859 4978 2338 
Q 4978 1809 4818 1395 
Q 4659 981 4331 666 
Q 3956 303 3431 151 
Q 2906 0 1856 0 
L 588 0 
L 588 4666 
z
" transform="scale(0.015625)"/>
      <path id="DejaVuSans-Bold-6d" d="M 3781 2919 
Q 3994 3244 4286 3414 
Q 4578 3584 4928 3584 
Q 5531 3584 5847 3212 
Q 6163 2841 6163 2131 
L 6163 0 
L 5038 0 
L 5038 1825 
Q 5041 1866 5042 1909 
Q 5044 1953 5044 2034 
Q 5044 2406 4934 2573 
Q 4825 2741 4581 2741 
Q 4263 2741 4089 2478 
Q 3916 2216 3909 1719 
L 3909 0 
L 2784 0 
L 2784 1825 
Q 2784 2406 2684 2573 
Q 2584 2741 2328 2741 
Q 2006 2741 1831 2477 
Q 1656 2213 1656 1722 
L 1656 0 
L 531 0 
L 531 3500 
L 1656 3500 
L 1656 2988 
Q 1863 3284 2130 3434 
Q 2397 3584 2719 3584 
Q 3081 3584 3359 3409 
Q 3638 3234 3781 2919 
z
" transform="scale(0.015625)"/>
      <path id="DejaVuSans-Bold-70" d="M 1656 506 
L 1656 -1331 
L 538 -1331 
L 538 3500 
L 1656 3500 
L 1656 2988 
Q 1888 3294 2169 3439 
Q 2450 3584 2816 3584 
Q 3463 3584 3878 3070 
Q 4294 2556 4294 1747 
Q 4294 938 3878 423 
Q 3463 -91 2816 -91 
Q 2450 -91 2169 54 
Q 1888 200 1656 506 
z
M 2400 2772 
Q 2041 2772 1848 2508 
Q 1656 2244 1656 1747 
Q 1656 1250 1848 986 
Q 2041 722 2400 722 
Q 2759 722 2948 984 
Q 3138 1247 3138 1747 
Q 3138 2247 2948 2509 
Q 2759 2772 2400 2772 
z
" transform="scale(0.015625)"/>
     </defs>
     <use xlink:href="#DejaVuSans-Bold-44"/>
     <use xlink:href="#DejaVuSans-Bold-61" transform="translate(83.007812 0)"/>
     <use xlink:href="#DejaVuSans-Bold-6d" transform="translate(150.488281 0)"/>
     <use xlink:href="#DejaVuSans-Bold-61" transform="translate(254.6875 0)"/>
     <use xlink:href="#DejaVuSans-Bold-67" transform="translate(322.167969 0)"/>
     <use xlink:href="#DejaVuSans-Bold-65" transform="translate(393.75 0)"/>
     <use xlink:href="#DejaVuSans-Bold-20" transform="translate(461.572266 0)"/>
     <use xlink:href="#DejaVuSans-Bold-72" transform="translate(496.386719 0)"/>
     <use xlink:href="#DejaVuSans-Bold-65" transform="translate(545.703125 0)"/>
     <use xlink:href="#DejaVuSans-Bold-70" transform="translate(613.525391 0)"/>
     <use xlink:href="#DejaVuSans-Bold-61" transform="translate(685.107422 0)"/>
     <use xlink:href="#DejaVuSans-Bold-69" transform="translate(752.587891 0)"/>
     <use xlink:href="#DejaVuSans-Bold-72" transform="translate(786.865234 0)"/>
    </g>
   </g>
   <g id="text_6">
    <!-- remove accumulated lesions -->
    <g transform="translate(315.099141 217.440422) scale(0.09 -0.09)">
     <defs>
      <path id="DejaVuSans-76" d="M 191 3500 
L 800 3500 
L 1894 563 
L 2988 3500 
L 3597 3500 
L 2284 0 
L 1503 0 
L 191 3500 
z
" transform="scale(0.015625)"/>
     </defs>
     <use xlink:href="#DejaVuSans-72"/>
     <use xlink:href="#DejaVuSans-65" transform="translate(38.863281 0)"/>
     <use xlink:href="#DejaVuSans-6d" transform="translate(100.386719 0)"/>
     <use xlink:href="#DejaVuSans-6f" transform="translate(197.798828 0)"/>
     <use xlink:href="#DejaVuSans-76" transform="translate(258.980469 0)"/>
     <use xlink:href="#DejaVuSans-65" transform="translate(318.160156 0)"/>
     <use xlink:href="#DejaVuSans-20" transform="translate(379.683594 0)"/>
     <use xlink:href="#DejaVuSans-61" transform="translate(411.470703 0)"/>
     <use xlink:href="#DejaVuSans-63" transform="translate(472.75 0)"/>
     <use xlink:href="#DejaVuSans-63" transform="translate(527.730469 0)"/>
     <use xlink:href="#DejaVuSans-75" transform="translate(582.710938 0)"/>
     <use xlink:href="#DejaVuSans-6d" transform="translate(646.089844 0)"/>
     <use xlink:href="#DejaVuSans-75" transform="translate(743.501953 0)"/>
     <use xlink:href="#DejaVuSans-6c" transform="translate(806.880859 0)"/>
     <use xlink:href="#DejaVuSans-61" transform="translate(834.664062 0)"/>
     <use xlink:href="#DejaVuSans-74" transform="translate(895.943359 0)"/>
     <use xlink:href="#DejaVuSans-65" transform="translate(935.152344 0)"/>
     <use xlink:href="#DejaVuSans-64" transform="translate(996.675781 0)"/>
     <use xlink:href="#DejaVuSans-20" transform="translate(1060.152344 0)"/>
     <use xlink:href="#DejaVuSans-6c" transform="translate(1091.939453 0)"/>
     <use xlink:href="#DejaVuSans-65" transform="translate(1119.722656 0)"/>
     <use xlink:href="#DejaVuSans-73" transform="translate(1181.246094 0)"/>
     <use xlink:href="#DejaVuSans-69" transform="translate(1233.345703 0)"/>
     <use xlink:href="#DejaVuSans-6f" transform="translate(1261.128906 0)"/>
     <use xlink:href="#DejaVuSans-6e" transform="translate(1322.310547 0)"/>
     <use xlink:href="#DejaVuSans-73" transform="translate(1385.689453 0)"/>
    </g>
    <!-- SENS, regenerative medicine -->
    <g transform="translate(314.163281 227.518453) scale(0.09 -0.09)">
     <defs>
      <path id="DejaVuSans-53" d="M 3425 4513 
L 3425 3897 
Q 3066 4069 2747 4153 
Q 2428 4238 2131 4238 
Q 1616 4238 1336 4038 
Q 1056 3838 1056 3469 
Q 1056 3159 1242 3001 
Q 1428 2844 1947 2747 
L 2328 2669 
Q 3034 2534 3370 2195 
Q 3706 1856 3706 1288 
Q 3706 609 3251 259 
Q 2797 -91 1919 -91 
Q 1588 -91 1214 -16 
Q 841 59 441 206 
L 441 856 
Q 825 641 1194 531 
Q 1563 422 1919 422 
Q 2459 422 2753 634 
Q 3047 847 3047 1241 
Q 3047 1584 2836 1778 
Q 2625 1972 2144 2069 
L 1759 2144 
Q 1053 2284 737 2584 
Q 422 2884 422 3419 
Q 422 4038 858 4394 
Q 1294 4750 2059 4750 
Q 2388 4750 2728 4690 
Q 3069 4631 3425 4513 
z
" transform="scale(0.015625)"/>
      <path id="DejaVuSans-45" d="M 628 4666 
L 3578 4666 
L 3578 4134 
L 1259 4134 
L 1259 2753 
L 3481 2753 
L 3481 2222 
L 1259 2222 
L 1259 531 
L 3634 531 
L 3634 0 
L 628 0 
L 628 4666 
z
" transform="scale(0.015625)"/>
      <path id="DejaVuSans-4e" d="M 628 4666 
L 1478 4666 
L 3547 763 
L 3547 4666 
L 4159 4666 
L 4159 0 
L 3309 0 
L 1241 3903 
L 1241 0 
L 628 0 
L 628 4666 
z
" transform="scale(0.015625)"/>
     </defs>
     <use xlink:href="#DejaVuSans-53"/>
     <use xlink:href="#DejaVuSans-45" transform="translate(63.476562 0)"/>
     <use xlink:href="#DejaVuSans-4e" transform="translate(126.660156 0)"/>
     <use xlink:href="#DejaVuSans-53" transform="translate(201.464844 0)"/>
     <use xlink:href="#DejaVuSans-2c" transform="translate(264.941406 0)"/>
     <use xlink:href="#DejaVuSans-20" transform="translate(296.728516 0)"/>
     <use xlink:href="#DejaVuSans-72" transform="translate(328.515625 0)"/>
     <use xlink:href="#DejaVuSans-65" transform="translate(367.378906 0)"/>
     <use xlink:href="#DejaVuSans-67" transform="translate(428.902344 0)"/>
     <use xlink:href="#DejaVuSans-65" transform="translate(492.378906 0)"/>
     <use xlink:href="#DejaVuSans-6e" transform="translate(553.902344 0)"/>
     <use xlink:href="#DejaVuSans-65" transform="translate(617.28125 0)"/>
     <use xlink:href="#DejaVuSans-72" transform="translate(678.804688 0)"/>
     <use xlink:href="#DejaVuSans-61" transform="translate(719.917969 0)"/>
     <use xlink:href="#DejaVuSans-74" transform="translate(781.197266 0)"/>
     <use xlink:href="#DejaVuSans-69" transform="translate(820.40625 0)"/>
     <use xlink:href="#DejaVuSans-76" transform="translate(848.189453 0)"/>
     <use xlink:href="#DejaVuSans-65" transform="translate(907.369141 0)"/>
     <use xlink:href="#DejaVuSans-20" transform="translate(968.892578 0)"/>
     <use xlink:href="#DejaVuSans-6d" transform="translate(1000.679688 0)"/>
     <use xlink:href="#DejaVuSans-65" transform="translate(1098.091797 0)"/>
     <use xlink:href="#DejaVuSans-64" transform="translate(1159.615234 0)"/>
     <use xlink:href="#DejaVuSans-69" transform="translate(1223.091797 0)"/>
     <use xlink:href="#DejaVuSans-63" transform="translate(1250.875 0)"/>
     <use xlink:href="#DejaVuSans-69" transform="translate(1305.855469 0)"/>
     <use xlink:href="#DejaVuSans-6e" transform="translate(1333.638672 0)"/>
     <use xlink:href="#DejaVuSans-65" transform="translate(1397.017578 0)"/>
    </g>
   </g>
   <g id="text_7">
    <!-- Self-organization -->
    <g transform="translate(473.117094 166.537113) scale(0.1 -0.1)">
     <defs>
      <path id="DejaVuSans-Bold-53" d="M 3834 4519 
L 3834 3531 
Q 3450 3703 3084 3790 
Q 2719 3878 2394 3878 
Q 1963 3878 1756 3759 
Q 1550 3641 1550 3391 
Q 1550 3203 1689 3098 
Q 1828 2994 2194 2919 
L 2706 2816 
Q 3484 2659 3812 2340 
Q 4141 2022 4141 1434 
Q 4141 663 3683 286 
Q 3225 -91 2284 -91 
Q 1841 -91 1394 -6 
Q 947 78 500 244 
L 500 1259 
Q 947 1022 1364 901 
Q 1781 781 2169 781 
Q 2563 781 2772 912 
Q 2981 1044 2981 1288 
Q 2981 1506 2839 1625 
Q 2697 1744 2272 1838 
L 1806 1941 
Q 1106 2091 782 2419 
Q 459 2747 459 3303 
Q 459 4000 909 4375 
Q 1359 4750 2203 4750 
Q 2588 4750 2994 4692 
Q 3400 4634 3834 4519 
z
" transform="scale(0.015625)"/>
      <path id="DejaVuSans-Bold-6c" d="M 538 4863 
L 1656 4863 
L 1656 0 
L 538 0 
L 538 4863 
z
" transform="scale(0.015625)"/>
      <path id="DejaVuSans-Bold-2d" d="M 347 2297 
L 2309 2297 
L 2309 1388 
L 347 1388 
L 347 2297 
z
" transform="scale(0.015625)"/>
      <path id="DejaVuSans-Bold-7a" d="M 366 3500 
L 3419 3500 
L 3419 2719 
L 1575 800 
L 3419 800 
L 3419 0 
L 288 0 
L 288 781 
L 2131 2700 
L 366 2700 
L 366 3500 
z
" transform="scale(0.015625)"/>
     </defs>
     <use xlink:href="#DejaVuSans-Bold-53"/>
     <use xlink:href="#DejaVuSans-Bold-65" transform="translate(72.021484 0)"/>
     <use xlink:href="#DejaVuSans-Bold-6c" transform="translate(139.84375 0)"/>
     <use xlink:href="#DejaVuSans-Bold-66" transform="translate(174.121094 0)"/>
     <use xlink:href="#DejaVuSans-Bold-2d" transform="translate(215.876953 0)"/>
     <use xlink:href="#DejaVuSans-Bold-6f" transform="translate(257.380859 0)"/>
     <use xlink:href="#DejaVuSans-Bold-72" transform="translate(326.082031 0)"/>
     <use xlink:href="#DejaVuSans-Bold-67" transform="translate(375.398438 0)"/>
     <use xlink:href="#DejaVuSans-Bold-61" transform="translate(446.980469 0)"/>
     <use xlink:href="#DejaVuSans-Bold-6e" transform="translate(514.460938 0)"/>
     <use xlink:href="#DejaVuSans-Bold-69" transform="translate(585.652344 0)"/>
     <use xlink:href="#DejaVuSans-Bold-7a" transform="translate(619.929688 0)"/>
     <use xlink:href="#DejaVuSans-Bold-61" transform="translate(678.132812 0)"/>
     <use xlink:href="#DejaVuSans-Bold-74" transform="translate(745.613281 0)"/>
     <use xlink:href="#DejaVuSans-Bold-69" transform="translate(793.416016 0)"/>
     <use xlink:href="#DejaVuSans-Bold-6f" transform="translate(827.693359 0)"/>
     <use xlink:href="#DejaVuSans-Bold-6e" transform="translate(896.394531 0)"/>
    </g>
   </g>
   <g id="text_8">
    <!-- increase adaptive capacity -->
    <g transform="translate(460.997016 217.440422) scale(0.09 -0.09)">
     <defs>
      <path id="DejaVuSans-79" d="M 2059 -325 
Q 1816 -950 1584 -1140 
Q 1353 -1331 966 -1331 
L 506 -1331 
L 506 -850 
L 844 -850 
Q 1081 -850 1212 -737 
Q 1344 -625 1503 -206 
L 1606 56 
L 191 3500 
L 800 3500 
L 1894 763 
L 2988 3500 
L 3597 3500 
L 2059 -325 
z
" transform="scale(0.015625)"/>
     </defs>
     <use xlink:href="#DejaVuSans-69"/>
     <use xlink:href="#DejaVuSans-6e" transform="translate(27.783203 0)"/>
     <use xlink:href="#DejaVuSans-63" transform="translate(91.162109 0)"/>
     <use xlink:href="#DejaVuSans-72" transform="translate(146.142578 0)"/>
     <use xlink:href="#DejaVuSans-65" transform="translate(185.005859 0)"/>
     <use xlink:href="#DejaVuSans-61" transform="translate(246.529297 0)"/>
     <use xlink:href="#DejaVuSans-73" transform="translate(307.808594 0)"/>
     <use xlink:href="#DejaVuSans-65" transform="translate(359.908203 0)"/>
     <use xlink:href="#DejaVuSans-20" transform="translate(421.431641 0)"/>
     <use xlink:href="#DejaVuSans-61" transform="translate(453.21875 0)"/>
     <use xlink:href="#DejaVuSans-64" transform="translate(514.498047 0)"/>
     <use xlink:href="#DejaVuSans-61" transform="translate(577.974609 0)"/>
     <use xlink:href="#DejaVuSans-70" transform="translate(639.253906 0)"/>
     <use xlink:href="#DejaVuSans-74" transform="translate(702.730469 0)"/>
     <use xlink:href="#DejaVuSans-69" transform="translate(741.939453 0)"/>
     <use xlink:href="#DejaVuSans-76" transform="translate(769.722656 0)"/>
     <use xlink:href="#DejaVuSans-65" transform="translate(828.902344 0)"/>
     <use xlink:href="#DejaVuSans-20" transform="translate(890.425781 0)"/>
     <use xlink:href="#DejaVuSans-63" transform="translate(922.212891 0)"/>
     <use xlink:href="#DejaVuSans-61" transform="translate(977.193359 0)"/>
     <use xlink:href="#DejaVuSans-70" transform="translate(1038.472656 0)"/>
     <use xlink:href="#DejaVuSans-61" transform="translate(1101.949219 0)"/>
     <use xlink:href="#DejaVuSans-63" transform="translate(1163.228516 0)"/>
     <use xlink:href="#DejaVuSans-69" transform="translate(1218.208984 0)"/>
     <use xlink:href="#DejaVuSans-74" transform="translate(1245.992188 0)"/>
     <use xlink:href="#DejaVuSans-79" transform="translate(1285.201172 0)"/>
    </g>
    <!-- challenge, release, recovery -->
    <g transform="translate(457.846312 227.518453) scale(0.09 -0.09)">
     <defs>
      <path id="DejaVuSans-68" d="M 3513 2113 
L 3513 0 
L 2938 0 
L 2938 2094 
Q 2938 2591 2744 2837 
Q 2550 3084 2163 3084 
Q 1697 3084 1428 2787 
Q 1159 2491 1159 1978 
L 1159 0 
L 581 0 
L 581 4863 
L 1159 4863 
L 1159 2956 
Q 1366 3272 1645 3428 
Q 1925 3584 2291 3584 
Q 2894 3584 3203 3211 
Q 3513 2838 3513 2113 
z
" transform="scale(0.015625)"/>
     </defs>
     <use xlink:href="#DejaVuSans-63"/>
     <use xlink:href="#DejaVuSans-68" transform="translate(54.980469 0)"/>
     <use xlink:href="#DejaVuSans-61" transform="translate(118.359375 0)"/>
     <use xlink:href="#DejaVuSans-6c" transform="translate(179.638672 0)"/>
     <use xlink:href="#DejaVuSans-6c" transform="translate(207.421875 0)"/>
     <use xlink:href="#DejaVuSans-65" transform="translate(235.205078 0)"/>
     <use xlink:href="#DejaVuSans-6e" transform="translate(296.728516 0)"/>
     <use xlink:href="#DejaVuSans-67" transform="translate(360.107422 0)"/>
     <use xlink:href="#DejaVuSans-65" transform="translate(423.583984 0)"/>
     <use xlink:href="#DejaVuSans-2c" transform="translate(485.107422 0)"/>
     <use xlink:href="#DejaVuSans-20" transform="translate(516.894531 0)"/>
     <use xlink:href="#DejaVuSans-72" transform="translate(548.681641 0)"/>
     <use xlink:href="#DejaVuSans-65" transform="translate(587.544922 0)"/>
     <use xlink:href="#DejaVuSans-6c" transform="translate(649.068359 0)"/>
     <use xlink:href="#DejaVuSans-65" transform="translate(676.851562 0)"/>
     <use xlink:href="#DejaVuSans-61" transform="translate(738.375 0)"/>
     <use xlink:href="#DejaVuSans-73" transform="translate(799.654297 0)"/>
     <use xlink:href="#DejaVuSans-65" transform="translate(851.753906 0)"/>
     <use xlink:href="#DejaVuSans-2c" transform="translate(913.277344 0)"/>
     <use xlink:href="#DejaVuSans-20" transform="translate(945.064453 0)"/>
     <use xlink:href="#DejaVuSans-72" transform="translate(976.851562 0)"/>
     <use xlink:href="#DejaVuSans-65" transform="translate(1015.714844 0)"/>
     <use xlink:href="#DejaVuSans-63" transform="translate(1077.238281 0)"/>
     <use xlink:href="#DejaVuSans-6f" transform="translate(1132.21875 0)"/>
     <use xlink:href="#DejaVuSans-76" transform="translate(1193.400391 0)"/>
     <use xlink:href="#DejaVuSans-65" transform="translate(1252.580078 0)"/>
     <use xlink:href="#DejaVuSans-72" transform="translate(1314.103516 0)"/>
     <use xlink:href="#DejaVuSans-79" transform="translate(1355.216797 0)"/>
    </g>
   </g>
   <g id="text_9">
    <!-- A practical longevity programme may combine all four levels. -->
    <g transform="translate(151.497656 321.8208) scale(0.1 -0.1)">
     <defs>
      <path id="DejaVuSans-41" d="M 2188 4044 
L 1331 1722 
L 3047 1722 
L 2188 4044 
z
M 1831 4666 
L 2547 4666 
L 4325 0 
L 3669 0 
L 3244 1197 
L 1141 1197 
L 716 0 
L 50 0 
L 1831 4666 
z
" transform="scale(0.015625)"/>
      <path id="DejaVuSans-66" d="M 2375 4863 
L 2375 4384 
L 1825 4384 
Q 1516 4384 1395 4259 
Q 1275 4134 1275 3809 
L 1275 3500 
L 2222 3500 
L 2222 3053 
L 1275 3053 
L 1275 0 
L 697 0 
L 697 3053 
L 147 3053 
L 147 3500 
L 697 3500 
L 697 3744 
Q 697 4328 969 4595 
Q 1241 4863 1831 4863 
L 2375 4863 
z
" transform="scale(0.015625)"/>
      <path id="DejaVuSans-2e" d="M 684 794 
L 1344 794 
L 1344 0 
L 684 0 
L 684 794 
z
" transform="scale(0.015625)"/>
     </defs>
     <use xlink:href="#DejaVuSans-41"/>
     <use xlink:href="#DejaVuSans-20" transform="translate(68.408203 0)"/>
     <use xlink:href="#DejaVuSans-70" transform="translate(100.195312 0)"/>
     <use xlink:href="#DejaVuSans-72" transform="translate(163.671875 0)"/>
     <use xlink:href="#DejaVuSans-61" transform="translate(204.785156 0)"/>
     <use xlink:href="#DejaVuSans-63" transform="translate(266.064453 0)"/>
     <use xlink:href="#DejaVuSans-74" transform="translate(321.044922 0)"/>
     <use xlink:href="#DejaVuSans-69" transform="translate(360.253906 0)"/>
     <use xlink:href="#DejaVuSans-63" transform="translate(388.037109 0)"/>
     <use xlink:href="#DejaVuSans-61" transform="translate(443.017578 0)"/>
     <use xlink:href="#DejaVuSans-6c" transform="translate(504.296875 0)"/>
     <use xlink:href="#DejaVuSans-20" transform="translate(532.080078 0)"/>
     <use xlink:href="#DejaVuSans-6c" transform="translate(563.867188 0)"/>
     <use xlink:href="#DejaVuSans-6f" transform="translate(591.650391 0)"/>
     <use xlink:href="#DejaVuSans-6e" transform="translate(652.832031 0)"/>
     <use xlink:href="#DejaVuSans-67" transform="translate(716.210938 0)"/>
     <use xlink:href="#DejaVuSans-65" transform="translate(779.6875 0)"/>
     <use xlink:href="#DejaVuSans-76" transform="translate(841.210938 0)"/>
     <use xlink:href="#DejaVuSans-69" transform="translate(900.390625 0)"/>
     <use xlink:href="#DejaVuSans-74" transform="translate(928.173828 0)"/>
     <use xlink:href="#DejaVuSans-79" transform="translate(967.382812 0)"/>
     <use xlink:href="#DejaVuSans-20" transform="translate(1026.5625 0)"/>
     <use xlink:href="#DejaVuSans-70" transform="translate(1058.349609 0)"/>
     <use xlink:href="#DejaVuSans-72" transform="translate(1121.826172 0)"/>
     <use xlink:href="#DejaVuSans-6f" transform="translate(1160.689453 0)"/>
     <use xlink:href="#DejaVuSans-67" transform="translate(1221.871094 0)"/>
     <use xlink:href="#DejaVuSans-72" transform="translate(1285.347656 0)"/>
     <use xlink:href="#DejaVuSans-61" transform="translate(1326.460938 0)"/>
     <use xlink:href="#DejaVuSans-6d" transform="translate(1387.740234 0)"/>
     <use xlink:href="#DejaVuSans-6d" transform="translate(1485.152344 0)"/>
     <use xlink:href="#DejaVuSans-65" transform="translate(1582.564453 0)"/>
     <use xlink:href="#DejaVuSans-20" transform="translate(1644.087891 0)"/>
     <use xlink:href="#DejaVuSans-6d" transform="translate(1675.875 0)"/>
     <use xlink:href="#DejaVuSans-61" transform="translate(1773.287109 0)"/>
     <use xlink:href="#DejaVuSans-79" transform="translate(1834.566406 0)"/>
     <use xlink:href="#DejaVuSans-20" transform="translate(1893.746094 0)"/>
     <use xlink:href="#DejaVuSans-63" transform="translate(1925.533203 0)"/>
     <use xlink:href="#DejaVuSans-6f" transform="translate(1980.513672 0)"/>
     <use xlink:href="#DejaVuSans-6d" transform="translate(2041.695312 0)"/>
     <use xlink:href="#DejaVuSans-62" transform="translate(2139.107422 0)"/>
     <use xlink:href="#DejaVuSans-69" transform="translate(2202.583984 0)"/>
     <use xlink:href="#DejaVuSans-6e" transform="translate(2230.367188 0)"/>
     <use xlink:href="#DejaVuSans-65" transform="translate(2293.746094 0)"/>
     <use xlink:href="#DejaVuSans-20" transform="translate(2355.269531 0)"/>
     <use xlink:href="#DejaVuSans-61" transform="translate(2387.056641 0)"/>
     <use xlink:href="#DejaVuSans-6c" transform="translate(2448.335938 0)"/>
     <use xlink:href="#DejaVuSans-6c" transform="translate(2476.119141 0)"/>
     <use xlink:href="#DejaVuSans-20" transform="translate(2503.902344 0)"/>
     <use xlink:href="#DejaVuSans-66" transform="translate(2535.689453 0)"/>
     <use xlink:href="#DejaVuSans-6f" transform="translate(2570.894531 0)"/>
     <use xlink:href="#DejaVuSans-75" transform="translate(2632.076172 0)"/>
     <use xlink:href="#DejaVuSans-72" transform="translate(2695.455078 0)"/>
     <use xlink:href="#DejaVuSans-20" transform="translate(2736.568359 0)"/>
     <use xlink:href="#DejaVuSans-6c" transform="translate(2768.355469 0)"/>
     <use xlink:href="#DejaVuSans-65" transform="translate(2796.138672 0)"/>
     <use xlink:href="#DejaVuSans-76" transform="translate(2857.662109 0)"/>
     <use xlink:href="#DejaVuSans-65" transform="translate(2916.841797 0)"/>
     <use xlink:href="#DejaVuSans-6c" transform="translate(2978.365234 0)"/>
     <use xlink:href="#DejaVuSans-73" transform="translate(3006.148438 0)"/>
     <use xlink:href="#DejaVuSans-2e" transform="translate(3058.248047 0)"/>
    </g>
   </g>
   <g id="text_10">
    <!-- Four complementary intervention logics -->
    <g transform="translate(185.980313 20.88) scale(0.12 -0.12)">
     <defs>
      <path id="DejaVuSans-46" d="M 628 4666 
L 3309 4666 
L 3309 4134 
L 1259 4134 
L 1259 2759 
L 3109 2759 
L 3109 2228 
L 1259 2228 
L 1259 0 
L 628 0 
L 628 4666 
z
" transform="scale(0.015625)"/>
     </defs>
     <use xlink:href="#DejaVuSans-46"/>
     <use xlink:href="#DejaVuSans-6f" transform="translate(53.894531 0)"/>
     <use xlink:href="#DejaVuSans-75" transform="translate(115.076172 0)"/>
     <use xlink:href="#DejaVuSans-72" transform="translate(178.455078 0)"/>
     <use xlink:href="#DejaVuSans-20" transform="translate(219.568359 0)"/>
     <use xlink:href="#DejaVuSans-63" transform="translate(251.355469 0)"/>
     <use xlink:href="#DejaVuSans-6f" transform="translate(306.335938 0)"/>
     <use xlink:href="#DejaVuSans-6d" transform="translate(367.517578 0)"/>
     <use xlink:href="#DejaVuSans-70" transform="translate(464.929688 0)"/>
     <use xlink:href="#DejaVuSans-6c" transform="translate(528.40625 0)"/>
     <use xlink:href="#DejaVuSans-65" transform="translate(556.189453 0)"/>
     <use xlink:href="#DejaVuSans-6d" transform="translate(617.712891 0)"/>
     <use xlink:href="#DejaVuSans-65" transform="translate(715.125 0)"/>
     <use xlink:href="#DejaVuSans-6e" transform="translate(776.648438 0)"/>
     <use xlink:href="#DejaVuSans-74" transform="translate(840.027344 0)"/>
     <use xlink:href="#DejaVuSans-61" transform="translate(879.236328 0)"/>
     <use xlink:href="#DejaVuSans-72" transform="translate(940.515625 0)"/>
     <use xlink:href="#DejaVuSans-79" transform="translate(981.628906 0)"/>
     <use xlink:href="#DejaVuSans-20" transform="translate(1040.808594 0)"/>
     <use xlink:href="#DejaVuSans-69" transform="translate(1072.595703 0)"/>
     <use xlink:href="#DejaVuSans-6e" transform="translate(1100.378906 0)"/>
     <use xlink:href="#DejaVuSans-74" transform="translate(1163.757812 0)"/>
     <use xlink:href="#DejaVuSans-65" transform="translate(1202.966797 0)"/>
     <use xlink:href="#DejaVuSans-72" transform="translate(1264.490234 0)"/>
     <use xlink:href="#DejaVuSans-76" transform="translate(1305.603516 0)"/>
     <use xlink:href="#DejaVuSans-65" transform="translate(1364.783203 0)"/>
     <use xlink:href="#DejaVuSans-6e" transform="translate(1426.306641 0)"/>
     <use xlink:href="#DejaVuSans-74" transform="translate(1489.685547 0)"/>
     <use xlink:href="#DejaVuSans-69" transform="translate(1528.894531 0)"/>
     <use xlink:href="#DejaVuSans-6f" transform="translate(1556.677734 0)"/>
     <use xlink:href="#DejaVuSans-6e" transform="translate(1617.859375 0)"/>
     <use xlink:href="#DejaVuSans-20" transform="translate(1681.238281 0)"/>
     <use xlink:href="#DejaVuSans-6c" transform="translate(1713.025391 0)"/>
     <use xlink:href="#DejaVuSans-6f" transform="translate(1740.808594 0)"/>
     <use xlink:href="#DejaVuSans-67" transform="translate(1801.990234 0)"/>
     <use xlink:href="#DejaVuSans-69" transform="translate(1865.466797 0)"/>
     <use xlink:href="#DejaVuSans-63" transform="translate(1893.25 0)"/>
     <use xlink:href="#DejaVuSans-73" transform="translate(1948.230469 0)"/>
    </g>
   </g>
  </g>
 </g>
 <defs>
  <clipPath id="pba2a760b0f">
   <rect x="10.8" y="26.88" width="590.4" height="351.12"/>
  </clipPath>
 </defs>
</svg>
